<?xml version="1.0" standalone="no"?>
<!DOCTYPE svg PUBLIC "-//W3C//DTD SVG 1.1//EN" "http://www.w3.org/Graphics/SVG/1.1/DTD/svg11.dtd" >
<svg>
<metadata>
Created by FontForge 20090914 at Wed Feb  1 12:33:07 2023
 By www-data
Wander Over Yonder &#194;&#169; Disney 2015. All Rights Reserved
</metadata>
<defs>
<font id="WanderOverYonder" horiz-adv-x="900">
  <font-face font-family="Wander Over Yonder" font-weight="400" font-stretch="normal" units-per-em="2048" panose-1="2 0 5 0 0 0 0 0 0 0" ascent="1638" descent="-410" x-height="995" cap-height="1440" bbox="-456.001 -933.001 2144 1725.72" underline-thickness="150" underline-position="-142" unicode-range="U+0020-U+FB00"></font-face>
<missing-glyph horiz-adv-x="1024" d="M100 0v1434h824v-1434h-824zM150 50h724v1334h-724v-1334zM550 1158l7.00098 -0.000976562c128.667 0 213 -59.333 253 -178c6 -22 9 -43.333 9 -64c0 -76 -41 -139.667 -123 -191c-80.667 -60 -121 -115.667 -121 -167c0 -57.333 -16 -93.666 -48 -108.999
c-16 -12 -32.667 -18 -50 -18c-70 7.33301 -105 39 -105 95v9c0 65.333 56.333 137.666 169 216.999c34.667 30 52 56 52 78c0 16 -10.667 25 -32 27c-32 0 -83.667 -24.333 -155 -73c-38.667 -20 -70.334 -30 -95.001 -30h-10c-53.333 0 -84.333 36 -93 108
c0 56.667 23.667 114.334 71 173.001c80.667 82 171 123 271 123zM482.001 407.999l11 0.000976562c42 0 69.333 -18.333 82 -55c0 -2.66699 1.66699 -11.667 5 -27c0 -56 -29.667 -94 -89 -114l-35 -5c-48 0 -79.667 17.667 -95 53c0 2 -1.66699 10.333 -5 25
c0 37.333 25 73.666 75 108.999c18 9.33301 35 14 51 14z"></missing-glyph>
    <glyph glyph-name=".notdef" horiz-adv-x="1024" d="M100 0v1434h824v-1434h-824zM150 50h724v1334h-724v-1334zM550 1158l7.00098 -0.000976562c128.667 0 213 -59.333 253 -178c6 -22 9 -43.333 9 -64c0 -76 -41 -139.667 -123 -191c-80.667 -60 -121 -115.667 -121 -167c0 -57.333 -16 -93.666 -48 -108.999
c-16 -12 -32.667 -18 -50 -18c-70 7.33301 -105 39 -105 95v9c0 65.333 56.333 137.666 169 216.999c34.667 30 52 56 52 78c0 16 -10.667 25 -32 27c-32 0 -83.667 -24.333 -155 -73c-38.667 -20 -70.334 -30 -95.001 -30h-10c-53.333 0 -84.333 36 -93 108
c0 56.667 23.667 114.334 71 173.001c80.667 82 171 123 271 123zM482.001 407.999l11 0.000976562c42 0 69.333 -18.333 82 -55c0 -2.66699 1.66699 -11.667 5 -27c0 -56 -29.667 -94 -89 -114l-35 -5c-48 0 -79.667 17.667 -95 53c0 2 -1.66699 10.333 -5 25
c0 37.333 25 73.666 75 108.999c18 9.33301 35 14 51 14z"></glyph>
    <glyph glyph-name="space" unicode=" " horiz-adv-x="508"></glyph>
    <glyph glyph-name="space" unicode="&#xa0;" horiz-adv-x="508"></glyph>
    <glyph glyph-name="exclam" unicode="!" horiz-adv-x="484" d="M167 38c-56 44.667 -84.002 99.333 -84.002 164v10c0 32 9 61 27 87c28 32.667 65.667 49 113 49h9c20.667 0 45.334 -5.33301 74.001 -16c60.667 -27.333 91 -81 91 -161c0 -36 -5.66699 -68 -17 -96c-24 -50 -60.667 -75 -110 -75
c-31.333 0 -65.666 12.667 -102.999 38zM186.998 482.999c-77.333 58.667 -116.001 220.999 -116.001 486.999v24c0 78.667 10 156.334 30 233.001c32.667 106.667 84.334 163.667 155.001 171h4c15.333 0 30.333 -6.66699 45 -20c65.333 -61.333 98 -188.333 98 -381v-21
c0 -39.333 -1.33301 -86 -4 -140c-34.667 -246 -88.667 -369 -162 -369c-15.333 0 -32 5.33301 -50 16z"></glyph>
    <glyph glyph-name="quotedbl" unicode="&#x22;" horiz-adv-x="672" d="M330 1620c0 -23.333 -4.33105 -63.334 -12.998 -120.001l-16 -95c-21.333 -78.667 -50.333 -125.667 -87 -141c-12.667 -5.33301 -27 -8 -43 -8c-12.667 0 -22.334 1.33301 -29.001 4c-32.667 12 -55 34.333 -67 67c-6.66699 22.667 -10 45 -10 67
c0 6.66699 0.333008 13.334 1 20.001v27c0 34.667 2 67.667 6 99l5 37c3.33301 15.333 7.33301 28.333 12 39c25.333 45.333 67.333 68 126 68c13.333 0 23.666 -0.666992 30.999 -2c22.667 -2.66699 41 -7 55 -13c19.333 -10.667 29 -27 29 -49zM623.002 1620
c0 -23.333 -4.33105 -63.334 -12.998 -120.001l-16 -95c-21.333 -78.667 -50.333 -125.667 -87 -141c-12.667 -5.33301 -27 -8 -43 -8c-12.667 0 -22.334 1.33301 -29.001 4c-32.667 12 -55 34.333 -67 67c-6.66699 22.667 -10 45 -10 67
c0 6.66699 0.333008 13.334 1 20.001v27c0 34.667 2 67.667 6 99l5 37c3.33301 15.333 7.33301 28.333 12 39c25.333 45.333 67.333 68 126 68c13.333 0 23.666 -0.666992 30.999 -2c22.667 -2.66699 41 -7 55 -13c19.333 -10.667 29 -27 29 -49z"></glyph>
    <glyph glyph-name="numbersign" unicode="#" horiz-adv-x="1299" d="M536 1417c62.667 -15.333 94.001 -66.6641 94.001 -153.997c0 -50 -13.333 -124.333 -40 -223v-3h2c195.333 31.333 293 48.666 293 51.999c20.667 114.667 54.667 203 102 265c33.333 42 64.666 63 93.999 63c60.667 -14.667 91 -64 91 -148v-16
c0 -44 -8 -95.333 -24 -154c0 -6.66699 16.333 -15.334 49 -26.001c60.667 -34 91 -75.333 91 -124c0 -71.333 -54.667 -119.333 -164 -144c-19.333 -4.66699 -41.666 -7 -66.999 -7h-8c-13.333 -18 -43 -91 -89 -219c-3.33301 -14 -5 -23.667 -5 -29
c35.333 2 59.333 3 72 3c94 0 156.667 -27.333 188 -82c9.33301 -21.333 14 -37.666 14 -48.999c-0.666992 -69.333 -63.334 -109.666 -188.001 -120.999h-35c-34 3.33301 -65.333 6.66602 -94 9.99902c-14 -81.333 -36.333 -151.333 -67 -210
c-41.333 -67.333 -75.333 -101 -102 -101c-41.333 0 -66.666 44.667 -75.999 134c0 42 13.667 108.667 41 200c-216.667 -24 -331.334 -38.333 -344.001 -43c-22 -113.333 -59.667 -199.333 -113 -258c-19.333 -22 -37.333 -33 -54 -33c-38 0 -62 39.333 -72 118v23
c0 30 9 83.333 27 160c-93.333 26 -140 74 -140 144c0 79.333 73.333 130.666 220 153.999h27c5.33301 0 17 69.667 35 209v3h-16c-138 17.333 -207 59 -207 125c0 63.333 53 104.666 159 123.999h86l18 -3c30.667 164 73 269.667 127 317c24 28.667 49 43 75 43z
M418.001 579.002c182.667 -34.667 289.001 -52 319.001 -52h41c22.667 30 43 126 61 288c-144 21.333 -225.333 32 -244 32c-50.667 -2 -79.334 -11.667 -86.001 -29c-60.667 -146 -91 -225.667 -91 -239z"></glyph>
    <glyph glyph-name="dollar" unicode="$" horiz-adv-x="868" d="M368 20c-68.667 23.333 -135.998 65.6699 -201.998 127.003c-53.333 57.333 -80 124.666 -80 201.999v3c8.66699 94 42.667 141 102 141c30 0 81 -25.667 153 -77c16.667 -11.333 32 -17 46 -17c3.33301 0 6.33301 0.333008 9 1c16.667 2.66699 27.334 19 32.001 49v12
c0 48.667 -55.667 86.334 -167 113.001c-162.667 58.667 -245.667 176 -249 352c0 144.667 55.667 272.667 167 384c54 42 111.333 71.333 172 88c7.33301 55.333 20 108.333 38 159c22 51.333 44.333 77 67 77h2c50.667 0 85.334 -62.667 104.001 -188l4 -33
c125.333 -15.333 213 -94.333 263 -237c8.66699 -34.667 13 -66.667 13 -96c0 -124.667 -38.667 -208 -116 -250c-12.667 -6 -27.334 -9.33301 -44.001 -10c-36 0 -78.667 19 -128 57c-14 8.66699 -28.333 13 -43 13c-8.66699 0 -17.334 -1.33301 -26.001 -4
c-24.667 -8.66699 -37 -27.334 -37 -56.001v-8c0 -66.667 65.667 -124 197 -172c63.333 -32 111.666 -75.667 144.999 -131c32.667 -66 49 -124.667 49 -176c0 -124.667 -66.333 -228.334 -199 -311.001c-36.667 -15.333 -70.334 -25 -101.001 -29
c-6 -34.667 -13.333 -69.334 -22 -104.001c-18 -55.333 -37 -83 -57 -83c-43.333 0 -73 56.667 -89 170c-0.666992 12 -1.66699 23.333 -3 34z"></glyph>
    <glyph glyph-name="percent" unicode="%" horiz-adv-x="1200" d="M342 1370l5.00098 -0.000976562c39.333 0 77.666 -12.333 114.999 -37c49.333 -49.333 74 -113.666 74 -192.999c0 -78 -25 -161 -75 -249c-56.667 -84 -122 -126 -196 -126h-1c-66.667 0 -124 39.667 -172 119c-20 46.667 -30 95.667 -30 147
c0 136 64.333 241.667 193 317c30.667 14.667 59.667 22 87 22zM239.001 1044c7.33301 -30.667 22.998 -47.335 46.998 -50.002c6 0.666992 10.667 1.33398 14 2.00098c26 6 43 34.333 51 85c0.666992 3.33301 1 7 1 11c0 10.667 -1.66699 21.334 -5 32.001
c-5.33301 24 -16 38.333 -32 43c-3.33301 0.666992 -6.66602 1 -9.99902 1s-6.66602 -0.333008 -9.99902 -1l-7 -1c-27.333 -6.66699 -45 -36.667 -53 -90c0.666992 -13.333 2 -24 4 -32zM967.999 655.998l5.00098 -0.000976562c39.333 0 77.666 -12.333 114.999 -37
c49.333 -49.333 74 -113.666 74 -192.999c0 -78 -25 -161 -75 -249c-56.667 -84 -122 -126 -196 -126h-1c-66.667 0 -124 39.667 -172 119c-20 46.667 -30 95.667 -30 147c0 136 64.333 241.667 193 317c30.667 14.667 59.667 22 87 22zM866 347.997
c0 -31.333 11.6689 -50.999 35.002 -58.999c5.33301 -1.33301 9.66602 -2 12.999 -2c26.667 0 50 23.667 70 71c4 13.333 6 27 6 41c0 25.333 -7 42 -21 50c-6.66699 3.33301 -13.334 5 -20.001 5h-7c-27.333 0 -51.333 -24.667 -72 -74
c-2.66699 -12.667 -4 -23.334 -4 -32.001zM1131 1318c0.666992 -3.33301 1.00195 -7.33105 1.00195 -11.998c0 -26 -12 -64.667 -36 -116c-31.333 -68.667 -84.333 -160.667 -159 -276c-80.667 -124 -164 -238 -250 -342l-51 -62c-148.667 -182 -300.667 -324.667 -456 -428
c-20 -8 -36.333 -12 -49 -12c-10.667 0 -18.334 3 -23.001 9c-3.33301 3.33301 -5.33301 8 -6 14c-0.666992 4 -1 8.33301 -1 13c0 29.333 14.333 75.333 43 138c18.667 39.333 43 85.666 73 138.999c103.333 177.333 217.666 342.666 342.999 495.999l63 77
c171.333 209.333 321.333 341 450 395c5.33301 0.666992 10.333 1 15 1c14.667 0 25.667 -4 33 -12c4.66699 -6 8 -13.333 10 -22z"></glyph>
    <glyph glyph-name="ampersand" unicode="&#x26;" horiz-adv-x="1238" d="M429 1412c90.667 0 195.668 -44.3281 315.001 -132.995c100.667 -103.333 151 -216.333 151 -339c0 -114 -48.333 -209.667 -145 -287c-40 -26.667 -70.667 -44.667 -92 -54c48.667 -19.333 109 -52 181 -98h6c19.333 11.333 29 27.333 29 48v15
c0 17.333 -2.66699 51.666 -8 102.999v7c0 47.333 26.667 89.666 80 126.999c24 14 49.667 21 77 21h21c58.667 0 98 -30.667 118 -92c4 -27.333 6 -45.333 6 -54c0 -90 -45.333 -195.667 -136 -317c112.667 -114.667 169 -195.667 169 -243v-6
c-7.33301 -65.333 -39 -98 -95 -98h-3c-74 0 -148.333 62.667 -223 188c-111.333 -133.333 -243.666 -200 -396.999 -200c-140.667 0 -248.334 57.333 -323.001 172c-24 48 -36 110.333 -36 187v21c0 58.667 49.333 125.667 148 201
c-106.667 69.333 -172 131.666 -196 186.999c-28 87.333 -42.667 168.666 -44 243.999c0 169.333 88 293.666 264 372.999c49.333 18 93.666 27 132.999 27zM388.001 851.005c8.66699 -68.667 32.334 -103 71.001 -103h6c36.667 0 67.334 38.333 92.001 115
c2 10.667 3 20.667 3 30v15c-6.66699 67.333 -27.334 101 -62.001 101c0 2 -4 3 -12 3c-44.667 0 -77.334 -40.667 -98.001 -122v-39zM468.001 341.005l0.000976562 -8.99902c0 -32.667 12 -56.334 36 -71.001h17c40 26 60 66.667 60 122c-4 45.333 -18 68 -42 68h-9
c-30.667 0 -51.334 -36.667 -62.001 -110z"></glyph>
    <glyph glyph-name="quotesingle" unicode="'" horiz-adv-x="400" d="M146 1610h8c156 -24.667 234 -97.334 234 -218.001v-19c0 -78 -41.667 -173.667 -125 -287c-40 -38.667 -84 -58 -132 -58c-78 1.33301 -117 24.333 -117 69v6c0 14 22 72.667 66 176c2 6.66699 3 14.334 3 23.001v7l-23 216c0 56.667 28.667 85 86 85z"></glyph>
    <glyph glyph-name="parenleft" unicode="(" horiz-adv-x="662" d="M645 1550c0 -16 -7.66504 -35.668 -22.998 -59.001c-48 -74 -93.333 -173 -136 -297s-64.667 -242 -66 -354v-45c0 -314 51 -523.667 153 -629c19.333 -19.333 29 -40 29 -62c0 -28.667 -13.833 -53.167 -41.5 -73.5s-59.834 -30.5 -96.501 -30.5
c-42.667 0 -79 18.333 -109 55c-64 88.667 -113.333 162.5 -148 221.5s-61.834 122.5 -81.501 190.5s-29.5 144.333 -29.5 229v39c8.66699 162.667 46.667 324 114 484c64 152.667 142 275.334 234 368.001c32.667 34 61.667 51 87 51c14.667 0 31 -5.33301 49 -16
c43.333 -26 65 -50 65 -72z"></glyph>
    <glyph glyph-name="parenright" unicode=")" horiz-adv-x="662" d="M137 1622c18 10.667 34.335 16.001 49.002 16.001c25.333 0 54.333 -17 87 -51c92 -92.667 170 -215.334 234 -368.001c67.333 -160 105.333 -321.333 114 -484v-39c0 -84.667 -9.83301 -161 -29.5 -229s-46.834 -131.5 -81.501 -190.5s-84 -132.833 -148 -221.5
c-30 -36.667 -66.333 -55 -109 -55c-36.667 0 -68.834 10.167 -96.501 30.5s-41.5 44.833 -41.5 73.5c0 22 9.66699 42.667 29 62c102 105.333 153 315 153 629v45c-1.33301 112 -23.333 230 -66 354s-88 223 -136 297c-15.333 23.333 -23 43 -23 59c0 22 21.667 46 65 72z
"></glyph>
    <glyph glyph-name="asterisk" unicode="*" horiz-adv-x="1000" d="M508 1628c58 0 98.333 -101.001 121 -303.001c189.333 -17.333 284 -43.666 284 -78.999c0 -36 -82.333 -70 -247 -102c120.667 -128 181 -212.333 181 -253v-4c0 -20.667 -15 -33 -45 -37c-53.333 0 -150 63.667 -290 191l-129 -109c-70 -50.667 -119.333 -76 -148 -76
c-20 0 -34.333 9.66699 -43 29c-0.666992 12 -2 18 -4 18c3.33301 50.667 55.333 130 156 238c-74 0 -143.667 13 -209 39c-20.667 14.667 -31 28.667 -31 42c0 46 98.667 80.667 296 104c0 74.667 13.667 156 41 244c18.667 38.667 41 58 67 58z"></glyph>
    <glyph glyph-name="plus" unicode="+" horiz-adv-x="1100" d="M725 800c118 -16 220 -55.002 306 -117.002c28.667 -29.333 43 -57.666 43 -84.999c0 -54 -75 -99.667 -225 -137c-40.667 -10 -81.334 -17.667 -122.001 -23c-16.667 -117.333 -55.667 -218.666 -117 -303.999c-29.333 -28.667 -57.666 -43 -84.999 -43
c-54 0 -99.667 75 -137 225c-10.667 42.667 -18.667 85 -24 127c-94.667 16.667 -188.334 47 -281.001 91c-43.333 32 -65 61.333 -65 88c0 43.333 47.333 84.333 142 123c67.333 25.333 137.333 43 210 53c16 96 46.333 190.667 91 284c32 43.333 61.333 65 88 65
c43.333 0 84.333 -47.333 123 -142c24.667 -66 42.334 -134.333 53.001 -205z"></glyph>
    <glyph glyph-name="comma" unicode="," horiz-adv-x="557" d="M146 197h8c156 -24.667 234 -97.334 234 -218.001v-19c0 -78 -41.667 -173.667 -125 -287c-40 -38.667 -84 -58 -132 -58c-78 1.33301 -117 24.333 -117 69v6c0 14 22 72.667 66 176c2 6.66699 3 14.334 3 23.001v7l-23 216c0 56.667 28.667 85 86 85z"></glyph>
    <glyph glyph-name="hyphen" unicode="-" horiz-adv-x="1099" d="M1073 581c0 -54 -75.001 -99.668 -225.001 -137.001c-87.333 -21.333 -175.333 -32 -264 -32h-51c-153.333 0 -303.666 35 -450.999 105c-43.333 32 -65 61.333 -65 88c0 43.333 47.333 84.333 142 123c114 42.667 235.667 64 365 64h65c176.667 0 323.667 -42 441 -126
c28.667 -29.333 43 -57.666 43 -84.999z"></glyph>
    <glyph glyph-name="hyphen" unicode="&#xad;" horiz-adv-x="1099" d="M1073 581c0 -54 -75.001 -99.668 -225.001 -137.001c-87.333 -21.333 -175.333 -32 -264 -32h-51c-153.333 0 -303.666 35 -450.999 105c-43.333 32 -65 61.333 -65 88c0 43.333 47.333 84.333 142 123c114 42.667 235.667 64 365 64h65c176.667 0 323.667 -42 441 -126
c28.667 -29.333 43 -57.666 43 -84.999z"></glyph>
    <glyph glyph-name="period" unicode="." horiz-adv-x="500" d="M176 38c-56 44.667 -84.002 99.333 -84.002 164v10c0 32 9 61 27 87c28 32.667 65.667 49 113 49h9c20.667 0 45.334 -5.33301 74.001 -16c60.667 -27.333 91 -81 91 -161c0 -36 -5.66699 -68 -17 -96c-24 -50 -60.667 -75 -110 -75
c-31.333 0 -65.666 12.667 -102.999 38z"></glyph>
    <glyph glyph-name="slash" unicode="/" horiz-adv-x="800" d="M759 1392c24 -11.333 35.998 -43.333 35.998 -96c0 -60.667 -16 -148.667 -48 -264c-34.667 -124.667 -80 -245.334 -136 -362.001l-33 -69c-96.667 -202.667 -224.667 -385 -384 -547c-45.333 -33.333 -80.333 -50 -105 -50c-7.33301 0 -13.666 1.33301 -18.999 4
c-26.667 12.667 -40 51 -40 115c0 34.667 4 77.334 12 128.001c32 170 88.667 340.333 170 511l41 86c111.333 234 244 409 398 525c30.667 16.667 57 25 79 25c10.667 0 20.334 -2 29.001 -6z"></glyph>
    <glyph glyph-name="zero" unicode="0" horiz-adv-x="980" d="M472 1420c197.333 0 335.667 -130.332 415 -390.999c34.667 -116 52 -241.333 52 -376v-27c0 -306 -104 -502.333 -312 -589c-75.333 -24.667 -136 -37 -182 -37c-155.333 0 -277.333 121.333 -366 364c-32.667 106 -49 194.333 -49 265
c0 265.333 61.333 483.666 184 654.999c88 90.667 174 136 258 136zM334.001 568.001c11.333 -72 44.332 -108 98.999 -108c80 0 144.333 71 193 213c3.33301 32.667 5 60 5 82v5c0 117.333 -35 185.333 -105 204h-14c-81.333 0 -140.666 -105.667 -177.999 -317v-79z"></glyph>
    <glyph glyph-name="one" unicode="1" horiz-adv-x="650" d="M368 1409c83.333 0 146.333 -46.668 189 -140.001c30.667 -63.333 46 -220.666 46 -471.999v-151c0 -282.667 -21.667 -461 -65 -535c-48 -74 -100.333 -111 -157 -111h-3c-82.667 0 -147.667 71.667 -195 215c-22 86.667 -33 193 -33 319v58
c2.66699 126 4 230.333 4 313c-82.667 37.333 -124 102.333 -124 195c0 146 81.333 243.667 244 293c24 6 55.333 11.333 94 16z"></glyph>
    <glyph glyph-name="two" unicode="2" horiz-adv-x="1100" d="M710 1400c130 0 240.333 -54.668 331 -164.001c29.333 -56 44 -116.667 44 -182v-30c0 -183.333 -150.667 -378.666 -452 -585.999c-87.333 -62.667 -134.333 -97 -141 -103c128 29.333 214 44 258 44c79.333 0 135.333 -34 168 -102c4.66699 -18 7 -30 7 -36
c-2 -78 -44.667 -141.333 -128 -190c-68 -34 -166.333 -51 -295 -51c-299.333 0 -449 54.667 -449 164c0 100 129 211.667 387 335c150.667 86 226 158 226 216v18c0 30 -18.333 47 -55 51h-11c-34 0 -113 -35.333 -237 -106c-52 -26 -114 -39 -186 -39h-14
c-97.333 2 -146 71 -146 207v36c0 178.667 125.333 332 376 460c101.333 38.667 207 58 317 58z"></glyph>
    <glyph glyph-name="three" unicode="3" horiz-adv-x="1050" d="M483 1420l66.9971 -0.000976562c198 0 344 -72.667 438 -218c26.667 -53.333 40 -104.666 40 -153.999c0 -92 -33.333 -197 -100 -315c-4.66699 -10.667 -7 -21.334 -7 -32.001v-4c0 -24 24.667 -77.667 74 -161c20.667 -40 31 -89.667 31 -149
c0 -11.333 -0.333008 -23 -1 -35c0 -106.667 -67 -205 -201 -295c-71.333 -38 -150.666 -57 -237.999 -57h-41c-138 0 -262.667 25.667 -374 77c-96 60 -144 132.667 -144 218v3c0 90.667 37 152 111 184c35.333 11.333 67.666 17 96.999 17
c36.667 0 91.334 -16.667 164.001 -50c13.333 -4.66699 29 -7 47 -7c60 0 90 26.667 90 80c0 44.667 -15.667 67 -47 67c-5.33301 0.666992 -10.666 1 -15.999 1c-25.333 0 -52.333 -6 -81 -18c-36 -15.333 -61.667 -23 -77 -23h-7c-94 0 -149.667 43.667 -167 131v13
c0 79.333 40 134 120 164c19.333 6.66699 39.666 10 60.999 10h6c51.333 -8 94 -12.333 128 -13c64.667 0 97 19 97 57v10c0 36.667 -24.667 59 -74 67h-23c-11.333 0 -60.666 -11.333 -147.999 -34c-22 -4 -51 -7.33301 -87 -10c-101.333 2.66699 -167 56.334 -197 161.001
c-3.33301 16 -5.66602 35 -6.99902 57v14c0 122 99.333 199 298 231c55.333 8.66699 111.333 13 168 13z"></glyph>
    <glyph glyph-name="four" unicode="4" horiz-adv-x="1099" d="M708 1396c77.333 0 134.333 -54.9971 171 -164.997l9 -65c0 -51.333 -25.667 -127 -77 -227c-35.333 -98 -53 -202.667 -53 -314v-39c82 59.333 148.333 89 199 89c51.333 0 81.333 -36.333 90 -109c2 -10.667 3 -21 3 -31c0 -93.333 -29 -147.333 -87 -162
c-2.66699 -2 -10 -3 -22 -3h-6c-42 0 -101 25 -177 75c32.667 -144.667 49 -251.334 49 -320.001v-19c0 -70.667 -40.333 -106 -121 -106h-18c-104 9.33301 -156 41.666 -156 96.999c0 9.33301 22 65 66 167c8 29.333 12 55.333 12 78v16c0 49.333 -38.333 77.333 -115 84
c-16 0 -72 -12.333 -168 -37c-22 -4.66699 -52 -8 -90 -10c-126.667 0 -190 37.333 -190 112c0 121.333 77.667 304.666 233 549.999c162.667 226 312 339 448 339zM366 844.003c-2 -12 -3 -22.667 -3 -32c0 -4 0.333008 -8 1 -12c1.33301 -12 9.33301 -21.667 24 -29
c5.33301 -0.666992 10.666 -1 15.999 -1c48.667 0 86.667 53.333 114 160l4 29c0 22.667 -11.667 37 -35 43c-47.333 0 -87.666 -52.667 -120.999 -158z"></glyph>
    <glyph glyph-name="five" unicode="5" horiz-adv-x="1024" d="M434 1400l23.9971 0.000976562c138.667 0 270 -37 394 -111c51.333 -40.667 77 -94.334 77 -161.001v-54c-13.333 -101.333 -60 -152 -140 -152h-12c-85.333 0 -172.666 38.667 -261.999 116c-42.667 28 -78.667 42 -108 42h-30c-54.667 0 -89.334 -49.667 -104.001 -149
l-3 -30c0 -40.667 21.667 -64.667 65 -72h30c13.333 0 94 10.333 242 31c142.667 0 244.334 -61 305.001 -183c51.333 -80 77 -161.667 77 -245v-2c0 -112.667 -28 -194.334 -84 -245.001c-118 -123.333 -228.333 -185 -331 -185c-131.333 0 -262.666 28 -393.999 84
c-46 22.667 -79.667 67.334 -101 134.001c-14 48 -21 88.667 -21 122c0 70.667 30.667 113.667 92 129c18 3.33301 42 5 72 5h15c68.667 0 132.334 -41.667 191.001 -125c45.333 -47.333 99 -71 161 -71h6c84 0 133.667 41.667 149 125v18c0 83.333 -32.667 143 -98 179
c-23.333 8 -41.333 12 -54 12h-12c-24.667 0 -71.334 -15 -140.001 -45c-40 -8 -73 -12 -99 -12c-108 0 -188.333 31 -241 93c-21.333 8 -34.333 95.333 -39 262c-22 120 -33 197.667 -33 233c0 79.333 42.667 146 128 200c82.667 38 175.334 57 278.001 57z"></glyph>
    <glyph glyph-name="six" unicode="6" horiz-adv-x="922" d="M515 1394c108 0 205.668 -54.998 293.001 -164.998c10 -24.667 17.333 -48.334 22 -71.001c-1.33301 -97.333 -77.333 -177.666 -228 -240.999c-47.333 -16 -104 -32.333 -170 -49c-77.333 -26.667 -127.333 -88.667 -150 -186c110 62.667 207.667 94 293 94
c156 0 261 -85 315 -255c10 -51.333 15 -90 15 -116c0 -188.667 -81 -316.334 -243 -383.001c-48 -14.667 -90.667 -22 -128 -22c-124 0 -240 73.667 -348 221c-102.667 159.333 -154 326.666 -154 501.999v41c0 174.667 68.667 341 206 499
c89.333 87.333 181.666 131 276.999 131zM369.001 412.002c0 -64.667 47.667 -108.332 143 -130.999h33c68 9.33301 102 36.666 102 81.999v27c-22.667 82 -77.667 123 -165 123c-75.333 -8 -113 -38 -113 -90v-11z"></glyph>
    <glyph glyph-name="seven" unicode="7" horiz-adv-x="1100" d="M562 1432l32.001 0.000976562c156.667 0 292.667 -61.333 408 -184c42.667 -70 64 -132.667 64 -188v-20c-20.667 -178 -152.667 -431.333 -396 -760c-164.667 -186.667 -303.334 -280 -416.001 -280c-87.333 0 -155.333 48 -204 144c-5.33301 24 -8 41.333 -8 52v8
c0 173.333 221.333 432 664 776c-184 -42.667 -321.333 -64 -412 -64c-126.667 0 -210.667 33.333 -252 100c-10.667 19.333 -16 40.666 -16 63.999v20c0 134 92 231.333 276 292c88 26.667 174.667 40 260 40z"></glyph>
    <glyph glyph-name="eight" unicode="8" horiz-adv-x="928" d="M430 1395c84 0 186.669 -44.6699 308.002 -134.003c95.333 -101.333 143 -208 143 -320v-26c0 -108.667 -50.667 -200.667 -152 -276c-52.667 -26 -80.334 -41.667 -83.001 -47c94 -32 159.667 -84.667 197 -158c29.333 -70 45 -122.667 47 -158
c0 -93.333 -82 -175.333 -246 -246c-40 -14.667 -95.667 -24.667 -167 -30c-132.667 0 -237.334 53.667 -314.001 161c-27.333 52.667 -41 112.334 -41 179.001v29c0 62.667 45 129.334 135 200.001c2 3.33301 3 6 3 8c-48 27.333 -103 74.333 -165 141
c-42.667 92.667 -64 189.334 -64 290.001c0 123.333 57.667 228 173 314c76 48.667 151.333 73 226 73zM383.002 834.997c0 -46.667 20.333 -78.667 61 -96h21c33.333 0 63.666 45 90.999 135v15c0 63.333 -23.333 100.333 -70 111h-6c-45.333 0 -77.666 -40 -96.999 -120
v-45zM462.002 319.997c8 -43.333 22.667 -65 44 -65c27.333 0 50 34 68 102v36c-5.33301 35.333 -19 53 -41 53h-13c-28 0 -47.333 -35.333 -58 -106v-20z"></glyph>
    <glyph glyph-name="nine" unicode="9" d="M427 1386c180 0 313.668 -123.666 401.001 -370.999c27.333 -92.667 41 -181.334 41 -266.001v-7c0 -284 -106 -511.333 -318 -682c-68.667 -40 -130 -60 -184 -60c-104 0 -200 65 -288 195c-20 32.667 -30 67.667 -30 105c0 79.333 62.333 141.666 187 186.999
c34 10 65.333 15 94 15h79c77.333 0 144.666 52.333 201.999 157c-84 -27.333 -156.333 -41 -217 -41c-166.667 0 -276.667 77.333 -330 232c-10 36 -15 71 -15 105v8c0 140.667 55 260.334 165 359.001c68 42.667 139 64 213 64zM315.001 1034l-0.000976562 -38
c0 -40 27.333 -77.333 82 -112c22 -12.667 44.667 -19 68 -19h34c54.667 12.667 82 39 82 79v30c-10 70 -50.333 113 -121 129l-63 2c-41.333 0 -68.666 -23.667 -81.999 -71z"></glyph>
    <glyph glyph-name="colon" unicode=":" horiz-adv-x="500" d="M176 38c-56 44.667 -84.002 99.333 -84.002 164v10c0 32 9 61 27 87c28 32.667 65.667 49 113 49h9c20.667 0 45.334 -5.33301 74.001 -16c60.667 -27.333 91 -81 91 -161c0 -36 -5.66699 -68 -17 -96c-24 -50 -60.667 -75 -110 -75
c-31.333 0 -65.666 12.667 -102.999 38zM175.998 832.999c-56 44.667 -84 99.333 -84 164v10c0 32 9 61 27 87c28 32.667 65.667 49 113 49h9c20.667 0 45 -5.33301 73 -16c61.333 -27.333 92 -81 92 -161c0 -36 -5.66699 -68 -17 -96c-24 -50 -61 -75 -111 -75
c-30.667 0 -64.667 12.667 -102 38z"></glyph>
    <glyph glyph-name="semicolon" unicode=";" horiz-adv-x="500" d="M176 833c-56 44.667 -84 99.333 -84 164v10c0 32 9 61 27 87c28 32.667 65.667 49 113 49h9c20.667 0 45 -5.33301 73 -16c61.333 -27.333 92 -81 92 -161c0 -36 -5.66699 -68 -17 -96c-24 -50 -61 -75 -111 -75c-30.667 0 -64.667 12.667 -102 38zM207 196.999h8
c156 -24.667 234 -97.334 234 -218.001v-19c0 -78 -41.667 -173.667 -125 -287c-40 -38.667 -84 -58 -132 -58c-78 1.33301 -117 24.333 -117 69v6c0 14 22 72.667 66 176c2 6.66699 3 14.334 3 23.001v7l-23 216c0 56.667 28.667 85 86 85z"></glyph>
    <glyph glyph-name="semicolon" unicode="&#x37e;" horiz-adv-x="500" d="M176 833c-56 44.667 -84 99.333 -84 164v10c0 32 9 61 27 87c28 32.667 65.667 49 113 49h9c20.667 0 45 -5.33301 73 -16c61.333 -27.333 92 -81 92 -161c0 -36 -5.66699 -68 -17 -96c-24 -50 -61 -75 -111 -75c-30.667 0 -64.667 12.667 -102 38zM207 196.999h8
c156 -24.667 234 -97.334 234 -218.001v-19c0 -78 -41.667 -173.667 -125 -287c-40 -38.667 -84 -58 -132 -58c-78 1.33301 -117 24.333 -117 69v6c0 14 22 72.667 66 176c2 6.66699 3 14.334 3 23.001v7l-23 216c0 56.667 28.667 85 86 85z"></glyph>
    <glyph glyph-name="less" unicode="&#x3c;" horiz-adv-x="1014" d="M881 1064c71.333 -52 107 -105.669 107 -161.002c0 -97.333 -108.333 -189 -325 -275l-90 -30l24 -10c241.333 -93.333 362 -192.666 362 -297.999c0 -5.33301 -2.33301 -18.666 -7 -39.999c-32 -88.667 -86.333 -133 -163 -133h-5
c-84.667 0 -206.334 56.667 -365.001 170c-89.333 65.333 -203.666 169.333 -342.999 312l9 10c310 316 544.667 474 704 474h7c26 0 54.333 -6.33301 85 -19z"></glyph>
    <glyph glyph-name="equal" unicode="=" horiz-adv-x="1150" d="M1106 818c0 -54 -75.001 -99.668 -225.001 -137.001c-87.333 -21.333 -175.333 -32 -264 -32h-51c-153.333 0 -303.666 35 -450.999 105c-43.333 32 -65 61.333 -65 88c0 43.333 47.333 84.333 142 123c114 42.667 235.667 64 365 64h65c176.667 0 323.667 -42 441 -126
c28.667 -29.333 43 -57.666 43 -84.999zM1106 301.999c0 -54 -74.999 -99.668 -224.999 -137.001c-86.667 -21.333 -174.334 -32 -263.001 -32h-52c-153.333 0 -303.333 35 -450 105c-44 32 -66 61.333 -66 88c0 43.333 47.333 84.333 142 123
c114.667 42.667 236.334 64 365.001 64h65c177.333 0 324.666 -42 441.999 -126c28 -29.333 42 -57.666 42 -84.999z"></glyph>
    <glyph glyph-name="greater" unicode="&#x3e;" horiz-adv-x="1014" d="M268 1083l6.99902 0.00195312c158.667 0 393 -158 703 -474l10 -10c-140 -142.667 -254.667 -246.667 -344 -312c-158.667 -113.333 -280 -170 -364 -170h-5c-77.333 0 -131.666 44.333 -162.999 133c-5.33301 21.333 -8 34.666 -8 39.999
c0 105.333 121 204.666 363 297.999l23 10l-90 30c-216 86 -324 177.667 -324 275c0 55.333 35.667 109 107 161c30.667 12.667 59 19 85 19z"></glyph>
    <glyph glyph-name="question" unicode="?" horiz-adv-x="901" d="M501 1360l10 -0.00195312c184 0 304.667 -84.667 362 -254c8.66699 -31.333 13 -62 13 -92c0 -108.667 -58.667 -200 -176 -274c-115.333 -85.333 -173 -164.666 -173 -237.999c0 -82.667 -22.667 -134.667 -68 -156c-22.667 -17.333 -46.667 -26 -72 -26
c-100 10.667 -150 56.334 -150 137.001v13c0 92.667 80.333 195.667 241 309c50 42.667 75 79.667 75 111c0 23.333 -15 36.333 -45 39c-46 0 -120 -34.667 -222 -104c-56 -28 -101.667 -42 -137 -42h-13c-77.333 0 -122 51 -134 153c0 81.333 33.667 164 101 248
c116 117.333 245.333 176 388 176zM403 286.998l17 -0.000976562c60 0 99 -26 117 -78c0 -4 2.33301 -17 7 -39c0 -79.333 -42.667 -133.666 -128 -162.999l-49 -7c-68.667 0 -114 25 -136 75c0 2.66699 -2.33301 14.667 -7 36c0 53.333 36 105.333 108 156
c25.333 13.333 49 20 71 20z"></glyph>
    <glyph glyph-name="at" unicode="@" horiz-adv-x="1601" d="M798 1357c194 0 378.662 -51.999 553.995 -155.999c82 -52.667 140.667 -136.667 176 -252c36.667 -123.333 55 -245.666 55 -366.999v-58c0 -188.667 -31 -314.334 -93 -377.001c-81.333 -108.667 -187.333 -163 -318 -163c-100 0 -183 49.667 -249 149
c-14 26.667 -21 44 -21 52h-7c-59.333 -88 -140 -132 -242 -132c-69.333 0 -118.666 41.667 -147.999 125c-4.66699 14.667 -8.33398 29.667 -11.001 45c0 120 77.333 214.333 232 283c122 54.667 183 95 183 121c4.66699 8.66699 7 18 7 28v7
c0 21.333 -9.33301 37.333 -28 48h-31c-24.667 0 -84.667 -38 -180 -114c-32 -16.667 -72.333 -29.334 -121 -38.001c-67.333 0 -116.666 44 -147.999 132c-2.66699 12.667 -4 21.667 -4 27c0 95.333 74 185.333 222 270c64 28 128.333 42 193 42h38
c122.667 0 203.334 -62.333 242.001 -187c9.33301 -34 14 -64 14 -90c0 -47.333 -28.667 -153.333 -86 -318v-21c0 -29.333 38 -67.333 114 -114c41.333 -20.667 84 -31 128 -31c75.333 0 121.333 75 138 225c4.66699 40 7 75.667 7 107c0 190 -55.333 338.667 -166 446
c-124 85.333 -256.667 128 -398 128h-41c-159.333 0 -305.666 -68 -438.999 -204c-94.667 -138.667 -142 -302.334 -142 -491.001v-56c0 -116 57.667 -247.333 173 -394c135.333 -112.667 265.666 -169 390.999 -169c0 -4.66699 34.333 -7 103 -7h49
c96.667 0 258 32.333 484 97c12.667 2 25.334 3 38.001 3c64.667 0 97 -42.667 97 -128c0 -95.333 -38 -159.666 -114 -192.999c-68 -12 -138.333 -18 -211 -18c-441.333 0 -722.666 48.667 -843.999 146c-158.667 100.667 -259 213.334 -301 338.001
c-50.667 178.667 -76 318.334 -76 419.001c0 127.333 33.333 274.666 100 441.999c76 141.333 191.333 248.666 346 321.999c130.667 50.667 242.334 76 335.001 76zM704.995 340.001v-9.99902c0 -14 7 -21 21 -21h38c42 0 81 31.333 117 94c2.66699 4 4 8.33301 4 13v32
c0 3.33301 -3.33301 6.66602 -10 9.99902h-35c-29.333 0 -71 -28.667 -125 -86c-6.66699 -9.33301 -10 -20 -10 -32z"></glyph>
    <glyph glyph-name="A" unicode="A" horiz-adv-x="999" d="M545 1410c70.667 0 136.334 -83 197.001 -249c14.667 -62 34 -174.333 58 -337c38.667 -175.333 78 -291 118 -347c67.333 -84.667 101 -158 101 -220v-6c0 -108.667 -48 -185.334 -144 -230.001c-24.667 -10 -51 -15.333 -79 -16c-131.333 0 -221 69 -269 207
c-14 44.667 -24.333 91 -31 139c-88 -233.333 -174.333 -352 -259 -356c-82.667 0 -153.334 63.667 -212.001 191c-12 28.667 -20.333 65.334 -25 110.001c-0 98.667 44.333 187.334 133 266.001c66.667 69.333 120.667 223.666 162 462.999c74 256.667 157.333 385 250 385
zM452 646c-0.666992 -5.33301 -1 -10.333 -1 -15c0 -33.333 18.333 -53.666 55 -60.999c4 -0.666992 7.66699 -1 11 -1c35.333 0 62 36.333 80 109c0.666992 8 1 15.667 1 23c0 44.667 -17.667 70 -53 76c-4.66699 0.666992 -8.66699 1 -12 1
c-35.333 0 -61.333 -32.333 -78 -97c-2 -18.667 -3 -30.334 -3 -35.001z"></glyph>
    <glyph glyph-name="B" unicode="B" horiz-adv-x="1080" d="M562 1399c114.667 0 234 -41.333 358 -124c91.333 -76.667 137 -163.667 137 -261c0 -137.333 -91.333 -256.666 -274 -357.999c151.333 -78 227 -179.333 227 -304c0 -156 -88 -262 -264 -318c-100 -24.667 -180.333 -37 -241 -37c-176.667 0 -299.334 47 -368.001 141
c-28.667 49.333 -43 99.333 -43 150c20 157.333 30 247.666 30 270.999v27c0 48.667 -28 150 -84 304c-13.333 45.333 -20 83.333 -20 114v24c0 134.667 97 242.667 291 324c94.667 31.333 178.334 47 251.001 47zM539 780v-10c0 -30.667 19 -48.667 57 -54h3
c82.667 5.33301 135 53.333 157 144c0.666992 4 1 8 1 12c0 41.333 -27 62 -81 62c-40 0 -80.333 -31.333 -121 -94c-10.667 -19.333 -16 -39.333 -16 -60zM559 275l0.000976562 -10c0 -30.667 19 -48.667 57 -54h3c81.333 1.33301 133.666 49.333 156.999 144
c0.666992 4 1 8 1 12c0 41.333 -27 62 -81 62c-40 0 -80.333 -31.333 -121 -94c-10.667 -19.333 -16 -39.333 -16 -60z"></glyph>
    <glyph glyph-name="C" unicode="C" horiz-adv-x="966" d="M611 1409c139.333 0 235.667 -77.334 289 -232.001c19.333 -71.333 29 -137.666 29 -198.999c-6 -170.667 -52 -280 -138 -328c-26.667 -10 -53.667 -16.333 -81 -19c-34 0 -73 11.167 -117 33.5s-74.667 33.5 -92 33.5c-50 0 -79 -44 -87 -132v-29
c0 -82.667 27 -132 81 -148c8 -2 16.667 -3 26 -3c35.333 2 69.833 18.667 103.5 50s61.167 52.666 82.5 63.999s53.666 17.333 96.999 18c58.667 0 101.334 -35.333 128.001 -106c4.66699 -20.667 7 -35.667 7 -45c0 -135.333 -106.333 -246 -319 -332
c-66.667 -23.333 -127.667 -35 -183 -35c-161.333 0 -280.333 90 -357 270c-28 92.667 -42 187 -42 283v65c0 298.667 106 533.334 318 704.001c84.667 58 169.667 87 255 87z"></glyph>
    <glyph glyph-name="D" unicode="D" horiz-adv-x="1050" d="M369 1402l11 0.000976562c169.333 0 308 -45 416 -135c111.333 -102.667 188 -238.334 230 -407.001c8.66699 -47.333 13 -93.666 13 -138.999v-20c0 -244.667 -138.667 -457 -416 -637c-98 -42.667 -188.333 -64 -271 -64c-144.667 0 -241.667 35 -291 105
c-18 42.667 -27 86.667 -27 132v20l17 349v31c0 46 -13.667 192.667 -41 440c0 185.333 119.667 293.666 359 324.999zM319 981.001c-2 -9.33301 -3.00195 -17.999 -3.00195 -25.999c0 -32 17.667 -50 53 -54h7c58.667 1.33301 105 48.666 139 141.999
c3.33301 10 5 22.333 5 37v8c-1.33301 27.333 -15.666 44 -42.999 50h-20c-48 0 -87.667 -33 -119 -99c-9.33301 -20.667 -15.666 -40 -18.999 -58z"></glyph>
    <glyph glyph-name="E" unicode="E" d="M424 1408l53.998 0.000976562c156.667 0 268.334 -47 335.001 -141c13.333 -21.333 20 -47.333 20 -78v-9c-9.33301 -98 -56.333 -147 -141 -147c-14.667 0 -54.667 16.667 -120 50c-18 4.66699 -37 7 -57 7c-60.667 -6.66699 -91 -32.667 -91 -78v-36
c4 -22.667 15.333 -34 34 -34h26c12 0 52.333 6.66699 121 20c50.667 0 85.334 -26.667 104.001 -80c4.66699 -28 7 -47 7 -57c0 -63.333 -22.333 -106 -67 -128c-9.33301 -3.33301 -20 -5 -32 -5c-8 0 -16.667 0.666992 -26 2l-100 20h-27c-29.333 0 -50.333 -29 -63 -87
v-6c0 -36.667 17.667 -58.334 53 -65.001h27l105 20l121 19c4 0.666992 8.33301 1 13 1c61.333 0 109 -42.333 143 -127c16 -52 24 -96.667 24 -134c0 -150.667 -87.333 -254.667 -262 -312c-56.667 -15.333 -108 -23 -154 -23h-67c-111.333 0 -213 37 -305 111
c-62.667 60.667 -94 124.334 -94 191.001v27c0 59.333 24.667 187.666 74 384.999c2 21.333 3 41.333 3 60v44l-30 282v3c0 136 82.667 233.333 248 292c46 8.66699 87.333 13 124 13z"></glyph>
    <glyph glyph-name="F" unicode="F" horiz-adv-x="954" d="M572 1415c194 0 333.67 -98.001 419.003 -294.001c11.333 -35.333 19.666 -74.333 24.999 -117c0 -102 -54.667 -179 -164 -231c-22.667 -8.66699 -43.667 -13 -63 -13h-4c-52.667 0 -123.667 45 -213 135c-44 28 -76.667 42 -98 42h-21
c-54.667 0 -95.334 -39.333 -122.001 -118v-22c12.667 -72 43.667 -108 93 -108h13c13.333 0 65 22.333 155 67c10.667 2.66699 20.667 4 30 4c75.333 0 120 -47.333 134 -142c-14.667 -110 -64 -165 -148 -165c-25.333 0 -75.666 25.333 -150.999 76h-25
c-11.333 0 -21 -13.667 -29 -41c0 -20.667 28.333 -103.667 85 -249c0 -18 1.33301 -32 4 -42c0 -90 -51 -153 -153 -189c-12 -5.33301 -25.333 -8 -40 -8c-68.667 0 -140.334 43.333 -215.001 130c-36.667 60 -55 128.333 -55 205l30 273c0 20.667 -18.333 121.667 -55 303
c-2.66699 8.66699 -4 25.334 -4 50.001c0 144 102.333 273 307 387c97.333 44.667 185.666 67 264.999 67z"></glyph>
    <glyph glyph-name="G" unicode="G" horiz-adv-x="1251" d="M738 1407c146 0 270.331 -79.998 372.998 -239.998c48 -90.667 72 -179.667 72 -267v-10c0 -144 -67.333 -244.333 -202 -301c-20 -6.66699 -40.333 -11.334 -61 -14.001c-66.667 0 -150 45.667 -250 137c-29.333 20.667 -53.333 31 -72 31h-14
c-46.667 0 -79.667 -35.333 -99 -106c-1.33301 -3.33301 -3.66602 -25 -6.99902 -65c8.66699 -184.667 63.334 -295.334 164.001 -332.001c16.667 -2.66699 30.667 -4 42 -4c44 0 88.333 30.667 133 92c-10.667 4.66699 -20.667 7 -30 7c-6 0 -11.667 -0.666992 -17 -2
c-14.667 -4.66699 -31 -16 -49 -34c-17.333 -16.667 -33.333 -25 -48 -25h-3c-46.667 4 -71.667 39.333 -75 106c0 47.333 45.333 93 136 137c52.667 16 110 24 172 24c152 0 255.333 -51.667 310 -155c10 -19.333 15 -38 15 -56v-7
c-1.33301 -62.667 -35.666 -95 -102.999 -97c-22 0 -57.333 9 -106 27c-36 -98 -89.667 -165.333 -161 -202c-72.667 -34 -160.334 -51 -263.001 -51c-111.333 0 -230 40 -356 120c-71.333 62 -118.333 115.667 -141 161c-54.667 108 -82 214 -82 318v51
c0 294.667 118.667 515 356 661c114.667 64 234 96 358 96h8z"></glyph>
    <glyph glyph-name="H" unicode="H" horiz-adv-x="1000" d="M730 1490c132.667 0 217.333 -57.667 254 -173c4.66699 -22 7 -39.667 7 -53c0 -50.667 -48.333 -165.667 -145 -345c-12 -26 -18 -59 -18 -99v-35c0 -85.333 43.667 -211 131 -377c30.667 -82.667 46 -144 46 -184v-14c0 -82 -33 -138.333 -99 -169
c-19.333 -7.33301 -37 -11 -53 -11h-13c-146 0 -220.333 101 -223 303c4 70.667 6 136.667 6 198c0 42.667 -1 82.667 -3 120c-5.33301 64 -31 98 -77 102h-4c-13.333 0 -21.333 -18.667 -24 -56v-7c0 -15.333 16.333 -127 49 -335c2.66699 -40 4 -70.667 4 -92v-7
c-2.66699 -125.333 -30 -213.666 -82 -264.999c-42 -42 -90 -63 -144 -63c-158.667 0 -267.334 96 -326.001 288c-7.33301 25.333 -11.666 55 -12.999 89v39c0 120.667 48.333 230 145 328c52.667 66 79.667 134 81 204v29c-10 50.667 -49 135 -117 253
c-10.667 20.667 -17.667 46.667 -21 78v7c0 103.333 64.667 161 194 173c96 0 158.333 -46 187 -138c7.33301 -18.667 11 -38 11 -58v-16l-27 -183l-1 -14c5.33301 -60.667 26.333 -92.334 63 -95.001h11c23.333 10 35 27.333 35 52v11c-28.667 109.333 -43.667 175 -45 197
c-1.33301 12 -2 24.333 -2 37c0 10 0.333008 20.333 1 31c0 93.333 37.667 167.333 113 222c29.333 18.667 62.333 28 99 28z"></glyph>
    <glyph glyph-name="I" unicode="I" horiz-adv-x="441" d="M270 1394c84.667 0 135.332 -86 151.999 -258v-65c0 -50.667 -18.667 -211.667 -56 -483l-6 -108c0 -12 7 -113.333 21 -304c0 -83.333 -35 -139 -105 -167c-15.333 -6 -33.666 -9 -54.999 -9c-56.667 -0 -105 34.333 -145 103c-8 18 -12 42 -12 72v7
c20.667 157.333 31 251.333 31 282c0 44 -21.667 168.333 -65 373c-6 56.667 -9 108.667 -9 156c0 212 68.667 342.667 206 392c14.667 5.33301 29 8.33301 43 9z"></glyph>
    <glyph glyph-name="J" unicode="J" horiz-adv-x="999" d="M322 1411l12.999 -0.000976562c81.333 0 157 -25.667 227 -77c59.333 -36 123.333 -54 192 -54c72 0 195.667 37.333 371 112c30 4.66699 45 7.66699 45 9c53.333 -10.667 80 -46.667 80 -108c2 0 3 -2.33301 3 -7c0 -97.333 -122.667 -202.333 -368 -315
c36 -128.667 54 -243.334 54 -344.001c0 -316 -144 -519.667 -432 -611c-46 -10.667 -82 -16 -108 -16h-16c-176.667 2.66699 -293 108.334 -349 317.001c-8.66699 52 -13 83 -13 93c0 120.667 47 219.667 141 297c34.667 21.333 69.667 32 105 32
c40.667 0 114.334 -42.667 221.001 -128c28.667 -16.667 51 -25 67 -25h16c69.333 11.333 119.666 80.333 150.999 207c2 18.667 3 33.667 3 45c0 40.667 -1 66.334 -3 77.001c-118.667 -32 -251 -48 -397 -48c-131.333 0 -217.666 50 -258.999 150
c-8.66699 26.667 -14 54.667 -16 84c0 94 38.333 179.333 115 256c44.667 36 97 54 157 54z"></glyph>
    <glyph glyph-name="K" unicode="K" horiz-adv-x="1199" d="M1049 1685h9.99805c90.667 0 154.667 -58 192 -174c11.333 -44 17 -81 17 -111c0 -184 -122.667 -372.667 -368 -566c-62 -52 -152.667 -117 -272 -195c353.333 -74.667 530 -194 530 -358v-20c0 -106 -57.333 -185 -172 -237c-46.667 -16 -88.667 -24 -126 -24
c-162 0 -283.667 153 -365 459c-1.33301 -180 -44 -309.333 -128 -388c-22.667 -19.333 -50 -29 -82 -29h-11c-80 0 -137 56.667 -171 170c-52 259.333 -79.667 484 -83 674c0 127.333 43 260.333 129 399c66.667 84 135 126 205 126c100 0 158.667 -109 176 -327
c2 -18 3 -45.667 3 -83l-1 -152c78.667 324 156.334 547 233.001 669c76.667 106 171.334 161.667 284.001 167z"></glyph>
    <glyph glyph-name="L" unicode="L" horiz-adv-x="1050" d="M361 1418c112 0 187.332 -47.001 225.999 -141.001c6 -25.333 9 -46.666 9 -63.999v-4c0 -118.667 -72.333 -393.334 -217 -824.001c136 68.667 279.333 103 430 103c116 0 186 -53 210 -159c2.66699 -16 4 -32.667 4 -50c0 -106.667 -42 -185.667 -126 -237
c-45.333 -21.333 -99.333 -32 -162 -32c-24.667 0 -50.667 1.66699 -78 5c-48 5.33301 -98.667 8 -152 8c-54 0 -111 -3 -171 -9c-33.333 -3.33301 -63.666 -5 -90.999 -5c-70 0 -121.667 11 -155 33c-31.333 28 -47 63.333 -47 106v4c0 30.667 25 97.667 75 201l3 21v25
c0 48.667 -16.333 160.667 -49 336c-30 158.667 -45 270.667 -45 336v18c0 150.667 78.333 254.334 235 311.001c23.333 7.33301 57 13.333 101 18z"></glyph>
    <glyph glyph-name="M" unicode="M" horiz-adv-x="1648" d="M1150 1395c74 0 118.999 -63.334 134.999 -190.001c48.667 -272 81.667 -435.667 99 -491c8 -37.333 61.667 -105.666 161 -204.999c68.667 -66 103 -132 103 -198c0 -92.667 -55 -174.334 -165 -245.001c-49.333 -25.333 -96.666 -38 -141.999 -38l-19 1
c-129.333 0 -239.333 147 -330 441l-62 -170c-32 -73.333 -74.667 -110 -128 -110c-72 0 -140.333 97.333 -205 292l-77 -211c-28.667 -77.333 -76.334 -147 -143.001 -209c-44.667 -41.333 -97 -62 -157 -62h-11c-77.333 0 -138.333 48.667 -183 146
c-17.333 56 -26 100 -26 132v22c0 73.333 52.333 149 157 227c50.667 40.667 114.334 209.334 191.001 506.001c31.333 100 70.333 185.333 117 256c56.667 63.333 105.334 95 146.001 95c104.667 0 178 -146.333 220 -439c7.33301 -29.333 14.666 -45.333 21.999 -48
c12.667 12 39.667 98.667 81 260c48 158.667 120 238 216 238z"></glyph>
    <glyph glyph-name="N" unicode="N" horiz-adv-x="1083" d="M839 1501h27.998c98.667 -1.33301 170.334 -61.666 215.001 -180.999c5.33301 -25.333 9.33301 -54.333 12 -87v-2c0 -114 -49.333 -224.667 -148 -332c-40 -58 -60 -126 -60 -204c0 -10 0.333008 -20.333 1 -31c0 -58 23.667 -145.333 71 -262
c26.667 -64.667 40 -127 40 -187v-24c0 -99.333 -34.333 -160.333 -103 -183c-18.667 -5.33301 -34.667 -8 -48 -8h-12c-120 0 -261.667 148.333 -425 445c10.667 -74.667 16 -123.667 16 -147v-4c0 -169.333 -45.333 -254 -136 -254h-4
c-111.333 0 -182.666 90 -213.999 270v20c0 48 21 136.667 63 266l4 24c0 23.333 -30.333 129.333 -91 318c-24 95.333 -36 168.333 -36 219c0 106.667 37 177 111 211c14 5.33301 28.667 8 44 8c122.667 -5.33301 210 -95.666 262 -270.999l86 -276
c16 -48.667 30 -83.334 42 -104.001c-37.333 162 -56 290 -56 384v4c0 141.333 61 256.666 183 345.999c39.333 28 91 42 155 42z"></glyph>
    <glyph glyph-name="O" unicode="O" horiz-adv-x="951" d="M466 1398c193.333 0 329.334 -127.999 408.001 -383.999c34 -115.333 51 -239 51 -371v-26c0 -301.333 -102.333 -495 -307 -581c-74 -24 -134 -36 -180 -36c-152.667 0 -272.334 119.333 -359.001 358c-32.667 104.667 -49 191.667 -49 261
c0 261.333 60.333 476.666 181 645.999c86.667 88.667 171.667 133 255 133zM400.001 1033c4.66699 -32 19.001 -48 43.001 -48c35.333 0 63.666 31.333 84.999 94c2 14 3 26 3 36v2c0 52 -15.667 82 -47 90h-6c-36 0 -62 -46.667 -78 -140v-34z"></glyph>
    <glyph glyph-name="P" unicode="P" horiz-adv-x="875" d="M424 1420l30 -0.000976562c164 0 287.333 -85.333 370 -256c20 -75.333 30 -137.333 30 -186c0 -184.667 -66 -331 -198 -439c-53.333 -36 -130.666 -60.667 -231.999 -74c37.333 -91.333 56 -164.666 56 -219.999v-11c0 -121.333 -54.333 -199.333 -163 -234h-38
c-127.333 0 -202.333 104 -225 312v156c0 46 3.33301 104.333 10 175c-23.333 148 -35 251 -35 309c9.33301 239.333 93.666 385.333 252.999 438c54.667 20 102 30 142 30zM391 718.999l-0.999023 -28c2 -29.333 17.667 -44 47 -44c34 0 67 28.333 99 85
c12 20 18.333 38.667 19 56v25c-0.666992 30.667 -15.667 46 -45 46c-62.667 -6 -102.334 -52.667 -119.001 -140z"></glyph>
    <glyph glyph-name="Q" unicode="Q" horiz-adv-x="1222" d="M594 1409c184 0 335.668 -110.667 455.001 -332c52 -120 78 -238 78 -354c0 -122 -27.333 -247.333 -82 -376c102 -46 153 -92 153 -138c-0.666992 -82 -45.334 -130.667 -134.001 -146h-19c-42 0 -77 41.333 -105 124c-117.333 -124.667 -241.333 -187 -372 -187h-4
c-209.333 0 -371 133 -485 399c-32 97.333 -48 195.333 -48 294c0 242.667 88.333 444 265 604c96 74.667 195.333 112 298 112zM635.001 403l-0.000976562 -8.00098c6.66699 -82 36.334 -123 89.001 -123h4c26.667 0 58 13.333 94 40c-63.333 28.667 -95 59.334 -95 92.001
c0 3.33301 0.333008 6.66602 1 9.99902c22.667 69.333 51.334 104 86.001 104c20.667 0 53.667 -23.333 99 -70l9 81c0 66.667 -26 109 -78 127h-26c-68.667 0 -127.334 -62 -176.001 -186c-4.66699 -25.333 -7 -47.666 -7 -66.999z"></glyph>
    <glyph glyph-name="R" unicode="R" d="M362 1426l2.99805 -0.00292969c202.667 0 342.334 -102.333 419.001 -307c17.333 -60 26 -119 26 -177v-9c0 -214.667 -78.333 -352 -235 -412c-19.333 -6 -51.333 -12.667 -96 -20c32 -31.333 92.667 -55.666 182 -72.999c62 -12 116 -40 162 -84
c40.667 -47.333 62 -100 64 -158c0 -110 -66.667 -172 -200 -186h-32c-107.333 0 -214.666 112 -321.999 336c-15.333 -222 -65.666 -333 -150.999 -333c-56 0 -84 46.667 -84 140c0 16.667 7.33301 109.667 22 279c0 84.667 -19.667 187.334 -59 308.001
c-38 114 -57 214.333 -57 301v14c0 174.667 72 294.334 216 359.001c51.333 14.667 98.666 22 141.999 22zM374.998 750.997c-6 -20 -9 -37.333 -9 -52c0 -31.333 14.333 -48.333 43 -51h2c46 0 76.333 31 91 93c4 18 6 33.333 6 46c0 34 -13.333 53.667 -40 59h-8
c-38.667 0 -67 -31.667 -85 -95z"></glyph>
    <glyph glyph-name="S" unicode="S" horiz-adv-x="868" d="M483 1416l35.002 0.00195312c151.333 0 255 -80 311 -240c8.66699 -34.667 13 -66.667 13 -96c0 -124.667 -38.667 -208 -116 -250c-12.667 -6 -27.334 -9.33301 -44.001 -10c-36 0 -78.667 19 -128 57c-14 8.66699 -28.333 13 -43 13
c-8.66699 0 -17.334 -1.33301 -26.001 -4c-24.667 -8.66699 -37 -27.334 -37 -56.001v-8c0 -66.667 65.667 -124 197 -172c63.333 -32 111.666 -75.667 144.999 -131c32.667 -66 49 -124.667 49 -176c0 -124.667 -66.333 -228.334 -199 -311.001
c-52 -21.333 -98 -32 -138 -32h-9c-112.667 0 -221.667 49 -327 147c-53.333 57.333 -80 124.666 -80 201.999v3c8.66699 94 42.667 141 102 141c30 0 81 -25.667 153 -77c16.667 -11.333 32 -17 46 -17c3.33301 0 6.33301 0.333008 9 1c16.667 2.66699 27.334 19 32.001 49
v12c0 48.667 -55.667 86.334 -167 113.001c-162.667 58.667 -245.667 176 -249 352c0 144.667 55.667 272.667 167 384c90.667 70.667 192 106 304 106z"></glyph>
    <glyph glyph-name="T" unicode="T" horiz-adv-x="1001" d="M450 1427l38.998 -0.00195312c250 0 417 -122 501 -366c10.667 -41.333 16 -78 16 -110c-6.66699 -83.333 -47.334 -125 -122.001 -125c-36 0 -101.333 23.667 -196 71c-34 14 -59.667 22 -77 24c62 -282.667 93 -469.667 93 -561v-16
c-6.66699 -179.333 -60.334 -290.666 -161.001 -333.999c-27.333 -6.66699 -47.666 -10 -60.999 -10c-73.333 0 -125.666 43 -156.999 129c-19.333 56.667 -29 145.334 -29 266.001v4c0 128.667 27.667 301 83 517c-31.333 0 -96.666 -14 -195.999 -42
c-73.333 0 -129 59 -167 177c-10.667 38.667 -16 73 -16 103c0 151.333 109.333 240.333 328 267c42.667 4 83.334 6 122.001 6z"></glyph>
    <glyph glyph-name="U" unicode="U" horiz-adv-x="1274" d="M996 1403c93.333 0 168.667 -49.667 226 -149c12 -26 20.333 -61.333 25 -106c0 -54.667 -39.333 -172.667 -118 -354c-25.333 -82 -38 -157.333 -38 -226c0 -62.667 27.667 -129.334 83 -200.001c19.333 -52.667 29 -92 29 -118v-12c-10 -86.667 -53.333 -130 -130 -130
h-17c-131.333 0 -197 86.667 -197 260c-4.66699 -3.33301 -20.667 -39.333 -48 -108c-90 -173.333 -214.333 -260 -373 -260c-179.333 0 -315 131.333 -407 394c-12.667 57.333 -19 111.333 -19 162v34c0 156 36 340.333 108 553c71.333 165.333 171 248 299 248h9
c102 0 171 -52 207 -156l5 -29c0 -72 -33.667 -185.333 -101 -340c-72 -107.333 -108 -202.666 -108 -285.999c8 -69.333 41.667 -104 101 -104h38c95.333 0 160.333 67.667 195 203v55c0 8.66699 -18.333 71 -55 187c-12.667 53.333 -19 98.666 -19 135.999
c0 114.667 54.333 215.334 163 302.001c44 29.333 91.333 44 142 44z"></glyph>
    <glyph glyph-name="V" unicode="V" horiz-adv-x="1000" d="M862 1446c58.667 0 97 -54.001 115 -162.001c2 -14 3 -29.667 3 -47v-47c0 -133.333 -56.333 -304.333 -169 -513c-85.333 -186.667 -132.333 -305.667 -141 -357c-33.333 -146.667 -68.333 -241 -105 -283c-25.333 -24.667 -54.333 -37 -87 -37
c-67.333 0 -108 55 -122 165c0 64 -34.667 169.667 -104 317c-32.667 52.667 -92.334 139.334 -179.001 260.001c-38 72 -57 161.667 -57 269c0 168 59.667 285 179 351c23.333 6.66699 41.333 10 54 10h3c84 0 138 -88.667 162 -266l44 -284
c112.667 314 213.667 508.667 303 584c28.667 26 62.334 39.333 101.001 40z"></glyph>
    <glyph glyph-name="W" unicode="W" horiz-adv-x="1340" d="M1170 1449c76 0 138 -54.667 186 -164c9.33301 -29.333 14 -56.333 14 -81v-13c-5.33301 -122 -52.666 -213.667 -141.999 -275c-36 -4 -81.333 -157.667 -136 -461c-59.333 -232.667 -114.333 -371.334 -165 -416.001c-23.333 -19.333 -47 -29 -71 -29
c-84 0 -140.333 123 -169 369c-10 98.667 -20.333 148 -31 148c-8.66699 -24 -29 -114.667 -61 -272c-30.667 -114 -64.334 -190.333 -101.001 -229c-24.667 -17.333 -56.334 -26 -95.001 -26c-48 0 -76 32.667 -84 98l-55 481c-21.333 119.333 -59.666 212 -114.999 278
c-96.667 102.667 -145 186.667 -145 252v13c0 116.667 53 210.334 159 281.001c21.333 13.333 47 20 77 20h4c98.667 0 181 -81.667 247 -245c16 -54 31.667 -128.333 47 -223c51.333 178 90 274.333 116 289c11.333 8.66699 25.333 13 42 13c4 0 7.66699 -0.333008 11 -1
c54 0 106 -101 156 -303l74 228c63.333 178.667 142.333 268 237 268z"></glyph>
    <glyph glyph-name="X" unicode="X" horiz-adv-x="1331" d="M283 1426c103.333 0 185.331 -93.001 245.998 -279.001c55.333 -156 93 -252.333 113 -289c3.33301 -5.33301 6.66602 -8 9.99902 -8c2 0 4 1.33301 6 4c10 12 37.667 82 83 210c74 172.667 167 281 279 325c35.333 13.333 82 23.333 140 30
c102 0 176.333 -47.667 223 -143c10.667 -34 16 -65 16 -93c0 -164.667 -167.333 -364 -502 -598c112.667 -31.333 191.334 -78 236.001 -140c38 -54.667 57 -118.667 57 -192c0 -119.333 -56.667 -198 -170 -236c-24.667 -9.33301 -51 -14 -79 -14h-7c-2 0 -3 -1 -3 -3
l-7 3h-7c-120 0 -202 66.667 -246 200c-28 92.667 -45.333 139 -52 139c-15.333 0 -39 -35.333 -71 -106c-59.333 -121.333 -126.666 -193.333 -201.999 -216c-33.333 -8.66699 -57.666 -13 -72.999 -13c-68 0 -115.667 38.667 -143 116c-6.66699 26.667 -10 51 -10 73
c0 142.667 90.667 266.667 272 372l-209 160c-102 89.333 -159.667 170.333 -173 243c-6.66699 39.333 -10 70.333 -10 93c0 126 50 231 150 315c46 28.667 90.333 44.334 133 47.001z"></glyph>
    <glyph glyph-name="Y" unicode="Y" horiz-adv-x="1033" d="M856 1444c76.667 -0.666992 130.336 -41.998 161.003 -123.998c6 -18.667 9 -38 9 -58c-6 -91.333 -60 -213.666 -162 -366.999c-8.66699 -16 -13 -35.667 -13 -59c0 -4.66699 0.333008 -9.66699 1 -15c2.66699 -30.667 20 -132.667 52 -306
c4 -12.667 7.33301 -44 10 -94c0 -120 -63.333 -231.333 -190 -334c-82 -54.667 -164.667 -82 -248 -82h-18c-215.333 0 -357.333 64 -426 192c-16.667 33.333 -25.334 73 -26.001 119c0 84 38.333 142.667 115 176c38.667 12 80.667 18 126 18
c57.333 0 123.666 -17.667 198.999 -53c20.667 -9.33301 40 -14 58 -14h29c92 0 151.667 53 179 159c3.33301 23.333 5 43 5 59l-1 18c-69.333 -83.333 -149.333 -125 -240 -125c-146.667 0 -245.667 86.667 -297 260c-20 76 -30 148.667 -30 218v10
c0 137.333 35.667 245.666 107 324.999c43.333 40.667 92 61 146 61h11c81.333 0 122 -57 122 -171c0 -26 -10.333 -120.333 -31 -283v-19c0 -74.667 17 -122.334 51 -143.001l18 -2h16c31.333 5.33301 51.666 36.333 60.999 93v33c0 24 -12.667 69.333 -38 136
c-6 29.333 -9 55.666 -9 78.999v5c0 138.667 67.667 231.334 203 278.001c19.333 5.33301 36 8.66602 50 9.99902z"></glyph>
    <glyph glyph-name="Z" unicode="Z" horiz-adv-x="1300" d="M1017 1406c98.667 0 154.331 -60.334 166.998 -181.001v-9c0 -97.333 -32.333 -180.333 -97 -249c-49.333 -51.333 -157.333 -123 -324 -215c-56.667 -33.333 -89.334 -55.666 -98.001 -66.999c114.667 44.667 204 67 268 67h28c110.667 0 196.667 -72 258 -216
c25.333 -78.667 38 -153.334 38 -224.001v-20c0 -160 -46.667 -269 -140 -327c-14 -7.33301 -30 -11 -48 -11h-7c-84 0 -190.667 69.667 -320 209c-48 42 -85 63 -111 63h-39c-41.333 0 -138.666 -41 -291.999 -123c-39.333 -19.333 -76.666 -29.333 -111.999 -30
c-90.667 2.66699 -141.667 66.334 -153 191.001c0 109.333 61.333 244 184 404c84.667 90 162 162 232 216c-44.667 -7.33301 -88 -12 -130 -14c-105.333 0 -176.333 32.333 -213 97c-9.33301 24 -14 44.667 -14 62v19c0 75.333 34.667 152 104 230
c50.667 43.333 101 65 151 65c42.667 0 106.667 -29.333 192 -88c12 -6 24.333 -9 37 -9h11c14.667 0 106.334 41.667 275.001 125c64.667 23.333 115.667 35 153 35z"></glyph>
    <glyph glyph-name="bracketleft" unicode="[" horiz-adv-x="600" d="M533 1202c-32 -16 -67.333 -24 -106 -24c-0.666992 0 -1.33398 0.333008 -2.00098 1c-40 0 -77.333 7.33301 -112 22c-21.333 -242 -32 -482 -32 -720c0 -114 2.66699 -228.333 8 -343c40 9.33301 76.667 14 110 14c54 0 99 -12.667 135 -38
c20.667 -22.667 31 -51.334 31 -86.001c0 -8 -0.333008 -16 -1 -24c-6 -45.333 -54 -75 -144 -89c-40 -6 -89.333 -9 -148 -9c-16 0 -32.667 0.333008 -50 1c-78 8 -129 33.667 -153 77c-32.667 60.667 -49 234.334 -49 521.001c0 230 20 506.333 60 829
c12 54.667 84 82 216 82c10.667 0 21.667 -0.333008 33 -1c66.667 -2 119.334 -10 158.001 -24c56 -19.333 84 -54.666 84 -105.999v-9c-3.33301 -34.667 -16 -59.334 -38 -74.001z"></glyph>
    <glyph glyph-name="backslash" unicode="\" horiz-adv-x="800" d="M66 1392c8.66699 4 18.3311 5.99902 28.998 5.99902c21.333 0 47.333 -8.33301 78 -25c154 -116 286.667 -291 398 -525l42 -86c80.667 -170.667 137 -341 169 -511c8 -51.333 12 -94.333 12 -129c0 -63.333 -13 -101.333 -39 -114
c-5.33301 -2.66699 -11.666 -4 -18.999 -4c-25.333 0 -60.666 16.667 -105.999 50c-159.333 162 -287.333 344.333 -384 547l-33 69c-56 116.667 -101.333 237.334 -136 362.001c-31.333 114.667 -47 202.334 -47 263.001c0 53.333 12 85.666 36 96.999z"></glyph>
    <glyph glyph-name="bracketright" unicode="]" horiz-adv-x="600" d="M20 1276v9c0 51.333 28 86.666 84 105.999c38.667 14 91.334 22 158.001 24c11.333 0.666992 22.333 1 33 1c132 0 204 -27.333 216 -82c40 -322.667 60 -599 60 -829c0 -286.667 -16.333 -460.334 -49 -521.001c-24 -43.333 -75 -69 -153 -77
c-17.333 -0.666992 -34 -1 -50 -1c-58.667 0 -108 3 -148 9c-90 14 -138 43.667 -144 89c-0.666992 8 -1 16 -1 24c0 34.667 10.333 63.334 31 86.001c36 25.333 81 38 135 38c33.333 0 70 -4.66699 110 -14c5.33301 114.667 8 229 8 343c0 238 -10.667 478 -32 720
c-34.667 -14.667 -72 -22 -112 -22c-0.666992 -0.666992 -1.33398 -1 -2.00098 -1c-38.667 0 -74 8 -106 24c-22 14.667 -34.667 39.334 -38 74.001z"></glyph>
    <glyph glyph-name="asciicircum" unicode="^" horiz-adv-x="1000" d="M168 1136v5c0 108.667 108.333 269 325 481l7 7c97.333 -96 168.333 -174.667 213 -236c78 -108.667 117 -191.667 117 -249v-4c0 -52.667 -30.333 -89.667 -91 -111c-14.667 -4 -24 -6 -28 -6c-72 0 -140 83 -204 249l-7 16l-20 -62
c-59.333 -148 -122.333 -222 -189 -222c-38 0 -74.667 24.667 -110 74c-8.66699 20.667 -13 40 -13 58z"></glyph>
    <glyph glyph-name="underscore" unicode="_" horiz-adv-x="1100" d="M1074 28c0 -40 -75.001 -74.001 -225.001 -102.001c-87.333 -16 -175.333 -24 -264 -24h-51c-153.333 0 -303.666 26.333 -450.999 79c-43.333 23.333 -65 45 -65 65c0 32.667 47.333 63.334 142 92.001c114 32 235.667 48 365 48h65c176.667 0 323.667 -31.333 441 -94
c28.667 -22 43 -43.333 43 -64z"></glyph>
    <glyph glyph-name="grave" unicode="`" horiz-adv-x="400" d="M342 1525l-23 -216v-7c0 -8.66699 1 -16.334 3 -23.001c44 -103.333 66 -162 66 -176v-6c0 -44.667 -39 -67.667 -117 -69c-48 0 -92 19.333 -132 58c-83.333 113.333 -125 209 -125 287v19c0 120.667 78 193.334 234 218.001h8c57.333 0 86 -28.333 86 -85z"></glyph>
    <glyph glyph-name="a" unicode="a" horiz-adv-x="725" d="M380 1028c126.667 0 211.333 -59.332 254 -177.999c13.333 -42 20 -82.667 20 -122v-19c-2 -78 -29 -185 -81 -321v-23c1.33301 -22 29 -60.667 83 -116c30.667 -39.333 46 -73 46 -101v-9c0 -60.667 -32.333 -105.334 -97 -134.001c-16.667 -3.33301 -26.667 -5 -30 -5
c-52.667 0 -93.334 43.667 -122.001 131c-42.667 -78 -112.667 -117 -210 -117c-68 0 -117.667 43 -149 129c-6.66699 25.333 -10 46.333 -10 63v9c0 120 75.667 212.333 227 277c70.667 32.667 115.667 58 135 76c19.333 24 29 46.333 29 67v14c0 26 -16.333 39 -49 39
c-25.333 0 -75 -33 -149 -99c-32 -26 -68.333 -39 -109 -39h-3c-67.333 0 -114 35.333 -140 106c-8 28 -12 51 -12 69v19c0 96.667 54.667 176.667 164 240c76.667 29.333 144.334 44 203.001 44zM283.999 321.001c0 -32 15.667 -48 47 -48c44 3.33301 70 29.333 78 78v21
c-2 26 -16.333 39 -43 39h-8c-49.333 -13.333 -74 -43.333 -74 -90z"></glyph>
    <glyph glyph-name="b" unicode="b" horiz-adv-x="801" d="M199 1424c100.667 0 160.668 -126 180.001 -378v-66c0 -68 -8.33301 -142.333 -25 -223c67.333 62 133.333 93 198 93c88 0 151.333 -57 190 -171c20.667 -66 31 -141.333 31 -226v-19c0 -208 -84 -348.667 -252 -422c-19.333 -8 -42 -12 -68 -12
c-60 0 -114.667 47.667 -164 143c-32.667 -76.667 -79.334 -115 -140.001 -115h-6c-58 6.66699 -87 35.667 -87 87c0 22 25.667 100.667 77 236c10.667 39.333 16 88.666 16 147.999c0 100 -34 278 -102 534c-12.667 50.667 -19 95.334 -19 134.001v3
c0.666992 123.333 45 206 133 248c11.333 4 22.333 6 33 6h5zM400.001 571c-0.666992 -2.66699 -1.00098 -6.00098 -1.00098 -10.001c0.666992 -26.667 12.334 -41 35.001 -43h16c42 9.33301 73 42.333 93 99c0.666992 4 1 8 1 12c0 30.667 -17 46.334 -51 47.001
c-41.333 0 -72.333 -35 -93 -105z"></glyph>
    <glyph glyph-name="c" unicode="c" horiz-adv-x="678" d="M423 986c98 0 165.667 -54.333 203 -163c13.333 -50 20 -96.667 20 -140c-4 -119.333 -36.333 -196 -97 -230c-18 -7.33301 -36.667 -11.666 -56 -12.999c-24 0 -51.5 7.83301 -82.5 23.5s-52.5 23.5 -64.5 23.5c-34.667 0 -55 -31 -61 -93v-20c0 -58 19 -92.667 57 -104
c5.33301 -1.33301 11.333 -2 18 -2c24.667 1.33301 48.834 13 72.501 35s43 37 58 45s37.5 12.333 67.5 13c41.333 0 71.666 -25 90.999 -75c2.66699 -14.667 4 -25.334 4 -32.001c0 -94.667 -74.333 -172 -223 -232c-47.333 -16.667 -90.333 -25 -129 -25
c-113.333 0 -197 63.333 -251 190c-19.333 64.667 -29 130.667 -29 198v46c0 210 74.667 374.667 224 494c58.667 40.667 118 61 178 61z"></glyph>
    <glyph glyph-name="d" unicode="d" horiz-adv-x="801" d="M607 1424c10.667 0 21.668 -2 33.001 -6c88 -42 132.333 -124.667 133 -248v-3c0 -38.667 -6.33301 -83.334 -19 -134.001c-68 -256 -102 -434 -102 -534c0 -59.333 5.33301 -108.666 16 -147.999c51.333 -135.333 77 -214 77 -236c0 -51.333 -29 -80.333 -87 -87h-6
c-60.667 0 -107.334 38.333 -140.001 115c-49.333 -95.333 -104 -143 -164 -143c-26 0 -48.667 4 -68 12c-168 73.333 -252 214 -252 422v19c0 84.667 10.333 160 31 226c38.667 114 102 171 190 171c64.667 0 130.667 -31 198 -93c-16.667 80.667 -25 155 -25 223v66
c19.333 252 79.333 378 180 378h5zM198.001 614c-0.666992 -3.33301 -0.999023 -7.00098 -0.999023 -11.001v-7c0 -22.667 6.66699 -36.667 20 -42l16 -2c36 2 64 33.667 84 95c0.666992 4 1 8 1 12v5c0 26.667 -11 41.334 -33 44.001h-7
c-34.667 0 -61.334 -31.333 -80.001 -94z"></glyph>
    <glyph glyph-name="e" unicode="e" horiz-adv-x="755" d="M464 998c137.333 0 225.333 -60.3311 264 -180.998c5.33301 -26.667 8 -52.667 8 -78c-1.33301 -138 -78 -242 -230 -312c-29.333 -10.667 -59 -16 -89 -16c-68.667 0 -152.667 25.333 -252 76c0 -82.667 24.667 -153.334 74 -212.001c13.333 -10 27.333 -15.333 42 -16
h10c46.667 0 116.667 32.333 210 97c42 24.667 79.333 37 112 37c58 0 97.333 -29.667 118 -89c5.33301 -22 8 -38.667 8 -50v-21c0 -94.667 -61 -164.334 -183 -209.001c-57.333 -16 -112.333 -24 -165 -24h-40c-148 0 -249.333 84.667 -304 254
c-20.667 72.667 -31 154.667 -31 246c0 171.333 71.667 312 215 422c74 50.667 151.667 76 233 76zM231 694.002c0 -61.333 33.999 -101.332 101.999 -119.999h34c54.667 0 91.334 34 110.001 102v39c0 37.333 -25.333 69.666 -76 96.999c-18 5.33301 -33.667 8 -47 8
c-60 0 -100.333 -32.333 -121 -97c-1.33301 -15.333 -2 -25 -2 -29z"></glyph>
    <glyph glyph-name="f" unicode="f" horiz-adv-x="776" d="M347 1404h3.99902c126.667 0 233.334 -32 320.001 -96c58.667 -65.333 88 -126.666 88 -183.999c-7.33301 -122.667 -75.333 -186.667 -204 -192h-28c-19.333 0 -76.333 13 -171 39l-13 1c-52.667 -1.33301 -80.667 -24 -84 -68v-20c10 -45.333 40.667 -68 92 -68
c26 0 83.333 21.333 172 64c24 5.33301 41.333 8 52 8h8c101.333 -14 152 -59.333 152 -136c0 -88.667 -60 -140.667 -180 -156h-28c-32.667 0 -68 3.66699 -106 11c82.667 -178.667 124.667 -295.667 126 -351c0 -116 -42.667 -196 -128 -240
c-51.333 -10.667 -86 -16 -104 -16c-95.333 0 -158 33.333 -188 100c-8 21.333 -12 41.333 -12 60v8c18.667 115.333 28 196.666 28 243.999c0 106 -33.333 250 -100 432c-21.333 83.333 -32 155.333 -32 216v64c0 126.667 73.333 214.667 220 264
c44 10.667 82.667 16 116 16z"></glyph>
    <glyph glyph-name="g" unicode="g" d="M798 1075c61.333 -2.66699 92.3311 -45.6689 92.998 -129.002c-1.33301 -75.333 -19.333 -150.666 -54 -225.999s-53 -148.666 -55 -219.999c2.66699 -81.333 18.667 -230 48 -446c0 -206.667 -100.667 -347.667 -302 -423c-62.667 -24 -123.667 -36 -183 -36
c-172.667 0 -309.667 77.333 -411 232c-32 60.667 -48 115.334 -48 164.001v11c0 66.667 38.667 114 116 142c46 10.667 82.333 16 109 16h35c24.667 0 116.667 -12 276 -36h45c94.667 0 154.667 55 180 165c4 20 6 37 6 51c0 6 -0.333008 12 -1 18
c-60 -96 -132.333 -146.667 -217 -152h-16h-11c-109.333 0 -186.666 30.333 -231.999 91c-46.667 62 -70.667 142 -72 240c0 121.333 38.667 234.333 116 339c62 71.333 142.333 107.666 241 108.999h12c70 0 133.333 -33.667 190 -101
c10.667 127.333 55.334 191 134.001 191h1zM330.998 781.998l-0.999023 -1.99902c-11.333 -17.333 -17 -33 -17 -47c0 -10.667 3.33301 -20.334 10 -29.001l10 -8c9.33301 -6.66699 19.666 -10 30.999 -10c24 0 52 15.667 84 47c6.66699 7.33301 12.334 14.333 17.001 21
c12 18.667 18 35 18 49c0 12 -4.33301 22.667 -13 32l-7 5c-8.66699 6 -18.334 9 -29.001 9c-24 0 -52.667 -15.333 -86 -46z"></glyph>
    <glyph glyph-name="h" unicode="h" horiz-adv-x="863" d="M74 1696l49.999 3.99902c119.333 0 194 -133.667 224 -401v-29c0 -97.333 -29.333 -238 -88 -422c44 54 112.333 81 205 81c10 0 22.333 -1 37 -3c220.667 -75.333 331 -288.666 331 -639.999v-28c-25.333 -172 -110.666 -258 -255.999 -258
c-98.667 2.66699 -151.334 36 -158.001 100c0 60.667 16.833 144.834 50.5 252.501s50.5 180.834 50.5 219.501c0 74 -24 121.333 -72 142c-104.667 0 -157 -52.333 -157 -157c46.667 -130.667 70 -249.334 70 -356.001c0 -10 -0.333008 -19.667 -1 -29
c-5.33301 -114.667 -52 -172 -140 -172c-15.333 -2.66699 -30.333 -4 -45 -4c-41.333 0 -81.666 10.667 -120.999 32c-51.333 30 -77 87.667 -77 173c0 33.333 23.333 98.666 70 195.999c40.667 86.667 61 159.667 61 219c0 7.33301 -0.333008 14.333 -1 21
c-5.33301 63.333 -28.166 157.666 -68.499 282.999s-67.833 213.833 -82.5 265.5s-25.334 154.167 -32.001 307.5c6.66699 110.667 56.667 178.334 150 203.001z"></glyph>
    <glyph glyph-name="i" unicode="i" horiz-adv-x="484" d="M286 1263c81.333 0 141.666 -41 180.999 -123c18.667 -45.333 28 -97.333 28 -156c0 -131.333 -50 -219.333 -150 -264c-46 -16.667 -86 -25 -120 -25h-15c-77.333 0 -139 26.667 -185 80c-29.333 42 -44 89.333 -44 142v15c0 106.667 46 196.667 138 270
c60.667 40.667 116.334 61 167.001 61zM237 647c73.333 0 121.333 -85.335 144 -256.002c2.66699 -37.333 4 -69.666 4 -96.999v-15c0 -134 -26.667 -222.333 -80 -265c-14.667 -9.33301 -29.667 -14 -45 -14h-4c-52.667 0 -97.667 39.667 -135 119
c-20 53.333 -30 107.333 -30 162v17c0 184.667 32 297.334 96 338.001c18 7.33301 34.667 11 50 11z"></glyph>
    <glyph glyph-name="j" unicode="j" horiz-adv-x="484" d="M242 642c87.333 0 137.667 -104.665 151 -313.998c2 -24 3 -42.667 3 -56c0 -150.667 -36 -287 -108 -409c-78 -78.667 -162 -134.667 -252 -168c-80.667 -25.333 -144.667 -38 -192 -38h-17c-121.333 0 -211 40.667 -269 122c-4.66699 8.66699 -9.33398 24 -14.001 46
c0 61.333 58.333 127.666 175 198.999c44.667 14 76 21 94 21c43.333 -4.66699 72.333 -7 87 -7c72.667 0 133.334 19.667 182.001 59c16 23.333 24 53.666 24 90.999c-4.66699 34.667 -7 63.667 -7 87v14c0 235.333 47.667 353 143 353zM286.001 1263
c81.333 0 141.666 -41 180.999 -123c18.667 -45.333 28 -97.333 28 -156c0 -131.333 -50 -219.333 -150 -264c-46 -16.667 -86 -25 -120 -25h-15c-77.333 0 -139 26.667 -185 80c-29.333 42 -44 89.333 -44 142v15c0 106.667 46 196.667 138 270
c60.667 40.667 116.334 61 167.001 61z"></glyph>
    <glyph glyph-name="k" unicode="k" horiz-adv-x="799" d="M244 1490c106.667 0 160.002 -133.334 160.002 -400.001c0 -117.333 -9.66699 -257.333 -29 -420c86 146.667 149.833 239.834 191.5 279.501s80.5 59.5 116.5 59.5c58 0 87 -61 87 -183v-8c0 -149.333 -106 -263 -318 -341c116 -76 197.333 -138 244 -186
c41.333 -44 62 -87 62 -129c0 -5.33301 -0.333008 -10.333 -1 -15c-12 -86 -53 -129 -123 -129c-70.667 0 -143.334 73.667 -218.001 221c-28.667 -159.333 -82.334 -239 -161.001 -239h-3c-82.667 1.33301 -129.334 62.333 -140.001 183c0 78.667 4.33301 167 13 265
c0 35.333 -30.333 182 -91 440c-10.667 82 -16 155.333 -16 220v26c7.33301 196.667 73 314 197 352c10.667 2.66699 20.334 4 29.001 4z"></glyph>
    <glyph glyph-name="l" unicode="l" horiz-adv-x="441" d="M215 1394h3.00195c85.333 0 143.666 -48 174.999 -144c10.667 -37.333 16 -78.333 16 -123v-5c0 -93.333 -23.667 -254 -71 -482c-1.33301 -6 -2.33301 -17.667 -3 -35c0 -27.333 12 -126.666 36 -297.999l4 -45c0 -64.667 -19.333 -130.667 -58 -198
c-30 -42.667 -62 -64 -96 -64c-72.667 0 -122.334 43.333 -149.001 130c-6.66699 30.667 -10 58 -10 82v11c0 48 12.667 144.333 38 289c2 18 3 33.667 3 47c0 21.333 -22.333 168 -67 440c-6.66699 54.667 -10 90 -10 106v7c0 1.33301 -0.666992 2 -2 2l2 2v8
c0 75.333 25 145.666 75 210.999c37.333 39.333 75.333 59 114 59z"></glyph>
    <glyph glyph-name="m" unicode="m" d="M617 1006c83.333 0 156.334 -109.667 219.001 -329c28.667 -125.333 43 -247 43 -365v-21c0 -144.667 -30.667 -237.334 -92 -278.001c-20.667 -8.66699 -38 -13 -52 -13h-2c-85.333 0 -138 71 -158 213c-8 52 -17 126.333 -27 223c-24 -167.333 -58.667 -251 -104 -251
c-41.333 0 -80 79.667 -116 239v-57c0 -186 -35.333 -300 -106 -342c-17.333 -6.66699 -32.666 -10 -45.999 -10c-80.667 0 -131.334 63.333 -152.001 190c-3.33301 28.667 -5 57.334 -5 86.001c0 140 36 332.667 108 578c29.333 85.333 76.666 129.333 141.999 132
c74 0 131 -88.333 171 -265c30.667 180 89.667 270 177 270z"></glyph>
    <glyph glyph-name="n" unicode="n" horiz-adv-x="814" d="M110 986l2.99902 -0.00195312c54.667 0 91.667 -46.667 111 -140h5c63.333 84 133 126 209 126h11c103.333 0 191.333 -77.333 264 -232c30.667 -91.333 46 -197.666 46 -318.999c0 -221.333 -68.333 -358 -205 -410c-22.667 -6 -42 -9 -58 -9h-3
c-62.667 0 -105.667 35 -129 105c-3.33301 13.333 -5.33301 28 -6 44c2 59.333 38 146 108 260c14 32 21 64 21 96c0 98 -38.667 147 -116 147c-58 0 -96.667 -22.667 -116 -68c-18.667 -34.667 -28 -69.334 -28 -104.001c0 -23.333 18.333 -79 55 -167
c12.667 -45.333 19 -92.333 19 -141c0 -116 -49.333 -174 -148 -174h-3c-62 0 -103 31 -123 93c-6.66699 24 -10 47 -10 69v22c0 16.667 21.333 87.334 64 212.001c3.33301 15.333 5 28 5 38c0 34 -23.667 137 -71 309c-3.33301 20.667 -5.66602 41.334 -6.99902 62.001
c3.33301 96 28.333 154.667 75 176c12.667 3.33301 21.667 5 27 5z"></glyph>
    <glyph glyph-name="o" unicode="o" horiz-adv-x="829" d="M452 995c105.333 0 200.001 -65 284.001 -195c44.667 -92 67 -184.667 67 -278v-43c0 -161.333 -58.667 -295 -176 -401c-62.667 -52 -131.667 -78 -207 -78h-36c-172 0 -288.333 86.667 -349 260c-16 64.667 -24 124 -24 178c0 194 74.667 356.333 224 487
c57.333 46.667 129.666 70 216.999 70zM337.001 633l19 -1.00098c42 8 75.333 39.667 100 95c6 14.667 9 31.334 9 50.001c-1.33301 38 -16.333 58.333 -45 61h-5c-44 -2.66699 -78.667 -39.667 -104 -111c-5.33301 -14 -8 -27.333 -8 -40c0 -6.66699 1 -13 3 -19
c4 -18 14.333 -29.667 31 -35z"></glyph>
    <glyph glyph-name="p" unicode="p" horiz-adv-x="746" d="M422 1018c82 0 157.002 -44.998 225.002 -134.998c51.333 -66 77 -167 77 -303c-1.33301 -202 -67 -335 -197 -399c-15.333 -6 -31.333 -9 -48 -9h-5c-58.667 2 -116.334 21.667 -173.001 59c24.667 -108.667 37 -197.667 37 -267v-46c0.666992 -13.333 1 -26.333 1 -39
c0 -129.333 -50 -222.666 -150 -279.999c-13.333 -5.33301 -24 -8 -32 -8c-42 0 -81 37.333 -117 112c-16 46.667 -24 90 -24 130c0 31.333 25.333 195.666 76 492.999c5.33301 28 9.33301 78 12 150c0 57.333 -25.333 136.666 -76 237.999
c-16 47.333 -24 80.666 -24 99.999v12c0 59.333 29.333 96.333 88 111c5.33301 0.666992 10.333 1 15 1c44 0 81.667 -31.333 113 -94c63.333 116 130.666 174 201.999 174zM293.002 707.002v-7.99902c4 -26 17.667 -39 41 -39c49.333 0 84 34.667 104 104
c2.66699 8.66699 4 16.667 4 24c0 10.667 -3 20 -9 28c-6.66699 8 -16.667 12 -30 12c-6 0 -12.667 -0.666992 -20 -2c-60 -20.667 -90 -60.334 -90 -119.001z"></glyph>
    <glyph glyph-name="q" unicode="q" horiz-adv-x="746" d="M508 844c31.333 62.667 69.002 93.998 113.002 93.998c4.66699 0 9.66699 -0.333008 15 -1c58.667 -14.667 88 -51.667 88 -111v-12c0 -19.333 -8 -52.666 -24 -99.999c-50.667 -101.333 -76 -180.666 -76 -237.999c2.66699 -72 6.66699 -122 12 -150
c50.667 -297.333 76 -461.666 76 -492.999c0 -40 -8 -83.333 -24 -130c-36 -74.667 -75 -112 -117 -112c-8 0 -18.667 2.66699 -32 8c-100 57.333 -150 150.666 -150 279.999c0 12.667 0.333008 25.667 1 39v46c0 69.333 12.333 158.333 37 267
c-56.667 -37.333 -114.334 -57 -173.001 -59h-5c-16.667 0 -32.667 3 -48 9c-130 64 -195.667 197 -197 399c0 136 25.667 237 77 303c68 90 143 135 225 135c71.333 0 138.666 -58 201.999 -174zM345.002 825.998c-7.33301 1.33301 -14 1.99902 -20 1.99902
c-13.333 0 -23.333 -4 -30 -12c-6 -8 -9 -17.333 -9 -28c0 -7.33301 1.33301 -15.333 4 -24c20 -69.333 54.667 -104 104 -104c23.333 0 37 13 41 39v8c0 58.667 -30 98.334 -90 119.001z"></glyph>
    <glyph glyph-name="r" unicode="r" horiz-adv-x="861" d="M119 1006c59.333 0 114.665 -62 165.998 -186h2c55.333 120.667 144 181 266 181h10c132 0 222.333 -72 271 -216c4 -18 7.33301 -52.333 10 -103c0 -142.667 -48.333 -236.667 -145 -282c-44.667 -13.333 -77.667 -20 -99 -20c-66 0 -110.667 34.333 -134 103
c-4 16.667 -6 30 -6 40l27 145v23c-0.666992 26.667 -9 40 -25 40h-10c-31.333 0 -56.666 -21 -75.999 -63c-2.66699 -10.667 -4 -22 -4 -34v-8c0 -48.667 30.667 -130.667 92 -246c24.667 -55.333 37 -94 37 -116c0 -127.333 -64.667 -211.333 -194 -252
c-29.333 -8 -49.666 -12 -60.999 -12c-62 -0 -115.667 30.333 -161 91c-18.667 30.667 -28 59.667 -28 87c0 39.333 23.333 141 70 305c5.33301 26 8 48 8 66c0 48.667 -30.333 116 -91 202c-29.333 54 -44 99 -44 135v4c-0 52 30.333 89.333 91 112
c10 2.66699 19.333 4 28 4z"></glyph>
    <glyph glyph-name="s" unicode="s" horiz-adv-x="646" d="M358 1001h25.0029c106.667 0 180 -56.667 220 -170c6 -24 9 -46.667 9 -68c0 -88 -27.333 -146.667 -82 -176c-9.33301 -4.66699 -19.666 -7 -30.999 -7c-26 0 -56.333 13.333 -91 40c-10 6 -20 9 -30 9c-6 0 -12.333 -1 -19 -3c-17.333 -6 -26 -19 -26 -39v-6
c0 -47.333 46.333 -88 139 -122c45.333 -22 79.666 -52.667 102.999 -92c23.333 -46.667 35 -88.334 35 -125.001c0 -88 -47 -161 -141 -219c-36.667 -15.333 -69.334 -23 -98.001 -23h-6c-79.333 0 -156.333 34.667 -231 104c-38 40.667 -57 88.334 -57 143.001v2
c6.66699 66.667 30.667 100 72 100c21.333 0 57.666 -18.333 108.999 -55c11.333 -8 22 -12 32 -12c2.66699 0 4.66699 0.333008 6 1c12 2 19.667 13.333 23 34v9c0 34 -39.333 60.667 -118 80c-114.667 41.333 -173.334 124.333 -176.001 249c0 102 39.333 192.333 118 271
c64 50 135.667 75 215 75z"></glyph>
    <glyph glyph-name="t" unicode="t" horiz-adv-x="901" d="M428 1561c143.333 0 216.334 -135 219.001 -405c-8 -104.667 -35.667 -234 -83 -388c93.333 78.667 162.333 119.667 207 123c5.33301 0.666992 10 1 14 1c64 0 97.667 -41.333 101 -124v-95c-4.66699 -81.333 -42 -129.333 -112 -144c-13.333 -1.33301 -26 -2 -38 -2
c-66.667 0 -129 26.333 -187 79c38.667 -140.667 58 -257 58 -349c0 -39.333 -3.33301 -73.666 -10 -102.999c-24 -100.667 -63.333 -151 -118 -151h-28c-106.667 0 -162 91.667 -166 275v12c0 66 30.667 169.333 92 310l-104 -39c-56.667 -16 -102.334 -24 -137.001 -24
c-33.333 0 -57.333 7.66699 -72 23c-29.333 31.333 -46 69.666 -50 114.999c-1.33301 10.667 -2 22 -2 34c0 34.667 5.33301 69.667 16 105c13.333 47.333 52.333 72.333 117 75c65.333 -3.33301 137 -39.333 215 -108c-80.667 184.667 -121 338.667 -121 462
c0 42 4.66699 80 14 114c36 136 94.333 204 175 204z"></glyph>
    <glyph glyph-name="u" unicode="u" horiz-adv-x="927" d="M731 1025c68 0 123.001 -36.3301 165.001 -108.997c8.66699 -18.667 14.667 -44.334 18 -77.001c0 -40 -28.667 -126.333 -86 -259c-18.667 -60 -28 -115 -28 -165c0 -46 20.333 -94.667 61 -146c14 -38.667 21 -67.334 21 -86.001v-9c-7.33301 -63.333 -39 -95 -95 -95
h-12c-96 0 -144 63.333 -144 190c-3.33301 -2.66699 -15 -29 -35 -79c-66 -126.667 -157 -190 -273 -190c-130.667 0 -229.667 96 -297 288c-9.33301 42 -14 81.333 -14 118v25c0 114 26.333 248.667 79 404c52 120.667 124.667 181 218 181h7c74.667 0 125 -38 151 -114
l4 -21c0 -52.667 -24.667 -135.334 -74 -248.001c-52.667 -78.667 -79 -148.334 -79 -209.001c6 -50.667 30.667 -76 74 -76h28c69.333 0 116.666 49.333 141.999 148v40c0 6.66699 -13.333 52.334 -40 137.001c-9.33301 38.667 -14 71.667 -14 99
c0 84 39.667 157.667 119 221c32 21.333 66.667 32 104 32z"></glyph>
    <glyph glyph-name="v" unicode="v" d="M678 1035c77.333 0 139 -47.667 185 -143c11.333 -39.333 17 -71.666 17 -96.999c0 -90.667 -73.667 -215.667 -221 -375c-68 -84.667 -102 -165.334 -102 -242.001c-4.66699 -56 -18.334 -100 -41.001 -132c-24.667 -30.667 -54.667 -46 -90 -46
c-99.333 0 -157.666 100.667 -174.999 302c-2 8 -3 27.667 -3 59c-148.667 208 -223 364.333 -223 469c8.66699 84.667 46 127 112 127c98 0 171.667 -87.333 221 -262c24 -98 37.333 -166.667 40 -206c0.666992 168.667 30 313 88 433c53.333 75.333 117.333 113 192 113z
"></glyph>
    <glyph glyph-name="w" unicode="w" horiz-adv-x="1263" d="M182 194c-110 226.667 -164.999 408.001 -164.999 544.001v11c0 17.333 2.33301 41 7 71c30 111.333 86 167 168 167c75.333 0 141.666 -38.333 198.999 -115c38 -61.333 64 -148.333 78 -261c42.667 141.333 86 212 130 212c44.667 0 84.334 -34.667 119.001 -104
l49 -110c4.66699 24 12.667 108 24 252c18 93.333 77.333 141.666 178 144.999h27c32 0 65 -10 99 -30c94.667 -69.333 142 -204.666 142 -405.999c0 -86.667 -12 -167.334 -36 -242.001c-88 -208.667 -190.667 -313 -308 -313h-6c-98 0 -176.333 80.333 -235 241
c-46.667 -170.667 -109.667 -256 -189 -256c-118.667 0 -212.334 64.667 -281.001 194z"></glyph>
    <glyph glyph-name="x" unicode="x" horiz-adv-x="981" d="M837 1033c42 0 77.668 -17.668 107.001 -53.001c12 -21.333 18 -46.666 18 -75.999v-9c0 -130 -84 -240.667 -252 -332c-50.667 -29.333 -82.667 -52.333 -96 -69v-7c6 -18 84 -63.333 234 -136c71.333 -54 107 -120 107 -198c0 -71.333 -44.333 -122 -133 -152
c-17.333 -2.66699 -29.333 -4 -36 -4h-7c-109.333 0 -208 99.667 -296 299c-8.66699 8.66699 -14 13 -16 13h-6c-12.667 -2 -47.667 -62.333 -105 -181c-52.667 -87.333 -115.667 -131 -189 -131h-7c-55.333 0 -93.333 29.667 -114 89c-4 16 -7 34 -9 54
c0 99.333 70 187.666 210 264.999c64 39.333 96 66 96 80s-40.333 42.333 -121 85c-84.667 64.667 -147 132 -187 202c-8.66699 15.333 -15.334 40 -20.001 74c0 52.667 34 104.667 102 156c11.333 8.66699 32.333 15.334 63 20.001c72 0 141.667 -64 209 -192
c44 -118.667 72.333 -178 85 -178c14 0 31 33.333 51 100c26.667 68 64.667 126.667 114 176c77.333 70 143.333 105 198 105z"></glyph>
    <glyph glyph-name="y" unicode="y" horiz-adv-x="956" d="M785 1000c71.333 -0.666992 121 -38.667 149 -114c5.33301 -17.333 8 -35.333 8 -54c-5.33301 -84 -55 -197 -149 -339c-8 -14.667 -12 -32.667 -12 -54c0 -4.66699 0.333008 -9.33398 1 -14.001c2 -28 18 -122 48 -282c3.33301 -12 6.33301 -41 9 -87
c0 -110.667 -58.333 -213.334 -175 -308.001c-76 -50.667 -152.333 -76 -229 -76h-17c-198.667 0 -329.667 59 -393 177c-15.333 30.667 -23.333 67.334 -24 110.001c0 77.333 35.333 131.333 106 162c36 11.333 74.667 17 116 17c53.333 0 114.666 -16.333 183.999 -49
c19.333 -8.66699 37.333 -13 54 -13h26c85.333 0 140.666 49 165.999 147c2.66699 21.333 4 39.333 4 54l-1 17c-64 -76.667 -137.667 -115 -221 -115c-135.333 0 -226.666 80 -273.999 240c-18.667 70 -28 137 -28 201v9c0 126.667 33 226.667 99 300
c40 37.333 84.667 56 134 56h11c74.667 0 112 -52.667 112 -158c0 -24 -9.33301 -111 -28 -261v-17c0 -69.333 15.667 -113.333 47 -132l16 -2h15c28.667 4.66699 47.334 33.334 56.001 86.001v30c0 22 -11.667 64 -35 126c-5.33301 26.667 -8 51 -8 73v4
c0 128 62.333 213.667 187 257c18 4.66699 33.333 7.66699 46 9z"></glyph>
    <glyph glyph-name="z" unicode="z" horiz-adv-x="944" d="M739 995c70.667 0 110.664 -43.3359 119.997 -130.003v-6c0 -70 -23.333 -129.667 -70 -179c-35.333 -36.667 -112.666 -88 -231.999 -154c-40.667 -24 -64 -40 -70 -48c82 32 146 48 192 48h20c79.333 0 141 -51.667 185 -155c18 -56 27 -109.333 27 -160v-15
c0 -114.667 -33.333 -192.667 -100 -234c-10 -5.33301 -21.667 -8 -35 -8h-5c-60 0 -136.333 50 -229 150c-34.667 30 -61.334 45 -80.001 45h-28c-29.333 0 -99 -29.333 -209 -88c-28 -14 -54.667 -21.333 -80 -22c-65.333 2 -102 47.667 -110 137
c0 78.667 44 175.334 132 290.001c60.667 64.667 116 116.334 166 155.001c-32 -5.33301 -63 -8.66602 -93 -9.99902c-75.333 0 -126.333 23 -153 69c-6.66699 17.333 -10 32.333 -10 45v13c0 54 25 109 75 165c36 31.333 72 47 108 47c30.667 0 76.667 -21 138 -63
c8.66699 -4.66699 17.334 -7 26.001 -7h8c10.667 0 76.334 30 197.001 90c46.667 16.667 83.334 25 110.001 25z"></glyph>
    <glyph glyph-name="braceleft" unicode="{" horiz-adv-x="771" d="M275 52c-8 53.333 -12.002 109.334 -12.002 168.001c0 47.333 4 94 12 140c6.66699 38 10 67.667 10 89c0 15.333 -1.33301 26.666 -4 33.999c-8 18.667 -28.333 30 -61 34c-39.333 3.33301 -67 6 -83 8c-37.333 4.66699 -63.666 31.334 -78.999 80.001
c-4 12.667 -6 26.667 -6 42c0 45.333 21 83.666 63 114.999c34.667 26.667 64.334 42 89.001 46c24 4 36 52.667 36 146c0 16 -0.333008 33 -1 51v23c0 136 40.333 235 121 297c68.667 52 140.667 78 216 78c82 -4.66699 128.667 -27 140 -67c10 -36 15 -73.333 15 -112v-13
c-1.33301 -38.667 -32.666 -58 -93.999 -58c-8.66699 0 -17.667 0.333008 -27 1c-18.667 2.66699 -31.834 4.5 -39.501 5.5s-17.5 2.16699 -29.5 3.5c-58.667 0 -88.334 -50.333 -89.001 -151c-1.33301 -110.667 -3.33301 -179 -6 -205
c-5.33301 -42.667 -34.666 -89.334 -87.999 -140.001c55.333 -34.667 93.666 -79 114.999 -133c22.667 -53.333 34 -105.333 34 -156c0 -9.33301 -0.333008 -18.666 -1 -27.999c-5.33301 -60 -9.66602 -115 -12.999 -165c4 -46 23 -77.667 57 -95
c19.333 -6 40.666 -9 63.999 -9c14.667 0 30 1.33301 46 4c8 2 15.333 3 22 3c42.667 0 64.334 -37.667 65.001 -113v-5c0 -61.333 -77.667 -92 -233 -92h-5c-133.333 6 -211.333 64 -234 174z"></glyph>
    <glyph glyph-name="bar" unicode="|" horiz-adv-x="500" d="M268 1549c54 0 99.667 -117.333 137 -352c21.333 -136 32 -273.333 32 -412v-80c0 -240 -35.333 -474.667 -106 -704c-32 -68 -61.333 -102 -88 -102c-42.667 0 -83.667 73.667 -123 221c-42 178.667 -63 368.667 -63 570v103c0 276 42.333 505.667 127 689
c28.667 44.667 56.667 67 84 67z"></glyph>
    <glyph glyph-name="braceright" unicode="}" horiz-adv-x="771" d="M290 -122l-5.00195 -0.000976562c-155.333 0 -233 30.667 -233 92v5c0.666992 75.333 22.334 113 65.001 113c6.66699 0 14 -1 22 -3c16 -2.66699 31.333 -4 46 -4c23.333 0 44.666 3 63.999 9c34 17.333 53 49 57 95c-3.33301 50 -7.66602 105 -12.999 165
c-0.666992 9.33301 -1 18.666 -1 27.999c0 50.667 11.333 102.667 34 156c21.333 54 59.666 98.333 114.999 133c-53.333 50.667 -82.666 97.334 -87.999 140.001c-2.66699 26 -4.66699 94.333 -6 205c-0.666992 100.667 -30.334 151 -89.001 151
c-12 -1.33301 -21.833 -2.5 -29.5 -3.5s-20.834 -2.83301 -39.501 -5.5c-9.33301 -0.666992 -18.333 -1 -27 -1c-61.333 0 -92.666 19.333 -93.999 58v13c0 38.667 5 76 15 112c11.333 40 58 62.333 140 67c75.333 0 147.333 -26 216 -78c80.667 -62 121 -161 121 -297v-23
c-0.666992 -18 -1 -35 -1 -51c0 -93.333 12 -142 36 -146c24.667 -4 54.334 -19.333 89.001 -46c42 -31.333 63 -69.666 63 -114.999c0 -15.333 -2 -29.333 -6 -42c-15.333 -48.667 -41.666 -75.334 -78.999 -80.001c-16 -2 -43.667 -4.66699 -83 -8
c-32.667 -4 -53 -15.333 -61 -34c-2.66699 -7.33301 -4 -18.666 -4 -33.999c0 -21.333 3.33301 -51 10 -89c8 -46 12 -92.667 12 -140c0 -58.667 -4 -114.667 -12 -168c-22.667 -110 -100.667 -168 -234 -174z"></glyph>
    <glyph glyph-name="asciitilde" unicode="~" horiz-adv-x="1099" d="M751 286c-10 -1.33301 -19.667 -2.00195 -29 -2.00195c-58 0 -117.333 26.667 -178 80c-70.667 78.667 -136 123 -196 133c-38.667 0 -68.667 -44 -90 -132c-16 -64 -52 -96 -108 -96c-72.667 0 -109 54 -109 162c0 65.333 27.333 142.333 82 231
c60 98 123.667 147 191 147c38.667 0 84.667 -22.333 138 -67l121 -103c19.333 -16 41.5 -29.333 66.5 -40s47.833 -16 68.5 -16c18.667 2 36 7 52 15c14 6.66699 28.833 25.834 44.5 57.501s25.167 56.5 28.5 74.5c14 75.333 48.333 113 103 113
c38.667 0 69.667 -18 93 -54c19.333 -29.333 29 -63.666 29 -102.999c2 -18 3 -35.667 3 -53c0 -76 -17 -142.667 -51 -200c-43.333 -68 -106.333 -112 -189 -132z"></glyph>
    <glyph glyph-name="exclamdown" unicode="&#xa1;" horiz-adv-x="484" d="M270 993c49.333 0 86.002 -25.001 110.002 -75.001c11.333 -28 17 -60 17 -96c0 -80 -30.333 -133.667 -91 -161c-28.667 -10.667 -53.334 -16 -74.001 -16h-9c-47.333 0 -85 16.333 -113 49c-18 26 -27 55 -27 87v10c0 64.667 28 119.334 84 164.001
c37.333 25.333 71.666 38 102.999 38zM237.002 525.999c73.333 0 127.334 -123.001 162.001 -369.001c2.66699 -54 4 -100.667 4 -140v-21c0 -192.667 -32.667 -319.667 -98 -381c-14.667 -13.333 -29.667 -20 -45 -20h-4c-70.667 7.33301 -122.334 64.333 -155.001 171
c-20 76.667 -30 154.334 -30 233.001v24c0 266 38.667 428.333 116 487c18 10.667 34.667 16 50 16z"></glyph>
    <glyph glyph-name="yen" unicode="&#xa5;" horiz-adv-x="1126" d="M245 1487c115.333 0 195.337 -119.334 240.004 -358.001c18.667 -152 39.334 -228.333 62.001 -229c5.33301 -0.666992 10.666 -1 15.999 -1s10.666 0.333008 15.999 1c18.667 0.666992 35 34.834 49 102.501s41 168.834 81 303.501
c23.333 75.333 70.666 114.333 141.999 117c94.667 0 165.667 -69.667 213 -209c2 -20 3 -36.667 3 -50c0 -77.333 -69.667 -186 -209 -326c-76 -92.667 -114 -165 -114 -217v-35c0 -36 18 -129.667 54 -281c6.66699 -26 11.334 -60.333 14.001 -103
c0 -92 -47.333 -155.667 -142 -191c-12.667 -4 -30.334 -7.66699 -53.001 -11c-100.667 0 -175.334 54.333 -224.001 163c-8.66699 26 -13 52.333 -13 79v6c0 36 27 116.667 81 242c6.66699 26.667 10 52 10 76c-4.66699 111.333 -68.334 219.666 -191.001 324.999
c-120 108 -185.667 182 -197 222c-18 51.333 -27 106.333 -27 165c0 100 49.333 166.667 148 200c12 4.66699 25.667 7.66699 41 9z"></glyph>
    <glyph glyph-name="copyright" unicode="&#xa9;" horiz-adv-x="1044" d="M506 1131c216 0 367.668 -102.001 455.001 -306.001c38 -91.333 57 -189.666 57 -294.999v-21c0 -239.333 -114 -393 -342 -461c-82.667 -19.333 -149.334 -29 -200.001 -29c-170 0 -303.667 95 -401 285c-36 82.667 -54 151.667 -54 207c0 208 67.333 379 202 513
c96.667 71.333 191 107 283 107zM166.001 622.999v-22c0 -302.667 125.667 -454 377 -454c26 0 53.333 1.66699 82 5c187.333 24.667 281 148.667 281 372c0 34.667 -2.33301 71.667 -7 111c-64 245.333 -209.333 368 -436 368c-18 0 -36.333 -0.666992 -55 -2
c-126 -10.667 -206.667 -136.667 -242 -378zM559.001 883.999c62 0 104.667 -34.334 128 -103.001c8.66699 -31.333 13 -60.666 13 -87.999c-2.66699 -76 -23 -124.333 -61 -145c-12 -4.66699 -24 -7.66699 -36 -9c-15.333 0 -32.666 5 -51.999 15s-33 15 -41 15
c-22 0 -34.667 -19.333 -38 -58v-13c0 -36.667 11.667 -58.667 35 -66c4 -0.666992 8 -1 12 -1c15.333 0.666992 30.5 8 45.5 22s27.167 23.5 36.5 28.5s23.666 7.5 42.999 7.5c26 0 45 -15.667 57 -47c2 -9.33301 3 -16 3 -20c0 -60 -47 -109 -141 -147
c-29.333 -10 -56.333 -15 -81 -15c-71.333 0 -124 39.667 -158 119c-12.667 41.333 -19 83.333 -19 126v28c0 132.667 47 237 141 313c37.333 25.333 75 38 113 38z"></glyph>
    <glyph glyph-name="registered" unicode="&#xae;" horiz-adv-x="1044" d="M506 1131c216 0 367.668 -102.001 455.001 -306.001c38 -91.333 57 -189.666 57 -294.999v-21c0 -239.333 -114 -393 -342 -461c-82.667 -19.333 -149.334 -29 -200.001 -29c-170 0 -303.667 95 -401 285c-36 82.667 -54 151.667 -54 207c0 208 67.333 379 202 513
c96.667 71.333 191 107 283 107zM166.001 622.999v-22c0 -302.667 125.667 -454 377 -454c26 0 53.333 1.66699 82 5c187.333 24.667 281 148.667 281 372c0 34.667 -2.33301 71.667 -7 111c-64 245.333 -209.333 368 -436 368c-18 0 -36.333 -0.666992 -55 -2
c-126 -10.667 -206.667 -136.667 -242 -378zM497.001 879.999l1.00098 -0.000976562c85.333 0 144 -44.667 176 -134c7.33301 -26 11 -51.667 11 -77v-4c0 -94 -33 -154 -99 -180c-8 -2.66699 -21.333 -5.66699 -40 -9c13.333 -14 39 -24.667 77 -32
c25.333 -5.33301 47.666 -17.666 66.999 -36.999c17.333 -20.667 26.333 -43.667 27 -69c0 -48 -28 -75 -84 -81h-13c-45.333 0 -90.333 49 -135 147c-6.66699 -97.333 -28 -146 -64 -146c-23.333 0 -35 20.333 -35 61c0 7.33301 3 48 9 122
c0 37.333 -8.33301 82.333 -25 135c-16 50 -24 93.667 -24 131v7c0 76 30.333 128 91 156c22 6.66699 42 10 60 10zM510.002 584.998c-2.66699 -8.66699 -4 -16.335 -4 -23.002c0 -13.333 6.33301 -20.666 19 -21.999h1c20 0 33.333 13.667 40 41c1.33301 8 2 14.667 2 20
c0 14.667 -5.66699 23.334 -17 26.001h-4c-16.667 0 -29 -14 -37 -42z"></glyph>
    <glyph glyph-name="acute" unicode="&#xb4;" horiz-adv-x="400" d="M146 1610h8c156 -24.667 234 -97.334 234 -218.001v-19c0 -78 -41.667 -173.667 -125 -287c-40 -38.667 -84 -58 -132 -58c-78 1.33301 -117 24.333 -117 69v6c0 14 22 72.667 66 176c2 6.66699 3 14.334 3 23.001v7l-23 216c0 56.667 28.667 85 86 85z"></glyph>
    <glyph glyph-name="mu" unicode="&#xb5;" horiz-adv-x="927" d="M299 993c79.333 -63.333 119.002 -137.003 119.002 -221.003c0 -27.333 -4.66699 -60.333 -14 -99c-26.667 -84.667 -40 -130.334 -40 -137.001v-40c25.333 -98.667 72.666 -148 141.999 -148h28c43.333 0 68 25.333 74 76c0 60.667 -26.333 130.334 -79 209.001
c-49.333 112.667 -74 195.334 -74 248.001l4 21c26 76 76.333 114 151 114h7c93.333 0 166 -60.333 218 -181c52.667 -155.333 79 -290 79 -404v-25c0 -36.667 -4.66699 -76 -14 -118c-67.333 -192 -166.333 -288 -297 -288c-116 0 -207 63.333 -273 190
c-20 50 -31.667 76.333 -35 79c-52 -348.667 -126 -523 -222 -523h-12c-56 0 -87.667 31.667 -95 95v9c5.33301 143.333 40 280 104 410c27.333 62 42.666 121 45.999 177c0.666992 8 1 16 1 24c0 42.667 -6.33301 82.334 -19 119.001c-57.333 132.667 -86 219 -86 259
c3.33301 32.667 9.33301 58.334 18 77.001c42 72.667 97 109 165 109c37.333 0 72 -10.667 104 -32z"></glyph>
    <glyph glyph-name="questiondown" unicode="&#xbf;" horiz-adv-x="901" d="M113 -232c-67.333 84 -101 166.665 -101 247.998c12 102 56.667 153 134 153h13c35.333 0 81 -14 137 -42c102 -69.333 176 -104 222 -104c30 2.66699 45 15.667 45 39c0 31.333 -25 68.333 -75 111c-160.667 113.333 -241 216.333 -241 309v13
c0 80.667 50 126.334 150 137.001c25.333 0 49.333 -8.66699 72 -26c45.333 -21.333 68 -73.333 68 -156c0 -73.333 57.667 -152.666 173 -237.999c117.333 -74 176 -165.333 176 -274c0 -30 -4.33301 -60.667 -13 -92c-57.333 -169.333 -178 -254 -362 -254h-10
c-142.667 0 -272 58.667 -388 176zM332 684.998c-72 50.667 -108 102.666 -108 155.999c4.66699 21.333 7 33.333 7 36c22 50 67.333 75 136 75l49 -7c85.333 -29.333 128 -83.666 128 -162.999c-4.66699 -22 -7 -35 -7 -39c-18 -52 -57 -78 -117 -78h-17
c-22 0 -45.667 6.66699 -71 20z"></glyph>
    <glyph glyph-name="Agrave" unicode="&#xc0;" horiz-adv-x="1000" d="M394 1588c-17.333 30 -26 53.6689 -26 71.002c0 16 6.66699 27 20 33c12.667 4.66699 31 8.66699 55 12c4.66699 1.33301 11.667 2 21 2c34 0 59.333 -16 76 -48c3.33301 -5.33301 8.33301 -19.666 15 -42.999c12.667 -38.667 25 -71.334 37 -98.001
c4 -12.667 6 -25.334 6 -38.001c0 -26.667 -10.667 -44.334 -32 -53.001c-7.33301 -3.33301 -15 -5 -23 -5c-27.333 0 -52.333 16.333 -75 49c-18 26 -32.333 48.333 -43 67zM545 1410c70.667 0 136.334 -83 197.001 -249c14.667 -62 34 -174.333 58 -337
c38.667 -175.333 78 -291 118 -347c67.333 -84.667 101 -158 101 -220v-6c0 -108.667 -48 -185.334 -144 -230.001c-24.667 -10 -51 -15.333 -79 -16c-131.333 0 -221 69 -269 207c-14 44.667 -24.333 91 -31 139c-88 -233.333 -174.333 -352 -259 -356
c-82.667 0 -153.334 63.667 -212.001 191c-12 28.667 -20.333 65.334 -25 110.001c-0 98.667 44.333 187.334 133 266.001c66.667 69.333 120.667 223.666 162 462.999c74 256.667 157.333 385 250 385zM452 646.002c-0.666992 -5.33301 -1 -10.333 -1 -15
c0 -33.333 18.333 -53.666 55 -60.999c4 -0.666992 7.66699 -1 11 -1c35.333 0 62 36.333 80 109c0.666992 8 1 15.667 1 23c0 44.667 -17.667 70 -53 76c-4.66699 0.666992 -8.66699 1 -12 1c-35.333 0 -61.333 -32.333 -78 -97c-2 -18.667 -3 -30.334 -3 -35.001z"></glyph>
    <glyph glyph-name="Aacute" unicode="&#xc1;" horiz-adv-x="1000" d="M667 1537c-10.667 -18.667 -24.999 -41.002 -42.999 -67.002c-22.667 -32.667 -47.667 -49 -75 -49c-8 0 -15.667 1.66699 -23 5c-21.333 8.66699 -32 26.334 -32 53.001c0 12.667 2 25.334 6 38.001c12 26.667 24.333 59.334 37 98.001
c7.33301 23.333 12.333 37.666 15 42.999c16.667 32 42 48 76 48c9.33301 0 16.666 -0.666992 21.999 -2c24 -3.33301 42 -7.33301 54 -12c13.333 -6 20 -17 20 -33c0 -17.333 -8.66699 -41 -26 -71zM545.001 1410c70.667 0 136.334 -83 197.001 -249
c14.667 -62 34 -174.333 58 -337c38.667 -175.333 78 -291 118 -347c67.333 -84.667 101 -158 101 -220v-6c0 -108.667 -48 -185.334 -144 -230.001c-24.667 -10 -51 -15.333 -79 -16c-131.333 0 -221 69 -269 207c-14 44.667 -24.333 91 -31 139
c-88 -233.333 -174.333 -352 -259 -356c-82.667 0 -153.334 63.667 -212.001 191c-12 28.667 -20.333 65.334 -25 110.001c0 98.667 44.333 187.334 133 266.001c66.667 69.333 120.667 223.666 162 462.999c74 256.667 157.333 385 250 385zM452.001 645.998
c-0.666992 -5.33301 -1 -10.333 -1 -15c0 -33.333 18.333 -53.666 55 -60.999c4 -0.666992 7.66699 -1 11 -1c35.333 0 62 36.333 80 109c0.666992 8 1 15.667 1 23c0 44.667 -17.667 70 -53 76c-4.66699 0.666992 -8.66699 1 -12 1c-35.333 0 -61.333 -32.333 -78 -97
c-2 -18.667 -3 -30.334 -3 -35.001z"></glyph>
    <glyph glyph-name="Acircumflex" unicode="&#xc2;" horiz-adv-x="1000" d="M390 1478l0.000976562 2c0 52.667 52 130 156 232l3 3c47.333 -46 81.666 -83.667 102.999 -113c37.333 -52.667 56 -92.667 56 -120v-2c0 -25.333 -14.667 -43 -44 -53c-7.33301 -2 -11.666 -3 -12.999 -3c-34.667 0 -67.334 40 -98.001 120l-4 7l-9 -29
c-28.667 -71.333 -59 -107 -91 -107c-18 0 -35.667 11.667 -53 35c-4 10 -6 19.333 -6 28zM545.001 1410c70.667 0 136.334 -83 197.001 -249c14.667 -62 34 -174.333 58 -337c38.667 -175.333 78 -291 118 -347c67.333 -84.667 101 -158 101 -220v-6
c0 -108.667 -48 -185.334 -144 -230.001c-24.667 -10 -51 -15.333 -79 -16c-131.333 0 -221 69 -269 207c-14 44.667 -24.333 91 -31 139c-88 -233.333 -174.333 -352 -259 -356c-82.667 0 -153.334 63.667 -212.001 191c-12 28.667 -20.333 65.334 -25 110.001
c0 98.667 44.333 187.334 133 266.001c66.667 69.333 120.667 223.666 162 462.999c74 256.667 157.333 385 250 385zM452.001 646c-0.666992 -5.33301 -1 -10.333 -1 -15c0 -33.333 18.333 -53.666 55 -60.999c4 -0.666992 7.66699 -1 11 -1c35.333 0 62 36.333 80 109
c0.666992 8 1 15.667 1 23c0 44.667 -17.667 70 -53 76c-4.66699 0.666992 -8.66699 1 -12 1c-35.333 0 -61.333 -32.333 -78 -97c-2 -18.667 -3 -30.334 -3 -35.001z"></glyph>
    <glyph glyph-name="Atilde" unicode="&#xc3;" horiz-adv-x="1000" d="M674 1431c-4.66699 -0.666992 -9.33105 -1.00098 -13.998 -1.00098c-29.333 0 -59 13.333 -89 40c-35.333 39.333 -68 61.333 -98 66c-19.333 0 -34.333 -22 -45 -66c-8 -32 -26 -48 -54 -48c-36.667 0 -55 27 -55 81c0 32.667 13.667 71.334 41 116.001
c30 48.667 62 73 96 73c19.333 0 42.333 -11 69 -33l60 -52c10 -8 21.167 -14.667 33.5 -20s23.833 -8 34.5 -8c9.33301 1.33301 18 4 26 8c6.66699 3.33301 14 12.833 22 28.5s12.667 28.167 14 37.5c7.33301 37.333 24.666 56 51.999 56c19.333 0 34.666 -9 45.999 -27
c10 -14.667 15 -31.667 15 -51c0.666992 -9.33301 1 -18.333 1 -27c0 -38 -8.33301 -71.333 -25 -100c-22 -34 -53.667 -56 -95 -66zM545.003 1410c70.667 0 136.334 -83 197.001 -249c14.667 -62 34 -174.333 58 -337c38.667 -175.333 78 -291 118 -347
c67.333 -84.667 101 -158 101 -220v-6c0 -108.667 -48 -185.334 -144 -230.001c-24.667 -10 -51 -15.333 -79 -16c-131.333 0 -221 69 -269 207c-14 44.667 -24.333 91 -31 139c-88 -233.333 -174.333 -352 -259 -356c-82.667 0 -153.334 63.667 -212.001 191
c-12 28.667 -20.333 65.334 -25 110.001c0 98.667 44.333 187.334 133 266.001c66.667 69.333 120.667 223.666 162 462.999c74 256.667 157.333 385 250 385zM452.003 645.999c-0.666992 -5.33301 -1 -10.333 -1 -15c0 -33.333 18.333 -53.666 55 -60.999
c4 -0.666992 7.66699 -1 11 -1c35.333 0 62 36.333 80 109c0.666992 8 1 15.667 1 23c0 44.667 -17.667 70 -53 76c-4.66699 0.666992 -8.66699 1 -12 1c-35.333 0 -61.333 -32.333 -78 -97c-2 -18.667 -3 -30.334 -3 -35.001z"></glyph>
    <glyph glyph-name="Adieresis" unicode="&#xc4;" horiz-adv-x="1000" d="M200 1390c-56 44.667 -84 99.333 -84 164v10c0 32 9 61 27 87c28 32.667 65.667 49 113 49h9c20.667 0 45 -5.33301 73 -16c61.333 -27.333 92 -81 92 -161c0 -36 -5.66699 -68 -17 -96c-24 -50 -61 -75 -111 -75c-30.667 0 -64.667 12.667 -102 38zM697 1390
c-56 44.667 -84 99.333 -84 164v10c0 32 9 61 27 87c28 32.667 65.667 49 113 49h9c20.667 0 45 -5.33301 73 -16c61.333 -27.333 92 -81 92 -161c0 -36 -5.66699 -68 -17 -96c-24 -50 -61 -75 -111 -75c-30.667 0 -64.667 12.667 -102 38zM545 1410
c70.667 0 136.334 -83 197.001 -249c14.667 -62 34 -174.333 58 -337c38.667 -175.333 78 -291 118 -347c67.333 -84.667 101 -158 101 -220v-6c0 -108.667 -48 -185.334 -144 -230.001c-24.667 -10 -51 -15.333 -79 -16c-131.333 0 -221 69 -269 207
c-14 44.667 -24.333 91 -31 139c-88 -233.333 -174.333 -352 -259 -356c-82.667 0 -153.334 63.667 -212.001 191c-12 28.667 -20.333 65.334 -25 110.001c-0 98.667 44.333 187.334 133 266.001c66.667 69.333 120.667 223.666 162 462.999c74 256.667 157.333 385 250 385
zM452 645.998c-0.666992 -5.33301 -1 -10.333 -1 -15c0 -33.333 18.333 -53.666 55 -60.999c4 -0.666992 7.66699 -1 11 -1c35.333 0 62 36.333 80 109c0.666992 8 1 15.667 1 23c0 44.667 -17.667 70 -53 76c-4.66699 0.666992 -8.66699 1 -12 1
c-35.333 0 -61.333 -32.333 -78 -97c-2 -18.667 -3 -30.334 -3 -35.001z"></glyph>
    <glyph glyph-name="Aring" unicode="&#xc5;" horiz-adv-x="1000" d="M540 1693c52 0 88.667 -24.668 110 -74.001c8.66699 -21.333 13 -44.666 13 -69.999v-6c0 -57.333 -27.333 -94 -82 -110c-20 -4.66699 -36 -7 -48 -7c-40.667 0 -72.667 22.667 -96 68c-8.66699 20 -13 36.667 -13 50c0 50 16 91 48 123c23.333 17.333 46 26 68 26z
M504 1568v-2.00195c0 -34.667 14 -52 42 -52c2.66699 0 5.66699 0.333008 9 1c21.333 2.66699 32 16.334 32 41.001c0 4 -0.333008 8.33301 -1 13c-7.33301 28 -24 42 -50 42h-5c-14 -1.33301 -23 -15.666 -27 -42.999zM545 1410c70.667 0 136.334 -83 197.001 -249
c14.667 -62 34 -174.333 58 -337c38.667 -175.333 78 -291 118 -347c67.333 -84.667 101 -158 101 -220v-6c0 -108.667 -48 -185.334 -144 -230.001c-24.667 -10 -51 -15.333 -79 -16c-131.333 0 -221 69 -269 207c-14 44.667 -24.333 91 -31 139
c-88 -233.333 -174.333 -352 -259 -356c-82.667 0 -153.334 63.667 -212.001 191c-12 28.667 -20.333 65.334 -25 110.001c-0 98.667 44.333 187.334 133 266.001c66.667 69.333 120.667 223.666 162 462.999c74 256.667 157.333 385 250 385zM452 645.997
c-0.666992 -5.33301 -1 -10.333 -1 -15c0 -33.333 18.333 -53.666 55 -60.999c4 -0.666992 7.66699 -1 11 -1c35.333 0 62 36.333 80 109c0.666992 8 1 15.667 1 23c0 44.667 -17.667 70 -53 76c-4.66699 0.666992 -8.66699 1 -12 1c-35.333 0 -61.333 -32.333 -78 -97
c-2 -18.667 -3 -30.334 -3 -35.001z"></glyph>
    <glyph glyph-name="AE" unicode="&#xc6;" horiz-adv-x="1600" d="M522 646c-0.666992 -5.33301 -1 -10.333 -1 -15c0 -33.333 18.333 -53.666 55 -60.999c4 -0.666992 7.66699 -1 11 -1c35.333 0 62 36.333 80 109c0.666992 8 1 15.667 1 23c0 44.667 -17.667 70 -53 76c-4.66699 0.666992 -8.66699 1 -12 1
c-35.333 0 -61.333 -32.333 -78 -97c-2 -18.667 -3 -30.334 -3 -35.001zM806 5c-131.333 0 -209.998 67.334 -235.998 202.001c-12 56 -17 103 -15 141c-120.667 -231.333 -223.334 -349 -308.001 -353c-82.667 0 -153.334 63.667 -212.001 191
c-12 28.667 -20.333 65.334 -25 110.001c0 98.667 44.333 187.334 133 266.001c66.667 69.333 149 234.666 247 495.999c17.333 234.667 103.333 357 258 367c78 -4.66699 132.667 -14.834 164 -30.501s92.666 -15.5 183.999 0.5c46 8.66699 87.333 13 124 13h54
c156.667 0 268.334 -47 335.001 -141c13.333 -21.333 20 -47.333 20 -78v-9c-9.33301 -98 -56.333 -147 -141 -147c-14.667 0 -54.667 16.667 -120 50c-18 4.66699 -37 7 -57 7c-60.667 -6.66699 -91 -32.667 -91 -78v-36c4 -22.667 15.333 -34 34 -34h26
c12 0 52.333 6.66699 121 20c50.667 0 85.334 -26.667 104.001 -80c4.66699 -28 7 -47 7 -57c0 -63.333 -22.333 -106 -67 -128c-9.33301 -3.33301 -20 -5 -32 -5c-8 0 -16.667 0.666992 -26 2l-100 20h-27c-29.333 0 -50.333 -29 -63 -87v-6
c0 -36.667 17.667 -58.334 53 -65.001h27l105 20l121 19c4 0.666992 8.33301 1 13 1c61.333 0 109 -42.333 143 -127c16 -52 24 -96.667 24 -134c0 -150.667 -87.333 -254.667 -262 -312c-56.667 -15.333 -108 -23 -154 -23h-67c-64.667 0 -122.834 1 -174.501 3
s-91.5 2.66699 -119.5 2z"></glyph>
    <glyph glyph-name="Ccedilla" unicode="&#xc7;" horiz-adv-x="966" d="M429 0c-157.333 3.33301 -273.664 93.3311 -348.997 269.998c-28 92.667 -42 187 -42 283v65c0 298.667 106 533.334 318 704.001c84.667 58 169.667 87 255 87c139.333 0 235.666 -77.333 288.999 -232c19.333 -71.333 29 -137.666 29 -198.999
c-6 -170.667 -52 -280 -138 -328c-26.667 -10 -53.667 -16.333 -81 -19c-34 0 -73 11.167 -117 33.5s-74.667 33.5 -92 33.5c-50 0 -79 -44 -87 -132v-29c0 -82.667 27 -132 81 -148c8 -2 16.667 -3 26 -3c35.333 2 69.833 18.667 103.5 50s61.167 52.666 82.5 63.999
s53.666 17.333 96.999 18c58.667 0 101.334 -35.333 128.001 -106c4.66699 -20.667 7 -35.667 7 -45c0 -135.333 -106.333 -246 -319 -332c-14.667 -5.33301 -29 -10 -43 -14c13.333 -11.333 28 -23 44 -35c74.667 -47.333 112 -105.333 112 -174
c0 -19.333 -2.66699 -38.666 -8 -57.999c-36.667 -108 -113.334 -162 -230.001 -162h-7c-90.667 0 -172.667 37.333 -246 112c-42.667 53.333 -64 105.666 -64 156.999c7.33301 65.333 35.666 98 84.999 98h8c22.667 0 51.667 -9 87 -27c64.667 -44 111.667 -66 141 -66
c19.333 1.33301 29 9.33301 29 24c0 20.667 -16 44.334 -48 71.001c-18.667 13.333 -35.667 26.333 -51 39z"></glyph>
    <glyph glyph-name="Egrave" unicode="&#xc8;" d="M424 1408l53.998 0.000976562c156.667 0 268.334 -47 335.001 -141c13.333 -21.333 20 -47.333 20 -78v-9c-9.33301 -98 -56.333 -147 -141 -147c-14.667 0 -54.667 16.667 -120 50c-18 4.66699 -37 7 -57 7c-60.667 -6.66699 -91 -32.667 -91 -78v-36
c4 -22.667 15.333 -34 34 -34h26c12 0 52.333 6.66699 121 20c50.667 0 85.334 -26.667 104.001 -80c4.66699 -28 7 -47 7 -57c0 -63.333 -22.333 -106 -67 -128c-9.33301 -3.33301 -20 -5 -32 -5c-8 0 -16.667 0.666992 -26 2l-100 20h-27c-29.333 0 -50.333 -29 -63 -87
v-6c0 -36.667 17.667 -58.334 53 -65.001h27l105 20l121 19c4 0.666992 8.33301 1 13 1c61.333 0 109 -42.333 143 -127c16 -52 24 -96.667 24 -134c0 -150.667 -87.333 -254.667 -262 -312c-56.667 -15.333 -108 -23 -154 -23h-67c-111.333 0 -213 37 -305 111
c-62.667 60.667 -94 124.334 -94 191.001v27c0 59.333 24.667 187.666 74 384.999c2 21.333 3 41.333 3 60v44l-30 282v3c0 136 82.667 233.333 248 292c46 8.66699 87.333 13 124 13zM344.998 1588c-17.333 30 -26 53.6689 -26 71.002c0 16 6.66699 27 20 33
c12.667 4.66699 31 8.66699 55 12c4.66699 1.33301 11.667 2 21 2c34 0 59.333 -16 76 -48c3.33301 -5.33301 8.33301 -19.666 15 -42.999c12.667 -38.667 25 -71.334 37 -98.001c4 -12.667 6 -25.334 6 -38.001c0 -26.667 -10.667 -44.334 -32 -53.001
c-7.33301 -3.33301 -15 -5 -23 -5c-27.333 0 -52.333 16.333 -75 49c-18 26 -32.333 48.333 -43 67z"></glyph>
    <glyph glyph-name="Eacute" unicode="&#xc9;" d="M424 1408l53.998 0.000976562c156.667 0 268.334 -47 335.001 -141c13.333 -21.333 20 -47.333 20 -78v-9c-9.33301 -98 -56.333 -147 -141 -147c-14.667 0 -54.667 16.667 -120 50c-18 4.66699 -37 7 -57 7c-60.667 -6.66699 -91 -32.667 -91 -78v-36
c4 -22.667 15.333 -34 34 -34h26c12 0 52.333 6.66699 121 20c50.667 0 85.334 -26.667 104.001 -80c4.66699 -28 7 -47 7 -57c0 -63.333 -22.333 -106 -67 -128c-9.33301 -3.33301 -20 -5 -32 -5c-8 0 -16.667 0.666992 -26 2l-100 20h-27c-29.333 0 -50.333 -29 -63 -87
v-6c0 -36.667 17.667 -58.334 53 -65.001h27l105 20l121 19c4 0.666992 8.33301 1 13 1c61.333 0 109 -42.333 143 -127c16 -52 24 -96.667 24 -134c0 -150.667 -87.333 -254.667 -262 -312c-56.667 -15.333 -108 -23 -154 -23h-67c-111.333 0 -213 37 -305 111
c-62.667 60.667 -94 124.334 -94 191.001v27c0 59.333 24.667 187.666 74 384.999c2 21.333 3 41.333 3 60v44l-30 282v3c0 136 82.667 233.333 248 292c46 8.66699 87.333 13 124 13zM611.998 1537c-10.667 -18.667 -24.999 -41.002 -42.999 -67.002
c-22.667 -32.667 -47.667 -49 -75 -49c-8 0 -15.667 1.66699 -23 5c-21.333 8.66699 -32 26.334 -32 53.001c0 12.667 2 25.334 6 38.001c12 26.667 24.333 59.334 37 98.001c7.33301 23.333 12.333 37.666 15 42.999c16.667 32 42 48 76 48
c9.33301 0 16.666 -0.666992 21.999 -2c24 -3.33301 42 -7.33301 54 -12c13.333 -6 20 -17 20 -33c0 -17.333 -8.66699 -41 -26 -71z"></glyph>
    <glyph glyph-name="Ecircumflex" unicode="&#xca;" d="M424 1408l53.998 0.000976562c156.667 0 268.334 -47 335.001 -141c13.333 -21.333 20 -47.333 20 -78v-9c-9.33301 -98 -56.333 -147 -141 -147c-14.667 0 -54.667 16.667 -120 50c-18 4.66699 -37 7 -57 7c-60.667 -6.66699 -91 -32.667 -91 -78v-36
c4 -22.667 15.333 -34 34 -34h26c12 0 52.333 6.66699 121 20c50.667 0 85.334 -26.667 104.001 -80c4.66699 -28 7 -47 7 -57c0 -63.333 -22.333 -106 -67 -128c-9.33301 -3.33301 -20 -5 -32 -5c-8 0 -16.667 0.666992 -26 2l-100 20h-27c-29.333 0 -50.333 -29 -63 -87
v-6c0 -36.667 17.667 -58.334 53 -65.001h27l105 20l121 19c4 0.666992 8.33301 1 13 1c61.333 0 109 -42.333 143 -127c16 -52 24 -96.667 24 -134c0 -150.667 -87.333 -254.667 -262 -312c-56.667 -15.333 -108 -23 -154 -23h-67c-111.333 0 -213 37 -305 111
c-62.667 60.667 -94 124.334 -94 191.001v27c0 59.333 24.667 187.666 74 384.999c2 21.333 3 41.333 3 60v44l-30 282v3c0 136 82.667 233.333 248 292c46 8.66699 87.333 13 124 13zM328.998 1473l0.000976562 2c0 52.667 52 130 156 232l3 3
c47.333 -46 81.666 -83.667 102.999 -113c37.333 -52.667 56 -92.667 56 -120v-2c0 -25.333 -14.667 -43 -44 -53c-7.33301 -2 -11.666 -3 -12.999 -3c-34.667 0 -67.334 40 -98.001 120l-4 7l-9 -29c-28.667 -71.333 -59 -107 -91 -107c-18 0 -35.667 11.667 -53 35
c-4 10 -6 19.333 -6 28z"></glyph>
    <glyph glyph-name="Edieresis" unicode="&#xcb;" d="M424 1408l53.998 0.000976562c156.667 0 268.334 -47 335.001 -141c13.333 -21.333 20 -47.333 20 -78v-9c-9.33301 -98 -56.333 -147 -141 -147c-14.667 0 -54.667 16.667 -120 50c-18 4.66699 -37 7 -57 7c-60.667 -6.66699 -91 -32.667 -91 -78v-36
c4 -22.667 15.333 -34 34 -34h26c12 0 52.333 6.66699 121 20c50.667 0 85.334 -26.667 104.001 -80c4.66699 -28 7 -47 7 -57c0 -63.333 -22.333 -106 -67 -128c-9.33301 -3.33301 -20 -5 -32 -5c-8 0 -16.667 0.666992 -26 2l-100 20h-27c-29.333 0 -50.333 -29 -63 -87
v-6c0 -36.667 17.667 -58.334 53 -65.001h27l105 20l121 19c4 0.666992 8.33301 1 13 1c61.333 0 109 -42.333 143 -127c16 -52 24 -96.667 24 -134c0 -150.667 -87.333 -254.667 -262 -312c-56.667 -15.333 -108 -23 -154 -23h-67c-111.333 0 -213 37 -305 111
c-62.667 60.667 -94 124.334 -94 191.001v27c0 59.333 24.667 187.666 74 384.999c2 21.333 3 41.333 3 60v44l-30 282v3c0 136 82.667 233.333 248 292c46 8.66699 87.333 13 124 13zM102.998 1430c-48 38.667 -72 85.666 -72 140.999v9c0 27.333 7.66699 52.333 23 75
c24 28 56.667 42 98 42h7c18 0 39 -4.66699 63 -14c53.333 -23.333 80 -69.666 80 -138.999c0 -30.667 -5 -58 -15 -82c-20.667 -43.333 -52.667 -65 -96 -65c-26 0 -55.333 11 -88 33zM690.998 1429c-48.667 38.667 -72.999 86 -72.999 142v8c0 28 8 53 24 75
c24 28.667 56.333 43 97 43h8c17.333 0 38.333 -4.66699 63 -14c52.667 -24 79 -70.333 79 -139c0 -31.333 -5 -59 -15 -83c-20.667 -42.667 -52.334 -64 -95.001 -64c-26.667 0 -56 10.667 -88 32z"></glyph>
    <glyph glyph-name="Igrave" unicode="&#xcc;" horiz-adv-x="441" d="M270 1394c84.667 0 135.332 -86 151.999 -258v-65c0 -50.667 -18.667 -211.667 -56 -483l-6 -108c0 -12 7 -113.333 21 -304c0 -83.333 -35 -139 -105 -167c-15.333 -6 -33.666 -9 -54.999 -9c-56.667 -0 -105 34.333 -145 103c-8 18 -12 42 -12 72v7
c20.667 157.333 31 251.333 31 282c0 44 -21.667 168.333 -65 373c-6 56.667 -9 108.667 -9 156c0 212 68.667 342.667 206 392c14.667 5.33301 29 8.33301 43 9zM112.998 1588c-17.333 30 -26 53.6689 -26 71.002c0 16 6.66699 27 20 33c12.667 4.66699 31 8.66699 55 12
c4.66699 1.33301 11.667 2 21 2c34 0 59.333 -16 76 -48c3.33301 -5.33301 8.33301 -19.666 15 -42.999c12.667 -38.667 25 -71.334 37 -98.001c4 -12.667 6 -25.334 6 -38.001c0 -26.667 -10.667 -44.334 -32 -53.001c-7.33301 -3.33301 -15 -5 -23 -5
c-27.333 0 -52.333 16.333 -75 49c-18 26 -32.333 48.333 -43 67z"></glyph>
    <glyph glyph-name="Iacute" unicode="&#xcd;" horiz-adv-x="441" d="M270 1394c84.667 0 135.332 -86 151.999 -258v-65c0 -50.667 -18.667 -211.667 -56 -483l-6 -108c0 -12 7 -113.333 21 -304c0 -83.333 -35 -139 -105 -167c-15.333 -6 -33.666 -9 -54.999 -9c-56.667 -0 -105 34.333 -145 103c-8 18 -12 42 -12 72v7
c20.667 157.333 31 251.333 31 282c0 44 -21.667 168.333 -65 373c-6 56.667 -9 108.667 -9 156c0 212 68.667 342.667 206 392c14.667 5.33301 29 8.33301 43 9zM309.998 1537c-10.667 -18.667 -24.999 -41.002 -42.999 -67.002c-22.667 -32.667 -47.667 -49 -75 -49
c-8 0 -15.667 1.66699 -23 5c-21.333 8.66699 -32 26.334 -32 53.001c0 12.667 2 25.334 6 38.001c12 26.667 24.333 59.334 37 98.001c7.33301 23.333 12.333 37.666 15 42.999c16.667 32 42 48 76 48c9.33301 0 16.666 -0.666992 21.999 -2
c24 -3.33301 42 -7.33301 54 -12c13.333 -6 20 -17 20 -33c0 -17.333 -8.66699 -41 -26 -71z"></glyph>
    <glyph glyph-name="Icircumflex" unicode="&#xce;" horiz-adv-x="441" d="M270 1394c84.667 0 135.332 -86 151.999 -258v-65c0 -50.667 -18.667 -211.667 -56 -483l-6 -108c0 -12 7 -113.333 21 -304c0 -83.333 -35 -139 -105 -167c-15.333 -6 -33.666 -9 -54.999 -9c-56.667 -0 -105 34.333 -145 103c-8 18 -12 42 -12 72v7
c20.667 157.333 31 251.333 31 282c0 44 -21.667 168.333 -65 373c-6 56.667 -9 108.667 -9 156c0 212 68.667 342.667 206 392c14.667 5.33301 29 8.33301 43 9zM71.998 1473l0.000976562 2c0 52.667 52 130 156 232l3 3c47.333 -46 81.666 -83.667 102.999 -113
c37.333 -52.667 56 -92.667 56 -120v-2c0 -25.333 -14.667 -43 -44 -53c-7.33301 -2 -11.666 -3 -12.999 -3c-34.667 0 -67.334 40 -98.001 120l-4 7l-9 -29c-28.667 -71.333 -59 -107 -91 -107c-18 0 -35.667 11.667 -53 35c-4 10 -6 19.333 -6 28z"></glyph>
    <glyph glyph-name="Idieresis" unicode="&#xcf;" horiz-adv-x="441" d="M270 1394c84.667 0 135.332 -86 151.999 -258v-65c0 -50.667 -18.667 -211.667 -56 -483l-6 -108c0 -12 7 -113.333 21 -304c0 -83.333 -35 -139 -105 -167c-15.333 -6 -33.666 -9 -54.999 -9c-56.667 -0 -105 34.333 -145 103c-8 18 -12 42 -12 72v7
c20.667 157.333 31 251.333 31 282c0 44 -21.667 168.333 -65 373c-6 56.667 -9 108.667 -9 156c0 212 68.667 342.667 206 392c14.667 5.33301 29 8.33301 43 9zM-59.002 1430c-48 38.667 -72 85.666 -72 140.999v9c0 27.333 7.66699 52.333 23 75c24 28 56.667 42 98 42h7
c18 0 39 -4.66699 63 -14c53.333 -23.333 80 -69.666 80 -138.999c0 -30.667 -5 -58 -15 -82c-20.667 -43.333 -52.667 -65 -96 -65c-26 0 -55.333 11 -88 33zM377.998 1429c-48.667 38.667 -72.999 86 -72.999 142v8c0 28 8 53 24 75c24 28.667 56.333 43 97 43h8
c17.333 0 38.333 -4.66699 63 -14c52.667 -24 79 -70.333 79 -139c0 -31.333 -5 -59 -15 -83c-20.667 -42.667 -52.334 -64 -95.001 -64c-26.667 0 -56 10.667 -88 32z"></glyph>
    <glyph glyph-name="Ntilde" unicode="&#xd1;" horiz-adv-x="1083" d="M535 1431c-4.66699 -0.666992 -9.33105 -1.00098 -13.998 -1.00098c-29.333 0 -59 13.333 -89 40c-35.333 39.333 -68 61.333 -98 66c-19.333 0 -34.333 -22 -45 -66c-8 -32 -26 -48 -54 -48c-36.667 0 -55 27 -55 81c0 32.667 13.667 71.334 41 116.001
c30 48.667 62 73 96 73c19.333 0 42.333 -11 69 -33l60 -52c10 -8 21.167 -14.667 33.5 -20s23.833 -8 34.5 -8c9.33301 1.33301 18 4 26 8c6.66699 3.33301 14 12.833 22 28.5s12.667 28.167 14 37.5c7.33301 37.333 24.666 56 51.999 56c19.333 0 34.666 -9 45.999 -27
c10 -14.667 15 -31.667 15 -51c0.666992 -9.33301 1 -18.333 1 -27c0 -38 -8.33301 -71.333 -25 -100c-22 -34 -53.667 -56 -95 -66zM839.003 1501h27.998c98.667 -1.33301 170.334 -61.666 215.001 -180.999c5.33301 -25.333 9.33301 -54.333 12 -87v-2
c0 -114 -49.333 -224.667 -148 -332c-40 -58 -60 -126 -60 -204c0 -10 0.333008 -20.333 1 -31c0 -58 23.667 -145.333 71 -262c26.667 -64.667 40 -127 40 -187v-24c0 -99.333 -34.333 -160.333 -103 -183c-18.667 -5.33301 -34.667 -8 -48 -8h-12
c-120 -0 -261.667 148.333 -425 445c10.667 -74.667 16 -123.667 16 -147v-4c0 -169.333 -45.333 -254 -136 -254h-4c-111.333 0 -182.666 90 -213.999 270v20c0 48 21 136.667 63 266l4 24c0 23.333 -30.333 129.333 -91 318c-24 95.333 -36 168.333 -36 219
c0 106.667 37 177 111 211c14 5.33301 28.667 8 44 8c122.667 -5.33301 210 -95.666 262 -270.999l86 -276c16 -48.667 30 -83.334 42 -104.001c-37.333 162 -56 290 -56 384v4c0 141.333 61 256.666 183 345.999c39.333 28 91 42 155 42z"></glyph>
    <glyph glyph-name="Ograve" unicode="&#xd2;" horiz-adv-x="951" d="M466 1398c193.333 0 329.334 -127.999 408.001 -383.999c34 -115.333 51 -239 51 -371v-26c0 -301.333 -102.333 -495 -307 -581c-74 -24 -134 -36 -180 -36c-152.667 0 -272.334 119.333 -359.001 358c-32.667 104.667 -49 191.667 -49 261
c0 261.333 60.333 476.666 181 645.999c86.667 88.667 171.667 133 255 133zM400.001 1033c4.66699 -32 19.001 -48 43.001 -48c35.333 0 63.666 31.333 84.999 94c2 14 3 26 3 36v2c0 52 -15.667 82 -47 90h-6c-36 0 -62 -46.667 -78 -140v-34zM314.002 1588
c-17.333 30 -26 53.6689 -26 71.002c0 16 6.66699 27 20 33c12.667 4.66699 31 8.66699 55 12c4.66699 1.33301 11.667 2 21 2c34 0 59.333 -16 76 -48c3.33301 -5.33301 8.33301 -19.666 15 -42.999c12.667 -38.667 25 -71.334 37 -98.001c4 -12.667 6 -25.334 6 -38.001
c0 -26.667 -10.667 -44.334 -32 -53.001c-7.33301 -3.33301 -15 -5 -23 -5c-27.333 0 -52.333 16.333 -75 49c-18 26 -32.333 48.333 -43 67z"></glyph>
    <glyph glyph-name="Oacute" unicode="&#xd3;" horiz-adv-x="951" d="M466 1398c193.333 0 329.334 -127.999 408.001 -383.999c34 -115.333 51 -239 51 -371v-26c0 -301.333 -102.333 -495 -307 -581c-74 -24 -134 -36 -180 -36c-152.667 0 -272.334 119.333 -359.001 358c-32.667 104.667 -49 191.667 -49 261
c0 261.333 60.333 476.666 181 645.999c86.667 88.667 171.667 133 255 133zM400.001 1033c4.66699 -32 19.001 -48 43.001 -48c35.333 0 63.666 31.333 84.999 94c2 14 3 26 3 36v2c0 52 -15.667 82 -47 90h-6c-36 0 -62 -46.667 -78 -140v-34zM589.002 1537
c-10.667 -18.667 -24.999 -41.002 -42.999 -67.002c-22.667 -32.667 -47.667 -49 -75 -49c-8 0 -15.667 1.66699 -23 5c-21.333 8.66699 -32 26.334 -32 53.001c0 12.667 2 25.334 6 38.001c12 26.667 24.333 59.334 37 98.001c7.33301 23.333 12.333 37.666 15 42.999
c16.667 32 42 48 76 48c9.33301 0 16.666 -0.666992 21.999 -2c24 -3.33301 42 -7.33301 54 -12c13.333 -6 20 -17 20 -33c0 -17.333 -8.66699 -41 -26 -71z"></glyph>
    <glyph glyph-name="Ocircumflex" unicode="&#xd4;" horiz-adv-x="951" d="M466 1398c193.333 0 329.334 -127.999 408.001 -383.999c34 -115.333 51 -239 51 -371v-26c0 -301.333 -102.333 -495 -307 -581c-74 -24 -134 -36 -180 -36c-152.667 0 -272.334 119.333 -359.001 358c-32.667 104.667 -49 191.667 -49 261
c0 261.333 60.333 476.666 181 645.999c86.667 88.667 171.667 133 255 133zM400.001 1033c4.66699 -32 19.001 -48 43.001 -48c35.333 0 63.666 31.333 84.999 94c2 14 3 26 3 36v2c0 52 -15.667 82 -47 90h-6c-36 0 -62 -46.667 -78 -140v-34zM307.002 1473l0.000976562 2
c0 52.667 52 130 156 232l3 3c47.333 -46 81.666 -83.667 102.999 -113c37.333 -52.667 56 -92.667 56 -120v-2c0 -25.333 -14.667 -43 -44 -53c-7.33301 -2 -11.666 -3 -12.999 -3c-34.667 0 -67.334 40 -98.001 120l-4 7l-9 -29c-28.667 -71.333 -59 -107 -91 -107
c-18 0 -35.667 11.667 -53 35c-4 10 -6 19.333 -6 28z"></glyph>
    <glyph glyph-name="Otilde" unicode="&#xd5;" horiz-adv-x="951" d="M466 1398c193.333 0 329.334 -127.999 408.001 -383.999c34 -115.333 51 -239 51 -371v-26c0 -301.333 -102.333 -495 -307 -581c-74 -24 -134 -36 -180 -36c-152.667 0 -272.334 119.333 -359.001 358c-32.667 104.667 -49 191.667 -49 261
c0 261.333 60.333 476.666 181 645.999c86.667 88.667 171.667 133 255 133zM400.001 1033c4.66699 -32 19.001 -48 43.001 -48c35.333 0 63.666 31.333 84.999 94c2 14 3 26 3 36v2c0 52 -15.667 82 -47 90h-6c-36 0 -62 -46.667 -78 -140v-34zM581.002 1431
c-4.66699 -0.666992 -9.33105 -1.00098 -13.998 -1.00098c-29.333 0 -59 13.333 -89 40c-35.333 39.333 -68 61.333 -98 66c-19.333 0 -34.333 -22 -45 -66c-8 -32 -26 -48 -54 -48c-36.667 0 -55 27 -55 81c0 32.667 13.667 71.334 41 116.001c30 48.667 62 73 96 73
c19.333 0 42.333 -11 69 -33l60 -52c10 -8 21.167 -14.667 33.5 -20s23.833 -8 34.5 -8c9.33301 1.33301 18 4 26 8c6.66699 3.33301 14 12.833 22 28.5s12.667 28.167 14 37.5c7.33301 37.333 24.666 56 51.999 56c19.333 0 34.666 -9 45.999 -27
c10 -14.667 15 -31.667 15 -51c0.666992 -9.33301 1 -18.333 1 -27c0 -38 -8.33301 -71.333 -25 -100c-22 -34 -53.667 -56 -95 -66z"></glyph>
    <glyph glyph-name="Odieresis" unicode="&#xd6;" horiz-adv-x="951" d="M466 1398c193.333 0 329.334 -127.999 408.001 -383.999c34 -115.333 51 -239 51 -371v-26c0 -301.333 -102.333 -495 -307 -581c-74 -24 -134 -36 -180 -36c-152.667 0 -272.334 119.333 -359.001 358c-32.667 104.667 -49 191.667 -49 261
c0 261.333 60.333 476.666 181 645.999c86.667 88.667 171.667 133 255 133zM400.001 1033c4.66699 -32 19.001 -48 43.001 -48c35.333 0 63.666 31.333 84.999 94c2 14 3 26 3 36v2c0 52 -15.667 82 -47 90h-6c-36 0 -62 -46.667 -78 -140v-34zM103.002 1430
c-48 38.667 -72 85.666 -72 140.999v9c0 27.333 7.66699 52.333 23 75c24 28 56.667 42 98 42h7c18 0 39 -4.66699 63 -14c53.333 -23.333 80 -69.666 80 -138.999c0 -30.667 -5 -58 -15 -82c-20.667 -43.333 -52.667 -65 -96 -65c-26 0 -55.333 11 -88 33zM691.002 1429
c-48.667 38.667 -72.999 86 -72.999 142v8c0 28 8 53 24 75c24 28.667 56.333 43 97 43h8c17.333 0 38.333 -4.66699 63 -14c52.667 -24 79 -70.333 79 -139c0 -31.333 -5 -59 -15 -83c-20.667 -42.667 -52.334 -64 -95.001 -64c-26.667 0 -56 10.667 -88 32z"></glyph>
    <glyph glyph-name="multiply" unicode="&#xd7;" horiz-adv-x="981" d="M837 1033c42 0 77.668 -17.668 107.001 -53.001c12 -21.333 18 -46.666 18 -75.999v-9c0 -130 -84 -240.667 -252 -332c-50.667 -29.333 -82.667 -52.333 -96 -69v-7c6 -18 84 -63.333 234 -136c71.333 -54 107 -120 107 -198c0 -71.333 -44.333 -122 -133 -152
c-17.333 -2.66699 -29.333 -4 -36 -4h-7c-109.333 0 -208 99.667 -296 299c-8.66699 8.66699 -14 13 -16 13h-6c-12.667 -2 -47.667 -62.333 -105 -181c-52.667 -87.333 -115.667 -131 -189 -131h-7c-55.333 0 -93.333 29.667 -114 89c-4 16 -7 34 -9 54
c0 99.333 70 187.666 210 264.999c64 39.333 96 66 96 80s-40.333 42.333 -121 85c-84.667 64.667 -147 132 -187 202c-8.66699 15.333 -15.334 40 -20.001 74c0 52.667 34 104.667 102 156c11.333 8.66699 32.333 15.334 63 20.001c72 0 141.667 -64 209 -192
c44 -118.667 72.333 -178 85 -178c14 0 31 33.333 51 100c26.667 68 64.667 126.667 114 176c77.333 70 143.333 105 198 105z"></glyph>
    <glyph glyph-name="Oslash" unicode="&#xd8;" horiz-adv-x="951" d="M400 1033c4.66699 -32 19.001 -48 43.001 -48c35.333 0 63.666 31.333 84.999 94c2 14 3 26 3 36v2c0 52 -15.667 82 -47 90h-6c-36 0 -62 -46.667 -78 -140v-34zM114.001 272c-12 26.667 -23.666 55.334 -34.999 86.001c-32.667 104.667 -49 191.667 -49 261
c0 261.333 60.333 476.666 181 645.999c86.667 88.667 171.667 133 255 133c82 0 153.667 -23 215 -69c36 68 67.333 120.667 94 158c17.333 15.333 37.666 25.333 60.999 30h2c33.333 0 57.666 -15.333 72.999 -46l18 -46c1.33301 -4.66699 2 -9.66699 2 -15
c0 -52.667 -35 -143 -105 -271c18 -38 34 -79.667 48 -125c34 -115.333 51 -239 51 -371v-26c0 -301.333 -102.333 -495 -307 -581c-74 -24 -134 -36 -180 -36c-61.333 -0 -117.333 19.333 -168 58c-26.667 -46 -51.667 -80.333 -75 -103
c-20.667 -6.66699 -33.667 -10 -39 -10c-73.333 2 -115.666 40.333 -126.999 115c0 40 28.333 110.667 85 212z"></glyph>
    <glyph glyph-name="Ugrave" unicode="&#xd9;" horiz-adv-x="1274" d="M996 1403c93.333 0 168.667 -49.667 226 -149c12 -26 20.333 -61.333 25 -106c0 -54.667 -39.333 -172.667 -118 -354c-25.333 -82 -38 -157.333 -38 -226c0 -62.667 27.667 -129.334 83 -200.001c19.333 -52.667 29 -92 29 -118v-12c-10 -86.667 -53.333 -130 -130 -130
h-17c-131.333 0 -197 86.667 -197 260c-4.66699 -3.33301 -20.667 -39.333 -48 -108c-90 -173.333 -214.333 -260 -373 -260c-179.333 0 -315 131.333 -407 394c-12.667 57.333 -19 111.333 -19 162v34c0 156 36 340.333 108 553c71.333 165.333 171 248 299 248h9
c102 0 171 -52 207 -156l5 -29c0 -72 -33.667 -185.333 -101 -340c-72 -107.333 -108 -202.666 -108 -285.999c8 -69.333 41.667 -104 101 -104h38c95.333 0 160.333 67.667 195 203v55c0 8.66699 -18.333 71 -55 187c-12.667 53.333 -19 98.666 -19 135.999
c0 114.667 54.333 215.334 163 302.001c44 29.333 91.333 44 142 44zM531.001 1588c-17.333 30 -26 53.6689 -26 71.002c0 16 6.66699 27 20 33c12.667 4.66699 31 8.66699 55 12c4.66699 1.33301 11.667 2 21 2c34 0 59.333 -16 76 -48
c3.33301 -5.33301 8.33301 -19.666 15 -42.999c12.667 -38.667 25 -71.334 37 -98.001c4 -12.667 6 -25.334 6 -38.001c0 -26.667 -10.667 -44.334 -32 -53.001c-7.33301 -3.33301 -15 -5 -23 -5c-27.333 0 -52.333 16.333 -75 49c-18 26 -32.333 48.333 -43 67z"></glyph>
    <glyph glyph-name="Uacute" unicode="&#xda;" horiz-adv-x="1274" d="M996 1403c93.333 0 168.667 -49.667 226 -149c12 -26 20.333 -61.333 25 -106c0 -54.667 -39.333 -172.667 -118 -354c-25.333 -82 -38 -157.333 -38 -226c0 -62.667 27.667 -129.334 83 -200.001c19.333 -52.667 29 -92 29 -118v-12c-10 -86.667 -53.333 -130 -130 -130
h-17c-131.333 0 -197 86.667 -197 260c-4.66699 -3.33301 -20.667 -39.333 -48 -108c-90 -173.333 -214.333 -260 -373 -260c-179.333 0 -315 131.333 -407 394c-12.667 57.333 -19 111.333 -19 162v34c0 156 36 340.333 108 553c71.333 165.333 171 248 299 248h9
c102 0 171 -52 207 -156l5 -29c0 -72 -33.667 -185.333 -101 -340c-72 -107.333 -108 -202.666 -108 -285.999c8 -69.333 41.667 -104 101 -104h38c95.333 0 160.333 67.667 195 203v55c0 8.66699 -18.333 71 -55 187c-12.667 53.333 -19 98.666 -19 135.999
c0 114.667 54.333 215.334 163 302.001c44 29.333 91.333 44 142 44zM789.001 1537c-10.667 -18.667 -24.999 -41.002 -42.999 -67.002c-22.667 -32.667 -47.667 -49 -75 -49c-8 0 -15.667 1.66699 -23 5c-21.333 8.66699 -32 26.334 -32 53.001c0 12.667 2 25.334 6 38.001
c12 26.667 24.333 59.334 37 98.001c7.33301 23.333 12.333 37.666 15 42.999c16.667 32 42 48 76 48c9.33301 0 16.666 -0.666992 21.999 -2c24 -3.33301 42 -7.33301 54 -12c13.333 -6 20 -17 20 -33c0 -17.333 -8.66699 -41 -26 -71z"></glyph>
    <glyph glyph-name="Ucircumflex" unicode="&#xdb;" horiz-adv-x="1274" d="M996 1403c93.333 0 168.667 -49.667 226 -149c12 -26 20.333 -61.333 25 -106c0 -54.667 -39.333 -172.667 -118 -354c-25.333 -82 -38 -157.333 -38 -226c0 -62.667 27.667 -129.334 83 -200.001c19.333 -52.667 29 -92 29 -118v-12c-10 -86.667 -53.333 -130 -130 -130
h-17c-131.333 0 -197 86.667 -197 260c-4.66699 -3.33301 -20.667 -39.333 -48 -108c-90 -173.333 -214.333 -260 -373 -260c-179.333 0 -315 131.333 -407 394c-12.667 57.333 -19 111.333 -19 162v34c0 156 36 340.333 108 553c71.333 165.333 171 248 299 248h9
c102 0 171 -52 207 -156l5 -29c0 -72 -33.667 -185.333 -101 -340c-72 -107.333 -108 -202.666 -108 -285.999c8 -69.333 41.667 -104 101 -104h38c95.333 0 160.333 67.667 195 203v55c0 8.66699 -18.333 71 -55 187c-12.667 53.333 -19 98.666 -19 135.999
c0 114.667 54.333 215.334 163 302.001c44 29.333 91.333 44 142 44zM506.001 1473l0.000976562 2c0 52.667 52 130 156 232l3 3c47.333 -46 81.666 -83.667 102.999 -113c37.333 -52.667 56 -92.667 56 -120v-2c0 -25.333 -14.667 -43 -44 -53
c-7.33301 -2 -11.666 -3 -12.999 -3c-34.667 0 -67.334 40 -98.001 120l-4 7l-9 -29c-28.667 -71.333 -59 -107 -91 -107c-18 0 -35.667 11.667 -53 35c-4 10 -6 19.333 -6 28z"></glyph>
    <glyph glyph-name="Udieresis" unicode="&#xdc;" horiz-adv-x="1274" d="M996 1403c93.333 0 168.667 -49.667 226 -149c12 -26 20.333 -61.333 25 -106c0 -54.667 -39.333 -172.667 -118 -354c-25.333 -82 -38 -157.333 -38 -226c0 -62.667 27.667 -129.334 83 -200.001c19.333 -52.667 29 -92 29 -118v-12c-10 -86.667 -53.333 -130 -130 -130
h-17c-131.333 0 -197 86.667 -197 260c-4.66699 -3.33301 -20.667 -39.333 -48 -108c-90 -173.333 -214.333 -260 -373 -260c-179.333 0 -315 131.333 -407 394c-12.667 57.333 -19 111.333 -19 162v34c0 156 36 340.333 108 553c71.333 165.333 171 248 299 248h9
c102 0 171 -52 207 -156l5 -29c0 -72 -33.667 -185.333 -101 -340c-72 -107.333 -108 -202.666 -108 -285.999c8 -69.333 41.667 -104 101 -104h38c95.333 0 160.333 67.667 195 203v55c0 8.66699 -18.333 71 -55 187c-12.667 53.333 -19 98.666 -19 135.999
c0 114.667 54.333 215.334 163 302.001c44 29.333 91.333 44 142 44zM303.001 1441c-46 36.667 -69 81.667 -69 135v9c0 26 7.33301 50 22 72c23.333 26.667 54.666 40 93.999 40h7c17.333 0 37.333 -4.33301 60 -13c51.333 -22.667 77 -67.334 77 -134.001
c0 -29.333 -4.66699 -55.666 -14 -78.999c-20 -41.333 -50.667 -62 -92 -62c-25.333 0 -53.666 10.667 -84.999 32zM868.001 1440c-46.667 36.667 -70.001 82 -70.001 136v8c0 26.667 7.66699 50.667 23 72c22.667 27.333 53.667 41 93 41h7c16.667 0 37 -4.33301 61 -13
c50.667 -23.333 76 -68 76 -134c0 -30 -5 -56.667 -15 -80c-19.333 -40.667 -49.666 -61 -90.999 -61c-25.333 0 -53.333 10.333 -84 31z"></glyph>
    <glyph glyph-name="germandbls" unicode="&#xdf;" horiz-adv-x="1161" d="M380 896c0.666992 -5.33301 1.00098 -12 1.00098 -20c0 -50 -9.33301 -146 -28 -288l-6 -108c0 -12 6.66699 -113.333 20 -304c0 -83.333 -33.667 -139 -101 -167c-14.667 -6 -32.334 -9 -53.001 -9c-54 -0 -100.333 34.333 -139 103c-8 18 -12 42 -12 72v7
c20 157.333 30 251.333 30 282c0 44 -20.667 168.333 -62 373c-6 56.667 -9 108.667 -9 156c0 212 66 342.667 198 392c14 5.33301 27.667 8.33301 41 9c42 0 79.333 -1.66699 112 -5c6 -1.33301 12.667 -2 20 -2c33.333 0 82.666 6.66699 147.999 20
c46 8.66699 92.333 13 139 13h55c162 0 281.667 -72.667 359 -218c22 -53.333 33 -104.666 33 -153.999c0 -92 -27.333 -197 -82 -315c-4 -10.667 -6 -21.334 -6 -32.001v-4c0 -24 20.333 -77.667 61 -161c16.667 -40 25 -89.667 25 -149c0 -11.333 -0.333008 -23 -1 -35
c0 -106.667 -54.667 -205 -164 -295c-58.667 -38 -124 -57 -196 -57h-33c-113.333 0 -193.333 22.667 -240 68c-70 66 -105 141.667 -105 227v3c0 90.667 30 152 90 184c29.333 11.333 56 17 80 17c30 0 49.333 -9.33301 58 -28s23.334 -28 44.001 -28h3
c41.333 0 62 26.333 62 79c0 44.667 -12.667 67 -38 67c-4.66699 0.666992 -9.33398 1 -14.001 1c-20.667 0 -42.667 -6 -66 -18c-29.333 -15.333 -50.666 -23 -63.999 -23h-5c-77.333 0 -123 43.667 -137 131v13c0 79.333 32.667 134 98 164c16 6.66699 32.667 10 50 10h5
c42 -8 77.333 -12.333 106 -13c53.333 0 80 19 80 57v10c0 36.667 -20.667 59 -62 67h-18c-10 0 -43.333 -10.667 -100 -32c-31.333 -6 -59 -9 -83 -9h-12c-8.66699 1.33301 -16.667 2 -24 2c-38.667 0 -58 -15.333 -58 -46v-7z"></glyph>
    <glyph glyph-name="agrave" unicode="&#xe0;" horiz-adv-x="725" d="M380 1028c126.667 0 211.333 -59.332 254 -177.999c13.333 -42 20 -82.667 20 -122v-19c-2 -78 -29 -185 -81 -321v-23c1.33301 -22 29 -60.667 83 -116c30.667 -39.333 46 -73 46 -101v-9c0 -60.667 -32.333 -105.334 -97 -134.001c-16.667 -3.33301 -26.667 -5 -30 -5
c-52.667 0 -93.334 43.667 -122.001 131c-42.667 -78 -112.667 -117 -210 -117c-68 0 -117.667 43 -149 129c-6.66699 25.333 -10 46.333 -10 63v9c0 120 75.667 212.333 227 277c70.667 32.667 115.667 58 135 76c19.333 24 29 46.333 29 67v14c0 26 -16.333 39 -49 39
c-25.333 0 -75 -33 -149 -99c-32 -26 -68.333 -39 -109 -39h-3c-67.333 0 -114 35.333 -140 106c-8 28 -12 51 -12 69v19c0 96.667 54.667 176.667 164 240c76.667 29.333 144.334 44 203.001 44zM283.999 321.001c0 -32 15.667 -48 47 -48c44 3.33301 70 29.333 78 78v21
c-2 26 -16.333 39 -43 39h-8c-49.333 -13.333 -74 -43.333 -74 -90zM145.999 1330c-23.333 39.333 -35 70.666 -35 93.999c0 20.667 9 35 27 43c16 6.66699 40 12.334 72 17.001c6.66699 1.33301 16 2 28 2c45.333 0 79 -21.333 101 -64c4 -6.66699 10.667 -25.667 20 -57
c16.667 -50.667 33 -93.667 49 -129c5.33301 -16.667 8 -33.667 8 -51c0 -34.667 -14.333 -58 -43 -70c-9.33301 -4 -19.333 -6 -30 -6c-36 0 -69 21.667 -99 65c-24 34 -43 63.333 -57 88z"></glyph>
    <glyph glyph-name="aacute" unicode="&#xe1;" horiz-adv-x="725" d="M380 1028c126.667 0 211.333 -59.332 254 -177.999c13.333 -42 20 -82.667 20 -122v-19c-2 -78 -29 -185 -81 -321v-23c1.33301 -22 29 -60.667 83 -116c30.667 -39.333 46 -73 46 -101v-9c0 -60.667 -32.333 -105.334 -97 -134.001c-16.667 -3.33301 -26.667 -5 -30 -5
c-52.667 0 -93.334 43.667 -122.001 131c-42.667 -78 -112.667 -117 -210 -117c-68 0 -117.667 43 -149 129c-6.66699 25.333 -10 46.333 -10 63v9c0 120 75.667 212.333 227 277c70.667 32.667 115.667 58 135 76c19.333 24 29 46.333 29 67v14c0 26 -16.333 39 -49 39
c-25.333 0 -75 -33 -149 -99c-32 -26 -68.333 -39 -109 -39h-3c-67.333 0 -114 35.333 -140 106c-8 28 -12 51 -12 69v19c0 96.667 54.667 176.667 164 240c76.667 29.333 144.334 44 203.001 44zM283.999 321.001c0 -32 15.667 -48 47 -48c44 3.33301 70 29.333 78 78v21
c-2 26 -16.333 39 -43 39h-8c-49.333 -13.333 -74 -43.333 -74 -90zM501.999 1262c-14 -24.667 -33 -54 -57 -88c-30 -43.333 -63 -65 -99 -65c-10.667 0 -20.667 2 -30 6c-28.667 12 -43 35.333 -43 70c0 17.333 2.66699 34.333 8 51c16 35.333 32.333 78.333 49 129
c9.33301 31.333 16 50.333 20 57c22 42.667 55.667 64 101 64c12 0 21.333 -0.666992 28 -2c32 -4.66699 56 -10.334 72 -17.001c18 -8 27 -22.333 27 -43c0 -23.333 -11.667 -54.666 -35 -93.999z"></glyph>
    <glyph glyph-name="acircumflex" unicode="&#xe2;" horiz-adv-x="725" d="M380 1028c126.667 0 211.333 -59.332 254 -177.999c13.333 -42 20 -82.667 20 -122v-19c-2 -78 -29 -185 -81 -321v-23c1.33301 -22 29 -60.667 83 -116c30.667 -39.333 46 -73 46 -101v-9c0 -60.667 -32.333 -105.334 -97 -134.001c-16.667 -3.33301 -26.667 -5 -30 -5
c-52.667 0 -93.334 43.667 -122.001 131c-42.667 -78 -112.667 -117 -210 -117c-68 0 -117.667 43 -149 129c-6.66699 25.333 -10 46.333 -10 63v9c0 120 75.667 212.333 227 277c70.667 32.667 115.667 58 135 76c19.333 24 29 46.333 29 67v14c0 26 -16.333 39 -49 39
c-25.333 0 -75 -33 -149 -99c-32 -26 -68.333 -39 -109 -39h-3c-67.333 0 -114 35.333 -140 106c-8 28 -12 51 -12 69v19c0 96.667 54.667 176.667 164 240c76.667 29.333 144.334 44 203.001 44zM283.999 321.001c0 -32 15.667 -48 47 -48c44 3.33301 70 29.333 78 78v21
c-2 26 -16.333 39 -43 39h-8c-49.333 -13.333 -74 -43.333 -74 -90zM205.999 1172l0.000976562 2c0 52.667 52 130 156 232l3 3c47.333 -46 81.666 -83.667 102.999 -113c37.333 -52.667 56 -92.667 56 -120v-2c0 -25.333 -14.667 -43 -44 -53
c-7.33301 -2 -11.666 -3 -12.999 -3c-34.667 0 -67.334 40 -98.001 120l-4 7l-9 -29c-28.667 -71.333 -59 -107 -91 -107c-18 0 -35.667 11.667 -53 35c-4 10 -6 19.333 -6 28z"></glyph>
    <glyph glyph-name="atilde" unicode="&#xe3;" horiz-adv-x="725" d="M380 1028c126.667 0 211.333 -59.332 254 -177.999c13.333 -42 20 -82.667 20 -122v-19c-2 -78 -29 -185 -81 -321v-23c1.33301 -22 29 -60.667 83 -116c30.667 -39.333 46 -73 46 -101v-9c0 -60.667 -32.333 -105.334 -97 -134.001c-16.667 -3.33301 -26.667 -5 -30 -5
c-52.667 0 -93.334 43.667 -122.001 131c-42.667 -78 -112.667 -117 -210 -117c-68 0 -117.667 43 -149 129c-6.66699 25.333 -10 46.333 -10 63v9c0 120 75.667 212.333 227 277c70.667 32.667 115.667 58 135 76c19.333 24 29 46.333 29 67v14c0 26 -16.333 39 -49 39
c-25.333 0 -75 -33 -149 -99c-32 -26 -68.333 -39 -109 -39h-3c-67.333 0 -114 35.333 -140 106c-8 28 -12 51 -12 69v19c0 96.667 54.667 176.667 164 240c76.667 29.333 144.334 44 203.001 44zM283.999 321.001c0 -32 15.667 -48 47 -48c44 3.33301 70 29.333 78 78v21
c-2 26 -16.333 39 -43 39h-8c-49.333 -13.333 -74 -43.333 -74 -90zM463.999 1118c-4.66699 -0.666992 -9.33105 -1.00098 -13.998 -1.00098c-29.333 0 -59 13.333 -89 40c-35.333 39.333 -68 61.333 -98 66c-19.333 0 -34.333 -22 -45 -66c-8 -32 -26 -48 -54 -48
c-36.667 0 -55 27 -55 81c0 32.667 13.667 71.334 41 116.001c30 48.667 62 73 96 73c19.333 0 42.333 -11 69 -33l60 -52c10 -8 21.167 -14.667 33.5 -20s23.833 -8 34.5 -8c9.33301 1.33301 18 4 26 8c6.66699 3.33301 14 12.833 22 28.5s12.667 28.167 14 37.5
c7.33301 37.333 24.666 56 51.999 56c19.333 0 34.666 -9 45.999 -27c10 -14.667 15 -31.667 15 -51c0.666992 -9.33301 1 -18.333 1 -27c0 -38 -8.33301 -71.333 -25 -100c-22 -34 -53.667 -56 -95 -66z"></glyph>
    <glyph glyph-name="adieresis" unicode="&#xe4;" horiz-adv-x="725" d="M380 1028c126.667 0 211.333 -59.332 254 -177.999c13.333 -42 20 -82.667 20 -122v-19c-2 -78 -29 -185 -81 -321v-23c1.33301 -22 29 -60.667 83 -116c30.667 -39.333 46 -73 46 -101v-9c0 -60.667 -32.333 -105.334 -97 -134.001c-16.667 -3.33301 -26.667 -5 -30 -5
c-52.667 0 -93.334 43.667 -122.001 131c-42.667 -78 -112.667 -117 -210 -117c-68 0 -117.667 43 -149 129c-6.66699 25.333 -10 46.333 -10 63v9c0 120 75.667 212.333 227 277c70.667 32.667 115.667 58 135 76c19.333 24 29 46.333 29 67v14c0 26 -16.333 39 -49 39
c-25.333 0 -75 -33 -149 -99c-32 -26 -68.333 -39 -109 -39h-3c-67.333 0 -114 35.333 -140 106c-8 28 -12 51 -12 69v19c0 96.667 54.667 176.667 164 240c76.667 29.333 144.334 44 203.001 44zM283.999 321.001c0 -32 15.667 -48 47 -48c44 3.33301 70 29.333 78 78v21
c-2 26 -16.333 39 -43 39h-8c-49.333 -13.333 -74 -43.333 -74 -90zM30.999 1129c-46.667 37.333 -69.999 83.001 -69.999 137.001v8c0 26.667 7.33301 50.667 22 72c23.333 27.333 54.666 41 93.999 41h8c16.667 0 36.667 -4.33301 60 -13
c51.333 -22.667 77 -67.334 77 -134.001c0 -30 -4.66699 -56.667 -14 -80c-20 -41.333 -51 -62 -93 -62c-25.333 0 -53.333 10.333 -84 31zM596 1129c-46 37.333 -68.999 82.667 -68.999 136v9c0 26 7.33301 50 22 72c23.333 27.333 54.666 41 93.999 41h7
c17.333 0 37.666 -4.66699 60.999 -14c51.333 -22.667 77 -67 77 -133c0 -30 -5 -56.667 -15 -80c-20 -41.333 -50.667 -62 -92 -62c-25.333 0 -53.666 10.333 -84.999 31z"></glyph>
    <glyph glyph-name="aring" unicode="&#xe5;" horiz-adv-x="730" d="M353 1365c52 0 88.667 -24.668 110 -74.001c8.66699 -21.333 13 -44.666 13 -69.999v-6c0 -57.333 -27.333 -94 -82 -110c-20 -4.66699 -36 -7 -48 -7c-40.667 0 -72.667 22.667 -96 68c-8.66699 20 -13 36.667 -13 50c0 50 16 91 48 123c23.333 17.333 46 26 68 26z
M317 1240v-2.00195c0 -34.667 14 -52 42 -52c2.66699 0 5.66699 0.333008 9 1c21.333 2.66699 32 16.334 32 41.001c0 4 -0.333008 8.33301 -1 13c-7.33301 28 -24 42 -50 42h-5c-14 -1.33301 -23 -15.666 -27 -42.999zM380 1028c126.667 0 211.333 -59.332 254 -177.999
c13.333 -42 20 -82.667 20 -122v-19c-2 -78 -29 -185 -81 -321v-23c1.33301 -22 29 -60.667 83 -116c30.667 -39.333 46 -73 46 -101v-9c0 -60.667 -32.333 -105.334 -97 -134.001c-16.667 -3.33301 -26.667 -5 -30 -5c-52.667 0 -93.334 43.667 -122.001 131
c-42.667 -78 -112.667 -117 -210 -117c-68 0 -117.667 43 -149 129c-6.66699 25.333 -10 46.333 -10 63v9c0 120 75.667 212.333 227 277c70.667 32.667 115.667 58 135 76c19.333 24 29 46.333 29 67v14c0 26 -16.333 39 -49 39c-25.333 0 -75 -33 -149 -99
c-32 -26 -68.333 -39 -109 -39h-3c-67.333 0 -114 35.333 -140 106c-8 28 -12 51 -12 69v19c0 96.667 54.667 176.667 164 240c76.667 29.333 144.334 44 203.001 44zM283.999 320.998c0 -32 15.667 -48 47 -48c44 3.33301 70 29.333 78 78v21c-2 26 -16.333 39 -43 39h-8
c-49.333 -13.333 -74 -43.333 -74 -90z"></glyph>
    <glyph glyph-name="ae" unicode="&#xe6;" horiz-adv-x="1300" d="M284 321c0 -32 15.667 -48 47 -48c44 3.33301 70 29.333 78 78v21c-2 26 -16.333 39 -43 39h-8c-49.333 -13.333 -74 -43.333 -74 -90zM772 694c0 -61.333 33.999 -101.332 101.999 -119.999h34c54.667 0 91.334 34 110.001 102v39c0 37.333 -25.333 69.666 -76 96.999
c-18 5.33301 -33.667 8 -47 8c-60 0 -100.333 -32.333 -121 -97c-1.33301 -15.333 -2 -25 -2 -29zM688.999 78.001c-15.333 -30.667 -43.334 -54.998 -84.001 -72.998c-16.667 -3.33301 -26.667 -5 -30 -5c-52.667 0 -93.334 43.667 -122.001 131
c-42.667 -78 -112.667 -117 -210 -117c-68 0 -117.667 43 -149 129c-6.66699 25.333 -10 46.333 -10 63v9c0 120 75.667 212.333 227 277c70.667 32.667 115.667 58 135 76c19.333 24 29 46.333 29 67v14c0 26 -16.333 39 -49 39c-25.333 0 -75 -33 -149 -99
c-32 -26 -68.333 -39 -109 -39h-3c-67.333 0 -114 35.333 -140 106c-8 28 -12 51 -12 69v19c0 96.667 54.667 176.667 164 240c76.667 29.333 144.334 44 203.001 44c126.667 0 211.334 -59.333 254.001 -178c6 -18.667 10.667 -37 14 -55c32.667 46 74 88.333 124 127
c74 50.667 151.667 76 233 76c137.333 0 225.333 -60.333 264 -181c5.33301 -26.667 8 -52.667 8 -78c-1.33301 -138 -78 -242 -230 -312c-29.333 -10.667 -59 -16 -89 -16c-68.667 0 -152.667 25.333 -252 76c0 -82.667 24.667 -153.334 74 -212.001
c13.333 -10 27.333 -15.333 42 -16h10c46.667 0 116.667 32.333 210 97c42 24.667 79.333 37 112 37c58 0 97.333 -29.667 118 -89c5.33301 -22 8 -38.667 8 -50v-21c0 -94.667 -61 -164.334 -183 -209.001c-57.333 -16 -112.333 -24 -165 -24h-40
c-82 0 -149.667 26 -203 78z"></glyph>
    <glyph glyph-name="ccedilla" unicode="&#xe7;" horiz-adv-x="652" d="M311 3c-115.333 18.667 -202.667 128.331 -262 328.998c-16 67.333 -24 132.333 -24 195c0 164 50 300 150 408c64.667 64.667 135.334 97 212.001 97h4c78 0 140.667 -42 188 -126c39.333 -84 59 -144.667 59 -182c1.33301 -5.33301 2 -17 2 -35
c0 -73.333 -9.33301 -121.666 -28 -144.999c-29.333 -44 -62.666 -66 -99.999 -66c-45.333 0 -83.333 39.667 -114 119c-20.667 43.333 -46.667 65 -78 65h-16c-48.667 0 -78.667 -34 -90 -102c-2 -12.667 -3.33301 -28.667 -4 -48c0 -91.333 37.667 -137 113 -137
c30.667 0 72 10.667 124 32c19.333 4.66699 35.333 7 48 7c54.667 0 93.667 -35.667 117 -107c8 -34 12 -60.333 12 -79c0 -35.333 -24.667 -81 -74 -137c-34.667 -34.667 -71.334 -59.334 -110.001 -74.001c15.333 -16 34.666 -33 57.999 -51
c55.333 -35.333 83 -89 83 -161v-2c0 -32.667 -8 -59.667 -24 -81c-58 -64.667 -116.333 -97 -175 -97h-7c-16.667 0 -36.334 1.33301 -59.001 4c-164 20.667 -246 84.334 -246 191.001c0 9.33301 1.33301 21.333 4 36c26.667 73.333 66.334 110 119.001 110h4
c39.333 0 61.333 -23.333 66 -70c0 -8.66699 -1.66699 -32.667 -5 -72v-13l2 -11c20.667 -36.667 47.667 -55 81 -55c12.667 0 28.334 3.66699 47.001 11c30 20.667 45 47.667 45 81v4c0 24.667 -17 56.334 -51 95.001c-32.667 28.667 -56.334 51 -71.001 67z"></glyph>
    <glyph glyph-name="egrave" unicode="&#xe8;" horiz-adv-x="755" d="M222 1330c-23.333 39.333 -35 70.666 -35 93.999c0 20.667 9 35 27 43c16 6.66699 40 12.334 72 17.001c6.66699 1.33301 16 2 28 2c45.333 0 79 -21.333 101 -64c4 -6.66699 10.667 -25.667 20 -57c16.667 -50.667 33 -93.667 49 -129c5.33301 -16.667 8 -33.667 8 -51
c0 -34.667 -14.333 -58 -43 -70c-9.33301 -4 -19.333 -6 -30 -6c-36 0 -69 21.667 -99 65c-24 34 -43 63.333 -57 88zM464 998c137.333 0 225.333 -60.3311 264 -180.998c5.33301 -26.667 8 -52.667 8 -78c-1.33301 -138 -78 -242 -230 -312
c-29.333 -10.667 -59 -16 -89 -16c-68.667 0 -152.667 25.333 -252 76c0 -82.667 24.667 -153.334 74 -212.001c13.333 -10 27.333 -15.333 42 -16h10c46.667 0 116.667 32.333 210 97c42 24.667 79.333 37 112 37c58 0 97.333 -29.667 118 -89c5.33301 -22 8 -38.667 8 -50
v-21c0 -94.667 -61 -164.334 -183 -209.001c-57.333 -16 -112.333 -24 -165 -24h-40c-148 0 -249.333 84.667 -304 254c-20.667 72.667 -31 154.667 -31 246c0 171.333 71.667 312 215 422c74 50.667 151.667 76 233 76zM231 694.002
c0 -61.333 33.999 -101.332 101.999 -119.999h34c54.667 0 91.334 34 110.001 102v39c0 37.333 -25.333 69.666 -76 96.999c-18 5.33301 -33.667 8 -47 8c-60 0 -100.333 -32.333 -121 -97c-1.33301 -15.333 -2 -25 -2 -29z"></glyph>
    <glyph glyph-name="eacute" unicode="&#xe9;" horiz-adv-x="755" d="M561 1262c-14 -24.667 -33 -54 -57 -88c-30 -43.333 -63 -65 -99 -65c-10.667 0 -20.667 2 -30 6c-28.667 12 -43 35.333 -43 70c0 17.333 2.66699 34.333 8 51c16 35.333 32.333 78.333 49 129c9.33301 31.333 16 50.333 20 57c22 42.667 55.667 64 101 64
c12 0 21.333 -0.666992 28 -2c32 -4.66699 56 -10.334 72 -17.001c18 -8 27 -22.333 27 -43c0 -23.333 -11.667 -54.666 -35 -93.999zM464 998c137.333 0 225.333 -60.3311 264 -180.998c5.33301 -26.667 8 -52.667 8 -78c-1.33301 -138 -78 -242 -230 -312
c-29.333 -10.667 -59 -16 -89 -16c-68.667 0 -152.667 25.333 -252 76c0 -82.667 24.667 -153.334 74 -212.001c13.333 -10 27.333 -15.333 42 -16h10c46.667 0 116.667 32.333 210 97c42 24.667 79.333 37 112 37c58 0 97.333 -29.667 118 -89c5.33301 -22 8 -38.667 8 -50
v-21c0 -94.667 -61 -164.334 -183 -209.001c-57.333 -16 -112.333 -24 -165 -24h-40c-148 0 -249.333 84.667 -304 254c-20.667 72.667 -31 154.667 -31 246c0 171.333 71.667 312 215 422c74 50.667 151.667 76 233 76zM231 694.002
c0 -61.333 33.999 -101.332 101.999 -119.999h34c54.667 0 91.334 34 110.001 102v39c0 37.333 -25.333 69.666 -76 96.999c-18 5.33301 -33.667 8 -47 8c-60 0 -100.333 -32.333 -121 -97c-1.33301 -15.333 -2 -25 -2 -29z"></glyph>
    <glyph glyph-name="ecircumflex" unicode="&#xea;" horiz-adv-x="755" d="M242 1172l0.000976562 2c0 52.667 52 130 156 232l3 3c47.333 -46 81.666 -83.667 102.999 -113c37.333 -52.667 56 -92.667 56 -120v-2c0 -25.333 -14.667 -43 -44 -53c-7.33301 -2 -11.666 -3 -12.999 -3c-34.667 0 -67.334 40 -98.001 120l-4 7l-9 -29
c-28.667 -71.333 -59 -107 -91 -107c-18 0 -35.667 11.667 -53 35c-4 10 -6 19.333 -6 28zM464.001 998c137.333 0 225.333 -60.3311 264 -180.998c5.33301 -26.667 8 -52.667 8 -78c-1.33301 -138 -78 -242 -230 -312c-29.333 -10.667 -59 -16 -89 -16
c-68.667 0 -152.667 25.333 -252 76c0 -82.667 24.667 -153.334 74 -212.001c13.333 -10 27.333 -15.333 42 -16h10c46.667 0 116.667 32.333 210 97c42 24.667 79.333 37 112 37c58 0 97.333 -29.667 118 -89c5.33301 -22 8 -38.667 8 -50v-21
c0 -94.667 -61 -164.334 -183 -209.001c-57.333 -16 -112.333 -24 -165 -24h-40c-148 0 -249.333 84.667 -304 254c-20.667 72.667 -31 154.667 -31 246c0 171.333 71.667 312 215 422c74 50.667 151.667 76 233 76zM231.001 694.002
c0 -61.333 33.999 -101.332 101.999 -119.999h34c54.667 0 91.334 34 110.001 102v39c0 37.333 -25.333 69.666 -76 96.999c-18 5.33301 -33.667 8 -47 8c-60 0 -100.333 -32.333 -121 -97c-1.33301 -15.333 -2 -25 -2 -29z"></glyph>
    <glyph glyph-name="edieresis" unicode="&#xeb;" horiz-adv-x="755" d="M69 1129c-46.667 37.333 -69.999 83.001 -69.999 137.001v8c0 26.667 7.33301 50.667 22 72c23.333 27.333 54.666 41 93.999 41h8c16.667 0 36.667 -4.33301 60 -13c51.333 -22.667 77 -67.334 77 -134.001c0 -30 -4.66699 -56.667 -14 -80c-20 -41.333 -51 -62 -93 -62
c-25.333 0 -53.333 10.333 -84 31zM634.001 1129c-46 37.333 -68.999 82.667 -68.999 136v9c0 26 7.33301 50 22 72c23.333 27.333 54.666 41 93.999 41h7c17.333 0 37.666 -4.66699 60.999 -14c51.333 -22.667 77 -67 77 -133c0 -30 -5 -56.667 -15 -80
c-20 -41.333 -50.667 -62 -92 -62c-25.333 0 -53.666 10.333 -84.999 31zM464.002 998.002c137.333 0 225.333 -60.3311 264 -180.998c5.33301 -26.667 8 -52.667 8 -78c-1.33301 -138 -78 -242 -230 -312c-29.333 -10.667 -59 -16 -89 -16
c-68.667 0 -152.667 25.333 -252 76c0 -82.667 24.667 -153.334 74 -212.001c13.333 -10 27.333 -15.333 42 -16h10c46.667 0 116.667 32.333 210 97c42 24.667 79.333 37 112 37c58 0 97.333 -29.667 118 -89c5.33301 -22 8 -38.667 8 -50v-21
c0 -94.667 -61 -164.334 -183 -209.001c-57.333 -16 -112.333 -24 -165 -24h-40c-148 0 -249.333 84.667 -304 254c-20.667 72.667 -31 154.667 -31 246c0 171.333 71.667 312 215 422c74 50.667 151.667 76 233 76zM231.002 694.004
c0 -61.333 33.999 -101.332 101.999 -119.999h34c54.667 0 91.334 34 110.001 102v39c0 37.333 -25.333 69.666 -76 96.999c-18 5.33301 -33.667 8 -47 8c-60 0 -100.333 -32.333 -121 -97c-1.33301 -15.333 -2 -25 -2 -29z"></glyph>
    <glyph glyph-name="igrave" unicode="&#xec;" horiz-adv-x="484" d="M237 647c73.333 0 121.333 -85.335 144 -256.002c2.66699 -37.333 4 -69.666 4 -96.999v-15c0 -134 -26.667 -222.333 -80 -265c-14.667 -9.33301 -29.667 -14 -45 -14h-4c-52.667 0 -97.667 39.667 -135 119c-20 53.333 -30 107.333 -30 162v17
c0 184.667 32 297.334 96 338.001c18 7.33301 34.667 11 50 11zM44 1052c-23.333 39.333 -35 70.666 -35 93.999c0 20.667 9 35 27 43c16 6.66699 40 12.334 72 17.001c6.66699 1.33301 16 2 28 2c45.333 0 79 -21.333 101 -64c4 -6.66699 10.667 -25.667 20 -57
c16.667 -50.667 33 -93.667 49 -129c5.33301 -16.667 8 -33.667 8 -51c0 -34.667 -14.333 -58 -43 -70c-9.33301 -4 -19.333 -6 -30 -6c-36 0 -69 21.667 -99 65c-24 34 -43 63.333 -57 88z"></glyph>
    <glyph glyph-name="iacute" unicode="&#xed;" horiz-adv-x="484" d="M237 647c73.333 0 121.333 -85.335 144 -256.002c2.66699 -37.333 4 -69.666 4 -96.999v-15c0 -134 -26.667 -222.333 -80 -265c-14.667 -9.33301 -29.667 -14 -45 -14h-4c-52.667 0 -97.667 39.667 -135 119c-20 53.333 -30 107.333 -30 162v17
c0 184.667 32 297.334 96 338.001c18 7.33301 34.667 11 50 11zM389 983.998c-14 -24.667 -33 -54 -57 -88c-30 -43.333 -63 -65 -99 -65c-10.667 0 -20.667 2 -30 6c-28.667 12 -43 35.333 -43 70c0 17.333 2.66699 34.333 8 51c16 35.333 32.333 78.333 49 129
c9.33301 31.333 16 50.333 20 57c22 42.667 55.667 64 101 64c12 0 21.333 -0.666992 28 -2c32 -4.66699 56 -10.334 72 -17.001c18 -8 27 -22.333 27 -43c0 -23.333 -11.667 -54.666 -35 -93.999z"></glyph>
    <glyph glyph-name="icircumflex" unicode="&#xee;" horiz-adv-x="484" d="M237 647c73.333 0 121.333 -85.335 144 -256.002c2.66699 -37.333 4 -69.666 4 -96.999v-15c0 -134 -26.667 -222.333 -80 -265c-14.667 -9.33301 -29.667 -14 -45 -14h-4c-52.667 0 -97.667 39.667 -135 119c-20 53.333 -30 107.333 -30 162v17
c0 184.667 32 297.334 96 338.001c18 7.33301 34.667 11 50 11zM50 858.998l0.000976562 3.00098c0 57.333 57 141.666 171 252.999l4 4c51.333 -50.667 88.666 -92 111.999 -124c41.333 -57.333 62 -101.333 62 -132v-1c-0.666992 -28 -17 -47.667 -49 -59
c-7.33301 -2 -12 -3 -14 -3c-38 0 -73.667 43.667 -107 131l-4 8l-11 -32c-31.333 -78 -64.333 -117 -99 -117c-20 0 -39.333 13 -58 39c-4.66699 10.667 -7 20.667 -7 30z"></glyph>
    <glyph glyph-name="idieresis" unicode="&#xef;" horiz-adv-x="484" d="M237 647c73.333 0 121.333 -85.335 144 -256.002c2.66699 -37.333 4 -69.666 4 -96.999v-15c0 -134 -26.667 -222.333 -80 -265c-14.667 -9.33301 -29.667 -14 -45 -14h-4c-52.667 0 -97.667 39.667 -135 119c-20 53.333 -30 107.333 -30 162v17
c0 184.667 32 297.334 96 338.001c18 7.33301 34.667 11 50 11zM-35 838.998c-46.667 37.333 -69.999 83.001 -69.999 137.001v8c0 26.667 7.33301 50.667 22 72c23.333 27.333 54.666 41 93.999 41h8c16.667 0 36.667 -4.33301 60 -13
c51.333 -22.667 77 -67.334 77 -134.001c0 -30 -4.66699 -56.667 -14 -80c-20 -41.333 -51 -62 -93 -62c-25.333 0 -53.333 10.333 -84 31zM377.001 838.999c-46 37.333 -68.999 82.667 -68.999 136v9c0 26 7.33301 50 22 72c23.333 27.333 54.666 41 93.999 41h7
c17.333 0 37.666 -4.66699 60.999 -14c51.333 -22.667 77 -67 77 -133c0 -30 -5 -56.667 -15 -80c-20 -41.333 -50.667 -62 -92 -62c-25.333 0 -53.666 10.333 -84.999 31z"></glyph>
    <glyph glyph-name="ntilde" unicode="&#xf1;" horiz-adv-x="827" d="M108 1044h3c58 0 97.333 -49.333 118 -148h5c67.333 88.667 141 133 221 133h12c109.333 0 202.333 -82 279 -246c32.667 -96.667 49 -209 49 -337c0 -234.667 -72.333 -379.334 -217 -434.001c-24 -6.66699 -44.333 -10 -61 -10h-3c-66.667 0 -112.334 37 -137.001 111
c-3.33301 14 -5.33301 29.667 -6 47c2 62.667 40 154.334 114 275.001c14.667 34 22 68 22 102c0 103.333 -41 155 -123 155c-61.333 0 -102.333 -24 -123 -72c-19.333 -36.667 -29 -73.334 -29 -110.001c0 -24.667 19.333 -83.667 58 -177c13.333 -47.333 20 -97 20 -149
c0 -122.667 -52.333 -184 -157 -184h-3c-65.333 0 -108.666 32.667 -129.999 98c-6.66699 26 -10 50.667 -10 74v23c0 17.333 22.333 92 67 224c4 16.667 6 30.334 6 41.001c0 36 -25.333 145 -76 327c-3.33301 22 -5.66602 43.667 -6.99902 65
c3.33301 102 29.666 164.333 78.999 187c14 3.33301 23.667 5 29 5zM502 1118c-4.66699 -0.666992 -9.33105 -1.00098 -13.998 -1.00098c-29.333 0 -59 13.333 -89 40c-35.333 39.333 -68 61.333 -98 66c-19.333 0 -34.333 -22 -45 -66c-8 -32 -26 -48 -54 -48
c-36.667 0 -55 27 -55 81c0 32.667 13.667 71.334 41 116.001c30 48.667 62 73 96 73c19.333 0 42.333 -11 69 -33l60 -52c10 -8 21.167 -14.667 33.5 -20s23.833 -8 34.5 -8c9.33301 1.33301 18 4 26 8c6.66699 3.33301 14 12.833 22 28.5s12.667 28.167 14 37.5
c7.33301 37.333 24.666 56 51.999 56c19.333 0 34.666 -9 45.999 -27c10 -14.667 15 -31.667 15 -51c0.666992 -9.33301 1 -18.333 1 -27c0 -38 -8.33301 -71.333 -25 -100c-22 -34 -53.667 -56 -95 -66z"></glyph>
    <glyph glyph-name="ograve" unicode="&#xf2;" horiz-adv-x="829" d="M221 1330c-23.333 39.333 -35 70.666 -35 93.999c0 20.667 9 35 27 43c16 6.66699 40 12.334 72 17.001c6.66699 1.33301 16 2 28 2c45.333 0 79 -21.333 101 -64c4 -6.66699 10.667 -25.667 20 -57c16.667 -50.667 33 -93.667 49 -129c5.33301 -16.667 8 -33.667 8 -51
c0 -34.667 -14.333 -58 -43 -70c-9.33301 -4 -19.333 -6 -30 -6c-36 0 -69 21.667 -99 65c-24 34 -43 63.333 -57 88zM452 995c105.333 0 200.001 -65 284.001 -195c44.667 -92 67 -184.667 67 -278v-43c0 -161.333 -58.667 -295 -176 -401
c-62.667 -52 -131.667 -78 -207 -78h-36c-172 0 -288.333 86.667 -349 260c-16 64.667 -24 124 -24 178c0 194 74.667 356.333 224 487c57.333 46.667 129.666 70 216.999 70zM337.001 633l19 -1.00098c42 8 75.333 39.667 100 95c6 14.667 9 31.334 9 50.001
c-1.33301 38 -16.333 58.333 -45 61h-5c-44 -2.66699 -78.667 -39.667 -104 -111c-5.33301 -14 -8 -27.333 -8 -40c0 -6.66699 1 -13 3 -19c4 -18 14.333 -29.667 31 -35z"></glyph>
    <glyph glyph-name="oacute" unicode="&#xf3;" horiz-adv-x="829" d="M560 1262c-14 -24.667 -33 -54 -57 -88c-30 -43.333 -63 -65 -99 -65c-10.667 0 -20.667 2 -30 6c-28.667 12 -43 35.333 -43 70c0 17.333 2.66699 34.333 8 51c16 35.333 32.333 78.333 49 129c9.33301 31.333 16 50.333 20 57c22 42.667 55.667 64 101 64
c12 0 21.333 -0.666992 28 -2c32 -4.66699 56 -10.334 72 -17.001c18 -8 27 -22.333 27 -43c0 -23.333 -11.667 -54.666 -35 -93.999zM452 995c105.333 0 200.001 -65 284.001 -195c44.667 -92 67 -184.667 67 -278v-43c0 -161.333 -58.667 -295 -176 -401
c-62.667 -52 -131.667 -78 -207 -78h-36c-172 0 -288.333 86.667 -349 260c-16 64.667 -24 124 -24 178c0 194 74.667 356.333 224 487c57.333 46.667 129.666 70 216.999 70zM337.001 633l19 -1.00098c42 8 75.333 39.667 100 95c6 14.667 9 31.334 9 50.001
c-1.33301 38 -16.333 58.333 -45 61h-5c-44 -2.66699 -78.667 -39.667 -104 -111c-5.33301 -14 -8 -27.333 -8 -40c0 -6.66699 1 -13 3 -19c4 -18 14.333 -29.667 31 -35z"></glyph>
    <glyph glyph-name="ocircumflex" unicode="&#xf4;" horiz-adv-x="829" d="M241 1172l0.000976562 2c0 52.667 52 130 156 232l3 3c47.333 -46 81.666 -83.667 102.999 -113c37.333 -52.667 56 -92.667 56 -120v-2c0 -25.333 -14.667 -43 -44 -53c-7.33301 -2 -11.666 -3 -12.999 -3c-34.667 0 -67.334 40 -98.001 120l-4 7l-9 -29
c-28.667 -71.333 -59 -107 -91 -107c-18 0 -35.667 11.667 -53 35c-4 10 -6 19.333 -6 28zM452.001 995c105.333 0 200.001 -65 284.001 -195c44.667 -92 67 -184.667 67 -278v-43c0 -161.333 -58.667 -295 -176 -401c-62.667 -52 -131.667 -78 -207 -78h-36
c-172 0 -288.333 86.667 -349 260c-16 64.667 -24 124 -24 178c0 194 74.667 356.333 224 487c57.333 46.667 129.666 70 216.999 70zM337.002 633l19 -1.00098c42 8 75.333 39.667 100 95c6 14.667 9 31.334 9 50.001c-1.33301 38 -16.333 58.333 -45 61h-5
c-44 -2.66699 -78.667 -39.667 -104 -111c-5.33301 -14 -8 -27.333 -8 -40c0 -6.66699 1 -13 3 -19c4 -18 14.333 -29.667 31 -35z"></glyph>
    <glyph glyph-name="otilde" unicode="&#xf5;" horiz-adv-x="829" d="M502 1118c-4.66699 -0.666992 -9.33105 -1.00098 -13.998 -1.00098c-29.333 0 -59 13.333 -89 40c-35.333 39.333 -68 61.333 -98 66c-19.333 0 -34.333 -22 -45 -66c-8 -32 -26 -48 -54 -48c-36.667 0 -55 27 -55 81c0 32.667 13.667 71.334 41 116.001
c30 48.667 62 73 96 73c19.333 0 42.333 -11 69 -33l60 -52c10 -8 21.167 -14.667 33.5 -20s23.833 -8 34.5 -8c9.33301 1.33301 18 4 26 8c6.66699 3.33301 14 12.833 22 28.5s12.667 28.167 14 37.5c7.33301 37.333 24.666 56 51.999 56c19.333 0 34.666 -9 45.999 -27
c10 -14.667 15 -31.667 15 -51c0.666992 -9.33301 1 -18.333 1 -27c0 -38 -8.33301 -71.333 -25 -100c-22 -34 -53.667 -56 -95 -66zM452.003 994.999c105.333 0 200.001 -65 284.001 -195c44.667 -92 67 -184.667 67 -278v-43c0 -161.333 -58.667 -295 -176 -401
c-62.667 -52 -131.667 -78 -207 -78h-36c-172 0 -288.333 86.667 -349 260c-16 64.667 -24 124 -24 178c0 194 74.667 356.333 224 487c57.333 46.667 129.666 70 216.999 70zM337.004 632.999l19 -1.00098c42 8 75.333 39.667 100 95c6 14.667 9 31.334 9 50.001
c-1.33301 38 -16.333 58.333 -45 61h-5c-44 -2.66699 -78.667 -39.667 -104 -111c-5.33301 -14 -8 -27.333 -8 -40c0 -6.66699 1 -13 3 -19c4 -18 14.333 -29.667 31 -35z"></glyph>
    <glyph glyph-name="odieresis" unicode="&#xf6;" horiz-adv-x="829" d="M68 1129c-46.667 37.333 -69.999 83.001 -69.999 137.001v8c0 26.667 7.33301 50.667 22 72c23.333 27.333 54.666 41 93.999 41h8c16.667 0 36.667 -4.33301 60 -13c51.333 -22.667 77 -67.334 77 -134.001c0 -30 -4.66699 -56.667 -14 -80c-20 -41.333 -51 -62 -93 -62
c-25.333 0 -53.333 10.333 -84 31zM633.001 1129c-46 37.333 -68.999 82.667 -68.999 136v9c0 26 7.33301 50 22 72c23.333 27.333 54.666 41 93.999 41h7c17.333 0 37.666 -4.66699 60.999 -14c51.333 -22.667 77 -67 77 -133c0 -30 -5 -56.667 -15 -80
c-20 -41.333 -50.667 -62 -92 -62c-25.333 0 -53.666 10.333 -84.999 31zM452.002 995.002c105.333 0 200.001 -65 284.001 -195c44.667 -92 67 -184.667 67 -278v-43c0 -161.333 -58.667 -295 -176 -401c-62.667 -52 -131.667 -78 -207 -78h-36
c-172 0 -288.333 86.667 -349 260c-16 64.667 -24 124 -24 178c0 194 74.667 356.333 224 487c57.333 46.667 129.666 70 216.999 70zM337.003 633.002l19 -1.00098c42 8 75.333 39.667 100 95c6 14.667 9 31.334 9 50.001c-1.33301 38 -16.333 58.333 -45 61h-5
c-44 -2.66699 -78.667 -39.667 -104 -111c-5.33301 -14 -8 -27.333 -8 -40c0 -6.66699 1 -13 3 -19c4 -18 14.333 -29.667 31 -35z"></glyph>
    <glyph glyph-name="divide" unicode="&#xf7;" horiz-adv-x="1099" d="M480 38c-56 44.667 -84.002 99.333 -84.002 164v10c0 32 9 61 27 87c28 32.667 65.667 49 113 49h9c20.667 0 45.334 -5.33301 74.001 -16c60.667 -27.333 91 -81 91 -161c0 -36 -5.66699 -68 -17 -96c-24 -50 -60.667 -75 -110 -75
c-31.333 0 -65.666 12.667 -102.999 38zM479.998 905.999c-56 44.667 -84 99.333 -84 164v10c0 32 9 61 27 87c28 32.667 65.667 49 113 49h9c20.667 0 45 -5.33301 73 -16c61.333 -27.333 92 -81 92 -161c0 -36 -5.66699 -68 -17 -96c-24 -50 -61 -75 -111 -75
c-30.667 0 -64.667 12.667 -102 38zM1073 580.998c0 -54 -75.001 -99.668 -225.001 -137.001c-87.333 -21.333 -175.333 -32 -264 -32h-51c-153.333 0 -303.666 35 -450.999 105c-43.333 32 -65 61.333 -65 88c0 43.333 47.333 84.333 142 123c114 42.667 235.667 64 365 64
h65c176.667 0 323.667 -42 441 -126c28.667 -29.333 43 -57.666 43 -84.999z"></glyph>
    <glyph glyph-name="oslash" unicode="&#xf8;" horiz-adv-x="829" d="M447 754c-44.667 -12.667 -84.334 -60.666 -119.001 -143.999c-5.33301 -24.667 -8 -45 -8 -61c0 -10.667 0.666992 -20.667 2 -30c50.667 87.333 92.334 165.666 125.001 234.999zM565 644.001c-43.333 -73.333 -80.666 -142.668 -111.999 -208.001
c37.333 17.333 70.666 61 99.999 131c7.33301 24.667 11.333 50.334 12 77.001zM94 140.999c-14.667 18.667 -28.6689 39.332 -42.002 61.999c-34.667 79.333 -52 163.333 -52 252c0 232 110 412.333 330 541c52.667 25.333 102.334 38 149.001 38h8
c28 0 55.667 -3.66699 83 -11c50 100.667 91.333 174 124 220c15.333 14 33.333 23 54 27h2c29.333 0 51 -13.667 65 -41l16 -41c0.666992 -4 1 -8.33301 1 -13c0 -49.333 -34 -135.666 -102 -258.999c54 -75.333 81 -167.333 81 -276c0 -133.333 -43 -275 -129 -425
c-96 -143.333 -207.333 -215 -334 -215h-2c-27.333 0 -53.666 4 -78.999 12c-32 -59.333 -61.333 -102 -88 -128c-18 -6 -29.333 -9 -34 -9c-65.333 2 -103 36 -113 102c0 32 20.667 86.667 62 164z"></glyph>
    <glyph glyph-name="ugrave" unicode="&#xf9;" horiz-adv-x="927" d="M731 1025c68 0 123.001 -36.3301 165.001 -108.997c8.66699 -18.667 14.667 -44.334 18 -77.001c0 -40 -28.667 -126.333 -86 -259c-18.667 -60 -28 -115 -28 -165c0 -46 20.333 -94.667 61 -146c14 -38.667 21 -67.334 21 -86.001v-9c-7.33301 -63.333 -39 -95 -95 -95
h-12c-96 0 -144 63.333 -144 190c-3.33301 -2.66699 -15 -29 -35 -79c-66 -126.667 -157 -190 -273 -190c-130.667 0 -229.667 96 -297 288c-9.33301 42 -14 81.333 -14 118v25c0 114 26.333 248.667 79 404c52 120.667 124.667 181 218 181h7c74.667 0 125 -38 151 -114
l4 -21c0 -52.667 -24.667 -135.334 -74 -248.001c-52.667 -78.667 -79 -148.334 -79 -209.001c6 -50.667 30.667 -76 74 -76h28c69.333 0 116.666 49.333 141.999 148v40c0 6.66699 -13.333 52.334 -40 137.001c-9.33301 38.667 -14 71.667 -14 99
c0 84 39.667 157.667 119 221c32 21.333 66.667 32 104 32zM316.001 1330c-23.333 39.333 -35 70.666 -35 93.999c0 20.667 9 35 27 43c16 6.66699 40 12.334 72 17.001c6.66699 1.33301 16 2 28 2c45.333 0 79 -21.333 101 -64c4 -6.66699 10.667 -25.667 20 -57
c16.667 -50.667 33 -93.667 49 -129c5.33301 -16.667 8 -33.667 8 -51c0 -34.667 -14.333 -58 -43 -70c-9.33301 -4 -19.333 -6 -30 -6c-36 0 -69 21.667 -99 65c-24 34 -43 63.333 -57 88z"></glyph>
    <glyph glyph-name="uacute" unicode="&#xfa;" horiz-adv-x="927" d="M731 1025c68 0 123.001 -36.3301 165.001 -108.997c8.66699 -18.667 14.667 -44.334 18 -77.001c0 -40 -28.667 -126.333 -86 -259c-18.667 -60 -28 -115 -28 -165c0 -46 20.333 -94.667 61 -146c14 -38.667 21 -67.334 21 -86.001v-9c-7.33301 -63.333 -39 -95 -95 -95
h-12c-96 0 -144 63.333 -144 190c-3.33301 -2.66699 -15 -29 -35 -79c-66 -126.667 -157 -190 -273 -190c-130.667 0 -229.667 96 -297 288c-9.33301 42 -14 81.333 -14 118v25c0 114 26.333 248.667 79 404c52 120.667 124.667 181 218 181h7c74.667 0 125 -38 151 -114
l4 -21c0 -52.667 -24.667 -135.334 -74 -248.001c-52.667 -78.667 -79 -148.334 -79 -209.001c6 -50.667 30.667 -76 74 -76h28c69.333 0 116.666 49.333 141.999 148v40c0 6.66699 -13.333 52.334 -40 137.001c-9.33301 38.667 -14 71.667 -14 99
c0 84 39.667 157.667 119 221c32 21.333 66.667 32 104 32zM644.001 1262c-14 -24.667 -33 -54 -57 -88c-30 -43.333 -63 -65 -99 -65c-10.667 0 -20.667 2 -30 6c-28.667 12 -43 35.333 -43 70c0 17.333 2.66699 34.333 8 51c16 35.333 32.333 78.333 49 129
c9.33301 31.333 16 50.333 20 57c22 42.667 55.667 64 101 64c12 0 21.333 -0.666992 28 -2c32 -4.66699 56 -10.334 72 -17.001c18 -8 27 -22.333 27 -43c0 -23.333 -11.667 -54.666 -35 -93.999z"></glyph>
    <glyph glyph-name="ucircumflex" unicode="&#xfb;" horiz-adv-x="927" d="M731 1025c68 0 123.001 -36.3301 165.001 -108.997c8.66699 -18.667 14.667 -44.334 18 -77.001c0 -40 -28.667 -126.333 -86 -259c-18.667 -60 -28 -115 -28 -165c0 -46 20.333 -94.667 61 -146c14 -38.667 21 -67.334 21 -86.001v-9c-7.33301 -63.333 -39 -95 -95 -95
h-12c-96 0 -144 63.333 -144 190c-3.33301 -2.66699 -15 -29 -35 -79c-66 -126.667 -157 -190 -273 -190c-130.667 0 -229.667 96 -297 288c-9.33301 42 -14 81.333 -14 118v25c0 114 26.333 248.667 79 404c52 120.667 124.667 181 218 181h7c74.667 0 125 -38 151 -114
l4 -21c0 -52.667 -24.667 -135.334 -74 -248.001c-52.667 -78.667 -79 -148.334 -79 -209.001c6 -50.667 30.667 -76 74 -76h28c69.333 0 116.666 49.333 141.999 148v40c0 6.66699 -13.333 52.334 -40 137.001c-9.33301 38.667 -14 71.667 -14 99
c0 84 39.667 157.667 119 221c32 21.333 66.667 32 104 32zM322.001 1172l0.000976562 2c0 52.667 52 130 156 232l3 3c47.333 -46 81.666 -83.667 102.999 -113c37.333 -52.667 56 -92.667 56 -120v-2c0 -25.333 -14.667 -43 -44 -53c-7.33301 -2 -11.666 -3 -12.999 -3
c-34.667 0 -67.334 40 -98.001 120l-4 7l-9 -29c-28.667 -71.333 -59 -107 -91 -107c-18 0 -35.667 11.667 -53 35c-4 10 -6 19.333 -6 28z"></glyph>
    <glyph glyph-name="udieresis" unicode="&#xfc;" horiz-adv-x="927" d="M731 1025c68 0 123.001 -36.3301 165.001 -108.997c8.66699 -18.667 14.667 -44.334 18 -77.001c0 -40 -28.667 -126.333 -86 -259c-18.667 -60 -28 -115 -28 -165c0 -46 20.333 -94.667 61 -146c14 -38.667 21 -67.334 21 -86.001v-9c-7.33301 -63.333 -39 -95 -95 -95
h-12c-96 0 -144 63.333 -144 190c-3.33301 -2.66699 -15 -29 -35 -79c-66 -126.667 -157 -190 -273 -190c-130.667 0 -229.667 96 -297 288c-9.33301 42 -14 81.333 -14 118v25c0 114 26.333 248.667 79 404c52 120.667 124.667 181 218 181h7c74.667 0 125 -38 151 -114
l4 -21c0 -52.667 -24.667 -135.334 -74 -248.001c-52.667 -78.667 -79 -148.334 -79 -209.001c6 -50.667 30.667 -76 74 -76h28c69.333 0 116.666 49.333 141.999 148v40c0 6.66699 -13.333 52.334 -40 137.001c-9.33301 38.667 -14 71.667 -14 99
c0 84 39.667 157.667 119 221c32 21.333 66.667 32 104 32zM149.001 1129c-46.667 37.333 -69.999 83.001 -69.999 137.001v8c0 26.667 7.33301 50.667 22 72c23.333 27.333 54.666 41 93.999 41h8c16.667 0 36.667 -4.33301 60 -13c51.333 -22.667 77 -67.334 77 -134.001
c0 -30 -4.66699 -56.667 -14 -80c-20 -41.333 -51 -62 -93 -62c-25.333 0 -53.333 10.333 -84 31zM714.002 1129c-46 37.333 -68.999 82.667 -68.999 136v9c0 26 7.33301 50 22 72c23.333 27.333 54.666 41 93.999 41h7c17.333 0 37.666 -4.66699 60.999 -14
c51.333 -22.667 77 -67 77 -133c0 -30 -5 -56.667 -15 -80c-20 -41.333 -50.667 -62 -92 -62c-25.333 0 -53.666 10.333 -84.999 31z"></glyph>
    <glyph glyph-name="Mu" unicode="&#x39c;" horiz-adv-x="1959" d="M161 1437c87.333 36 176.335 -20.3301 267.002 -168.997c110 -244.667 184.333 -359 223 -343l7 3c8 3.33301 63 102.333 165 297c36 31.333 68 53 96 65c96 39.333 180.667 0.333008 254 -117l23 -57c49.333 -119.333 34 -314.333 -46 -585l23 -15
c78.667 81.333 156.334 138 233.001 170c154 63.333 306.333 5.66602 457 -173.001c17.333 -28.667 32.333 -58 45 -88l11 -28c90 -216.667 45.667 -393.667 -133 -531c-6 -8 -17 -15.333 -33 -22l-133 -55c-106.667 -44 -227.334 -36.333 -362.001 23
c-80.667 62.667 -137 132.667 -169 210l-61 147c-32.667 79.333 -62.334 184.666 -89.001 315.999l-27 5c-26 -278.667 -84 -436.334 -174 -473.001c-51.333 -21.333 -84.666 -13.333 -99.999 24l-35 84c-18.667 46 -48.667 145.667 -90 299l-17 1l-29 -249
c-28.667 -81.333 -60.334 -130 -95.001 -146l-63 -27c-54.667 -13.333 -91 2 -109 46l-18 42c-18 44 -1.33301 116.333 50 217c39.333 156.667 27 313 -37 469c-118.667 260.667 -183.334 404 -194.001 430c-26.667 65.333 3.33301 132.333 90 201z"></glyph>
    <glyph glyph-name="Pi" unicode="&#x3a0;" horiz-adv-x="858" d="M410 1389c126.667 0 235.33 -45.667 325.997 -137c68 -80 102 -175.667 102 -287v-8c0 -113.333 -25 -213.666 -75 -300.999c-42.667 -74 -120.667 -131 -234 -171c-37.333 -8.66699 -73.666 -15.334 -108.999 -20.001c39.333 -92.667 59 -176 59 -250
c0 -95.333 -41.333 -163.333 -124 -204c-19.333 -7.33301 -38.666 -11 -57.999 -11h-10c-62.667 0 -120.667 39.667 -174 119c-41.333 79.333 -62 183.333 -62 312c0 19.333 2.66699 77.666 8 174.999c-21.333 153.333 -34.666 256.333 -39.999 309
c-1.33301 8.66699 -2 26 -2 52v2c0 178.667 75 306.334 225 383.001c53.333 24.667 109.333 37 168 37zM193.996 930c0 -106 48 -185.667 144 -239c30.667 -13.333 61.334 -20 92.001 -20c92.667 0 163.667 52 213 156c12 34.667 18 69.667 18 105
c0 106.667 -48 186.667 -144 240c-30.667 12.667 -61.334 19 -92.001 19c-92.667 0 -163.667 -51.667 -213 -155c-12 -34.667 -18 -70 -18 -106z"></glyph>
    <glyph glyph-name="Upsilon" unicode="&#x3a5;" horiz-adv-x="1525" d="M1483 1402c58.667 0 99.6709 -25.002 123.004 -75.002c6 -22.667 9 -40 9 -52v-5c0 -67.333 -66.333 -163.333 -199 -288c-68.667 -68 -103 -129.333 -103 -184v-6c0 -46 23.333 -185.667 70 -419c6.66699 -50.667 11 -97.667 13 -141
c0 -144.667 -80.667 -299.334 -242 -464.001c-122.667 -120.667 -286 -181 -490 -181c-232.667 0 -414 71 -544 213c-73.333 98 -110 198.667 -110 302c0 133.333 51.667 233.333 155 300c39.333 22 84.666 33 135.999 33h35c50 0 190.667 -20.667 422 -62
c30 -2 56 -3 78 -3c119.333 0 198.666 46.333 237.999 139c34 80.667 51 147.334 51 200.001c-4.66699 0 -29.334 -14.333 -74.001 -43c-52.667 -27.333 -103 -41 -151 -41h-23c-84 0 -164.667 46 -242 138c-30 46 -45 93.333 -45 142c0 80.667 32.333 158 97 232
c64 56 119 84 165 84c77.333 -15.333 116 -35.666 116 -60.999c4.66699 0 8.66699 -16.333 12 -49c0 -16 -12.667 -74 -38 -174v-25c0 -59.333 17 -96 51 -110h23c33.333 0 71 24.667 113 74c19.333 26.667 36.666 89 51.999 187c0 62.667 35.333 145.334 106 248.001
c56 60.667 121.333 91 196 91z"></glyph>
    <glyph glyph-name="Psi" unicode="&#x3a8;" horiz-adv-x="1954" d="M445 1432c113.333 0 244.332 -31.999 392.999 -95.999c128 -84.667 192 -227.334 192 -428.001c0 -54 -5 -126.333 -15 -217l108 174c50 52 87.667 78 113 78c54 0 93.333 -81.333 118 -244c5.33301 78.667 43 227 113 445c82.667 175.333 203.667 263 363 263h17
c135.333 0 233 -82 293 -246l4 -43c0 -114 -120.667 -190 -362 -228c-118.667 -26 -194.667 -63.667 -228 -113c-34.667 -66 -52 -181 -52 -345c0 -78.667 -20.667 -171.667 -62 -279c-51.333 -72.667 -97.666 -109 -138.999 -109c-66 0 -127 72.667 -183 218
c-6 0 -29 -29.333 -69 -88c-104.667 -116 -196.667 -174 -276 -174c-78 0 -135 45 -171 135c-5.33301 27.333 -8 49.333 -8 66c0 94.667 43.333 228.334 130 401.001v4h-4c-144 -28.667 -256 -43 -336 -43h-22c-150 0 -247.333 58 -292 174c-46.667 92 -70 185.333 -70 280
c-0 150.667 84.333 275.667 253 375c39.333 19.333 103.333 32.666 192 39.999z"></glyph>
    <glyph glyph-name="alpha" unicode="&#x3b1;" horiz-adv-x="1546" d="M344 1017c174 0 306 -113.331 396 -339.998c6.66699 -8.66699 29.334 -63.334 68.001 -164.001c103.333 0 168.666 -34.667 195.999 -104c0 -4 2.66699 -16 8 -36c0 -46.667 -45.333 -70 -136 -70h-8c86.667 -220 154.667 -330 204 -330h28
c18.667 0 73.334 26.667 164.001 80c17.333 8 37 12 59 12h13c94.667 0 158.667 -50.667 192 -152c8 -28.667 12 -62 12 -100c0 -106.667 -73.333 -173.334 -220 -200.001c-34 -10.667 -71.333 -16 -112 -16h-52c-234.667 0 -389.334 106.667 -464.001 320
c-42.667 93.333 -91.667 224.333 -147 393h-22c-60 0 -125 2.33301 -195 7c8 -49.333 12 -93.333 12 -132v-24c0 -116.667 -38.667 -192.667 -116 -228c-24 -8 -40.333 -12 -49 -12h-3c-70 0 -111.333 70.667 -124 212c-10.667 84 -16 180 -16 288c0 282.667 28 460 84 532
c53.333 42.667 129.333 64 228 64zM324 609.002v-20c6 -66.667 24.667 -100 56 -100h36c30 2.66699 47.333 12 52 28v20c-13.333 72 -37.333 108 -72 108h-28c-29.333 0 -44 -12 -44 -36z"></glyph>
    <glyph glyph-name="rho" unicode="&#x3c1;" horiz-adv-x="1763" d="M38 1047c51.333 0 95.332 -54.667 131.999 -164c96 106.667 185.333 160 268 160h20c120 0 209.333 -60.667 268 -182c17.333 -52 26 -104 26 -156v-16c-1.33301 -129.333 -82.333 -236.666 -243 -321.999c35.333 -26 89 -48.667 161 -68c57.333 -10.667 100 -16 128 -16
h52c103.333 0 242 89.333 416 268c86.667 64 165.334 96 236.001 96c92.667 0 171.334 -61.333 236.001 -184c13.333 -36.667 20 -68.667 20 -96v-20c0 -124.667 -88 -235.334 -264 -332.001c-108.667 -48 -226 -72 -352 -72c-277.333 0 -538 121 -782 363
c30.667 -92.667 46 -167 46 -223c0 -45.333 -32 -73.333 -96 -84c-96 0 -149.333 58.667 -160 176c-0.666992 15.333 -1 30.333 -1 45c0 36.667 2 72.667 6 108c4.66699 48.667 7 93.667 7 135c-4.66699 134 -39.334 244.667 -104.001 332c-64 93.333 -96 153.333 -96 180
c0 39.333 25.333 63.333 76 72zM347.999 627v-53c2.66699 -36.667 16.667 -55 42 -55h4c42 0 72 30 90 90c4 12.667 6 26.667 6 42v18c0 36 -14.333 54 -43 54c-4.66699 0 -10 -0.666992 -16 -2c-49.333 -16 -77 -47.333 -83 -94z"></glyph>
    <glyph glyph-name="u0401" unicode="&#x401;" d="M424 1408l53.998 0.000976562c156.667 0 268.334 -47 335.001 -141c13.333 -21.333 20 -47.333 20 -78v-9c-9.33301 -98 -56.333 -147 -141 -147c-14.667 0 -54.667 16.667 -120 50c-18 4.66699 -37 7 -57 7c-60.667 -6.66699 -91 -32.667 -91 -78v-36
c4 -22.667 15.333 -34 34 -34h26c12 0 52.333 6.66699 121 20c50.667 0 85.334 -26.667 104.001 -80c4.66699 -28 7 -47 7 -57c0 -63.333 -22.333 -106 -67 -128c-9.33301 -3.33301 -20 -5 -32 -5c-8 0 -16.667 0.666992 -26 2l-100 20h-27c-29.333 0 -50.333 -29 -63 -87
v-6c0 -36.667 17.667 -58.334 53 -65.001h27l105 20l121 19c4 0.666992 8.33301 1 13 1c61.333 0 109 -42.333 143 -127c16 -52 24 -96.667 24 -134c0 -150.667 -87.333 -254.667 -262 -312c-56.667 -15.333 -108 -23 -154 -23h-67c-111.333 0 -213 37 -305 111
c-62.667 60.667 -94 124.334 -94 191.001v27c0 59.333 24.667 187.666 74 384.999c2 21.333 3 41.333 3 60v44l-30 282v3c0 136 82.667 233.333 248 292c46 8.66699 87.333 13 124 13zM81.998 1413c-56 44.667 -84.002 99.333 -84.002 164v10c0 32 9 61 27 87
c28 32.667 65.667 49 113 49h9c20.667 0 45.334 -5.33301 74.001 -16c60.667 -27.333 91 -81 91 -161c0 -36 -5.66699 -68 -17 -96c-24 -50 -60.667 -75 -110 -75c-31.333 0 -65.666 12.667 -102.999 38zM667.996 1413c-56 44.667 -84.002 99.333 -84.002 164v10
c0 32 9 61 27 87c28 32.667 65.667 49 113 49h9c20.667 0 45.334 -5.33301 74.001 -16c60.667 -27.333 91 -81 91 -161c0 -36 -5.66699 -68 -17 -96c-24 -50 -60.667 -75 -110 -75c-31.333 0 -65.666 12.667 -102.999 38z"></glyph>
    <glyph glyph-name="u0410" unicode="&#x410;" horiz-adv-x="999" d="M545 1410c70.667 0 136.334 -83 197.001 -249c14.667 -62 34 -174.333 58 -337c38.667 -175.333 78 -291 118 -347c67.333 -84.667 101 -158 101 -220v-6c0 -108.667 -48 -185.334 -144 -230.001c-24.667 -10 -51 -15.333 -79 -16c-131.333 0 -221 69 -269 207
c-14 44.667 -24.333 91 -31 139c-88 -233.333 -174.333 -352 -259 -356c-82.667 0 -153.334 63.667 -212.001 191c-12 28.667 -20.333 65.334 -25 110.001c-0 98.667 44.333 187.334 133 266.001c66.667 69.333 120.667 223.666 162 462.999c74 256.667 157.333 385 250 385
zM452 646c-0.666992 -5.33301 -1 -10.333 -1 -15c0 -33.333 18.333 -53.666 55 -60.999c4 -0.666992 7.66699 -1 11 -1c35.333 0 62 36.333 80 109c0.666992 8 1 15.667 1 23c0 44.667 -17.667 70 -53 76c-4.66699 0.666992 -8.66699 1 -12 1
c-35.333 0 -61.333 -32.333 -78 -97c-2 -18.667 -3 -30.334 -3 -35.001z"></glyph>
    <glyph glyph-name="u0411" unicode="&#x411;" horiz-adv-x="1050" d="M380 1035c169.333 0 308 -33.333 416 -100c111.333 -75.333 188 -175.333 230 -300c8.66699 -35.333 13 -69.666 13 -102.999v-15c0 -180 -138.667 -336.667 -416 -470c-98 -31.333 -188.333 -47 -271 -47c-144.667 0 -241.667 26 -291 78
c-18 31.333 -27 63.666 -27 96.999v15l17 257v23c0 34 -15.667 321.333 -47 862c5.33301 166.667 289 192.667 851 78c239.333 -192.667 77.333 -317.667 -486 -375h11zM295 684c-2 -9.33301 -3.00195 -17.999 -3.00195 -25.999c0 -32 17.667 -50 53 -54h7
c58.667 1.33301 105 48.666 139 141.999c3.33301 10 5 22.333 5 37v8c-1.33301 27.333 -15.666 44 -42.999 50h-20c-48 0 -87.667 -33 -119 -99c-9.33301 -20.667 -15.666 -40 -18.999 -58z"></glyph>
    <glyph glyph-name="u0412" unicode="&#x412;" horiz-adv-x="1080" d="M562 1399c114.667 0 234 -41.333 358 -124c91.333 -76.667 137 -163.667 137 -261c0 -137.333 -91.333 -256.666 -274 -357.999c151.333 -78 227 -179.333 227 -304c0 -156 -88 -262 -264 -318c-100 -24.667 -180.333 -37 -241 -37c-176.667 0 -299.334 47 -368.001 141
c-28.667 49.333 -43 99.333 -43 150c20 157.333 30 247.666 30 270.999v27c0 48.667 -28 150 -84 304c-13.333 45.333 -20 83.333 -20 114v24c0 134.667 97 242.667 291 324c94.667 31.333 178.334 47 251.001 47zM539 780v-10c0 -30.667 19 -48.667 57 -54h3
c82.667 5.33301 135 53.333 157 144c0.666992 4 1 8 1 12c0 41.333 -27 62 -81 62c-40 0 -80.333 -31.333 -121 -94c-10.667 -19.333 -16 -39.333 -16 -60zM559 275l0.000976562 -10c0 -30.667 19 -48.667 57 -54h3c81.333 1.33301 133.666 49.333 156.999 144
c0.666992 4 1 8 1 12c0 41.333 -27 62 -81 62c-40 0 -80.333 -31.333 -121 -94c-10.667 -19.333 -16 -39.333 -16 -60z"></glyph>
    <glyph glyph-name="u0413" unicode="&#x413;" horiz-adv-x="954" d="M572 1415c194 0 333.67 -98 419.003 -294c11.333 -35.333 19.666 -74.333 24.999 -117c0 -102 -54.667 -179 -164 -231c-22.667 -8.66699 -43.667 -13 -63 -13h-4c-52.667 0 -123.667 45 -213 135c-44 28 -76.667 42 -98 42h-21c-54.667 0 -95.334 -39.333 -122.001 -118
v-22c6 -60 16.833 -108.333 32.5 -145s28.834 -91.334 39.501 -164.001c0 -20.667 28.333 -103.667 85 -249c0 -18 1.33301 -32 4 -42c0 -90 -51 -153 -153 -189c-12 -5.33301 -25.333 -8 -40 -8c-68.667 0 -140.334 43.333 -215.001 130c-36.667 60 -55 128.333 -55 205
l30 273c0 20.667 -18.333 121.667 -55 303c-2.66699 8.66699 -4 25.334 -4 50.001c0 144 102.333 273 307 387c97.333 44.667 185.666 67 264.999 67z"></glyph>
    <glyph glyph-name="u0414" unicode="&#x414;" horiz-adv-x="1290" d="M604 1434c174 0 306 -155.999 396 -467.999c6.66699 -12 29.334 -87.333 68.001 -226c103.333 0 168.666 -47.667 195.999 -143c0 -5.33301 2.66699 -22 8 -50c0 -64 3 -178.833 9 -344.5s-71 -261.5 -231 -287.5c-96 -25.333 -153.833 42.167 -173.5 202.5
s-43.5 274.833 -71.5 343.5h-22c-60 0 -125 3 -195 9c8 -68 12 -128.333 12 -181v-34c0 -160 -60.667 -256.667 -182 -290l-172 11c-184 110 -264 233 -240 369s61.333 204 112 204c77.333 18 135.333 39.333 174 64c0 389.333 28 633.666 84 732.999
c53.333 58.667 129.333 88 228 88zM564 924.001v-43c6 -141.333 24.667 -212 56 -212h36c30 5.33301 47.333 25 52 59v43c-13.333 152.667 -37.333 229 -72 229h-28c-29.333 0 -44 -25.333 -44 -76z"></glyph>
    <glyph glyph-name="u0415" unicode="&#x415;" d="M424 1408l53.998 0.000976562c156.667 0 268.334 -47 335.001 -141c13.333 -21.333 20 -47.333 20 -78v-9c-9.33301 -98 -56.333 -147 -141 -147c-14.667 0 -54.667 16.667 -120 50c-18 4.66699 -37 7 -57 7c-60.667 -6.66699 -91 -32.667 -91 -78v-36
c4 -22.667 15.333 -34 34 -34h26c12 0 52.333 6.66699 121 20c50.667 0 85.334 -26.667 104.001 -80c4.66699 -28 7 -47 7 -57c0 -63.333 -22.333 -106 -67 -128c-9.33301 -3.33301 -20 -5 -32 -5c-8 0 -16.667 0.666992 -26 2l-100 20h-27c-29.333 0 -50.333 -29 -63 -87
v-6c0 -36.667 17.667 -58.334 53 -65.001h27l105 20l121 19c4 0.666992 8.33301 1 13 1c61.333 0 109 -42.333 143 -127c16 -52 24 -96.667 24 -134c0 -150.667 -87.333 -254.667 -262 -312c-56.667 -15.333 -108 -23 -154 -23h-67c-111.333 0 -213 37 -305 111
c-62.667 60.667 -94 124.334 -94 191.001v27c0 59.333 24.667 187.666 74 384.999c2 21.333 3 41.333 3 60v44l-30 282v3c0 136 82.667 233.333 248 292c46 8.66699 87.333 13 124 13z"></glyph>
    <glyph glyph-name="u0416" unicode="&#x416;" horiz-adv-x="1902" d="M1679 1685h9.99902c90.667 0 154.667 -58 192 -174c11.333 -44 17 -81 17 -111c0 -184 -122.667 -372.667 -368 -566c-62 -52 -152.667 -117 -272 -195c353.333 -74.667 530 -194 530 -358v-20c0 -106 -57.333 -185 -172 -237c-46.667 -16 -88.667 -24 -126 -24
c-162 0 -283.667 153 -365 459c-1.33301 -180 -44 -309.333 -128 -388c-22.667 -19.333 -50 -29 -82 -29h-11c-88.667 6 -156.667 154.667 -204 446c-218.667 -317.333 -416.334 -447.333 -593.001 -390c-229.333 93.333 -68 312 484 656
c-432 447.333 -538.667 702.333 -320 765c187.333 83.333 338.333 -93.667 453 -531c103.333 282 190 423 260 423c100 0 158.667 -109 176 -327c2 -18 3 -45.667 3 -83l-1 -152c78.667 324 156.334 547 233.001 669c76.667 106 171.334 161.667 284.001 167z"></glyph>
    <glyph glyph-name="u0417" unicode="&#x417;" horiz-adv-x="1050" d="M483 1420h66.999c198 0 344 -72.667 438 -218c26.667 -53.333 40 -104.666 40 -153.999c0 -92 -33.333 -197 -100 -315c-4.66699 -10.667 -7 -21.334 -7 -32.001v-4c0 -24 24.667 -77.667 74 -161c20.667 -40 31 -89.667 31 -149c0 -11.333 -0.333008 -23 -1 -35
c0 -106.667 -67 -205 -201 -295c-71.333 -38 -150.666 -57 -237.999 -57h-41c-138 0 -262.667 25.667 -374 77c-96 60 -144 132.667 -144 218v3c0 90.667 40.333 112.334 121 65.001c33.333 -3.33301 64.666 -5 93.999 -5c36.667 0 123.667 -16.333 261 -49
c13.333 -4.66699 61.666 -8.66699 144.999 -12c60 0 88.667 102.667 86 308c0 44.667 -15.667 67 -47 67c-5.33301 0.666992 -10.666 1 -15.999 1c-25.333 0 -85 -4.33301 -179 -13c-36 -15.333 -61.667 -23 -77 -23h-7c-160.667 -58.667 -249.667 -44.334 -267 42.999v13
c0 79.333 41.667 121.333 125 126c19.333 6.66699 72 10.334 158 11.001h6c51.333 -8 126.666 -14 225.999 -18c64.667 0 97 19 97 57v10c10.667 174.667 -8.66602 266 -57.999 274h-23c-11.333 0 -93.333 -9.66699 -246 -29c-86.667 -4.66699 -148 -8.33398 -184 -11.001
c-115.333 -110 -188 -112.667 -218 -8c-3.33301 16 -5.66602 35 -6.99902 57v14c0 122 99.333 199 298 231c55.333 8.66699 111.333 13 168 13z"></glyph>
    <glyph glyph-name="u0418" unicode="&#x418;" horiz-adv-x="1083" d="M829 -60c-64 0 -115.665 14 -154.998 42c-122 89.333 -183 204.666 -183 345.999v4c0 94 18.667 222 56 384c-12 -20.667 -26 -55.334 -42 -104.001l-86 -276c-52 -175.333 -139.333 -265.666 -262 -270.999c-15.333 0 -30 2.66699 -44 8c-74 34 -111 104.333 -111 211
c0 50.667 12 123.667 36 219c60.667 188.667 91 294.667 91 318l-4 24c-42 129.333 -63 218 -63 266v20c31.333 180 102.666 270 213.999 270h4c90.667 0 136 -84.667 136 -254v-4c0 -23.333 -5.33301 -72.333 -16 -147c163.333 296.667 305 445 425 445h12
c13.333 0 29.333 -2.66699 48 -8c68.667 -22.667 103 -83.667 103 -183v-24c0 -60 -13.333 -122.333 -40 -187c-47.333 -116.667 -71 -204 -71 -262c-0.666992 -10.667 -1 -21 -1 -31c0 -78 20 -146 60 -204c98.667 -107.333 148 -218 148 -332v-2
c-2.66699 -32.667 -6.66699 -61.667 -12 -87c-44.667 -119.333 -116.334 -179.666 -215.001 -180.999h-28z"></glyph>
    <glyph glyph-name="u0419" unicode="&#x419;" horiz-adv-x="1083" d="M829 -60c-64 0 -115.665 14 -154.998 42c-122 89.333 -183 204.666 -183 345.999v4c0 94 18.667 222 56 384c-12 -20.667 -26 -55.334 -42 -104.001l-86 -276c-52 -175.333 -139.333 -265.666 -262 -270.999c-15.333 0 -30 2.66699 -44 8c-74 34 -111 104.333 -111 211
c0 50.667 12 123.667 36 219c60.667 188.667 91 294.667 91 318l-4 24c-42 129.333 -63 218 -63 266v20c31.333 180 102.666 270 213.999 270h4c90.667 0 136 -84.667 136 -254v-4c0 -23.333 -5.33301 -72.333 -16 -147c163.333 296.667 305 445 425 445h12
c13.333 0 29.333 -2.66699 48 -8c68.667 -22.667 103 -83.667 103 -183v-24c0 -60 -13.333 -122.333 -40 -187c-47.333 -116.667 -71 -204 -71 -262c-0.666992 -10.667 -1 -21 -1 -31c0 -78 20 -146 60 -204c98.667 -107.333 148 -218 148 -332v-2
c-2.66699 -32.667 -6.66699 -61.667 -12 -87c-44.667 -119.333 -116.334 -179.666 -215.001 -180.999h-28zM352.002 1724l209.999 -56l7 -1c8.66699 -1.33301 16.334 -1.66602 23.001 -0.999023c108.667 28 170 41 184 39l6 -1c44 -6.66699 60.667 -48.667 50 -126
c-7.33301 -47.333 -33 -88 -77 -122c-124.667 -64.667 -225.667 -91.334 -303 -80.001l-19 3c-119.333 18.667 -179 107 -179 265l1 8c8.66699 56.667 41 80.667 97 72z"></glyph>
    <glyph glyph-name="u041A" unicode="&#x41a;" horiz-adv-x="1199" d="M1049 1685h9.99805c90.667 0 154.667 -58 192 -174c11.333 -44 17 -81 17 -111c0 -184 -122.667 -372.667 -368 -566c-62 -52 -152.667 -117 -272 -195c353.333 -74.667 530 -194 530 -358v-20c0 -106 -57.333 -185 -172 -237c-46.667 -16 -88.667 -24 -126 -24
c-162 0 -283.667 153 -365 459c-1.33301 -180 -44 -309.333 -128 -388c-22.667 -19.333 -50 -29 -82 -29h-11c-80 0 -137 56.667 -171 170c-52 259.333 -79.667 484 -83 674c0 127.333 43 260.333 129 399c66.667 84 135 126 205 126c100 0 158.667 -109 176 -327
c2 -18 3 -45.667 3 -83l-1 -152c78.667 324 156.334 547 233.001 669c76.667 106 171.334 161.667 284.001 167z"></glyph>
    <glyph glyph-name="u041B" unicode="&#x41b;" horiz-adv-x="1000" d="M134 0c-58.667 0 -97 54.001 -115 162.001c-2 14 -3 29.667 -3 47v47c0 133.333 56.333 304.333 169 513c85.333 186.667 132.333 305.667 141 357c33.333 146.667 68.333 241 105 283c25.333 24.667 54.333 37 87 37c67.333 0 108 -55 122 -165
c0 -64 34.667 -169.667 104 -317c32.667 -52.667 92.334 -139.334 179.001 -260.001c38 -72 57 -161.667 57 -269c0 -168 -59.667 -285 -179 -351c-23.333 -6.66699 -41.333 -10 -54 -10h-3c-84 0 -138 88.667 -162 266l-44 284c-112.667 -314 -213.667 -508.667 -303 -584
c-28.667 -26 -62.334 -39.333 -101.001 -40z"></glyph>
    <glyph glyph-name="u041C" unicode="&#x41c;" horiz-adv-x="1897" d="M1509 1444c92 -14.667 138 -55.6689 138 -123.002v-44c0 -90.667 -67.667 -238.334 -203 -443.001v-14c2 -10 14 -19.667 36 -29c49.333 4.66699 88 7 116 7c136 0 228 -65.333 276 -196c14.667 -61.333 22 -107.333 22 -138v-43c0 -183.333 -116 -316.333 -348 -399
c-36.667 -14.667 -90 -22 -160 -22c-160 0 -264 72.667 -312 218c-18.667 40.667 -28.334 91.334 -29.001 152.001c0 92.667 34 206.334 102 341.001v15h-8c-16 -10 -57 -70.667 -123 -182c-51.333 -53.333 -90 -80 -116 -80c-44 0 -66 41.333 -66 124
c0 38.667 5 79.667 15 123l-22 15c-94 -298 -183.333 -479.667 -268 -545c-91.333 -72 -188.333 -108 -291 -108h-14c-169.333 24.667 -254 104.334 -254 239.001v80c18.667 120.667 96 181 232 181c266 0 435.333 104 508 312c54.667 220 93.334 365.333 116.001 436
c33.333 52.667 67.333 79 102 79h14c50.667 0 87 -26.333 109 -79c30 -89.333 52 -135.333 66 -138h7c142.667 174 246.667 261 312 261h43z"></glyph>
    <glyph glyph-name="u041D" unicode="&#x41d;" horiz-adv-x="1000" d="M730 1490c132.667 0 217.333 -57.667 254 -173c4.66699 -22 7 -39.667 7 -53c0 -50.667 -48.333 -165.667 -145 -345c-12 -26 -18 -59 -18 -99v-35c0 -85.333 43.667 -211 131 -377c30.667 -82.667 46 -144 46 -184v-14c0 -82 -33 -138.333 -99 -169
c-19.333 -7.33301 -37 -11 -53 -11h-13c-146 0 -220.333 101 -223 303c4 70.667 6 136.667 6 198c0 42.667 -1 82.667 -3 120c-5.33301 64 -31 98 -77 102h-4c-13.333 0 -21.333 -18.667 -24 -56v-7c0 -15.333 16.333 -127 49 -335c2.66699 -40 4 -70.667 4 -92v-7
c-2.66699 -125.333 -30 -213.666 -82 -264.999c-42 -42 -90 -63 -144 -63c-158.667 0 -267.334 96 -326.001 288c-7.33301 25.333 -11.666 55 -12.999 89v39c0 120.667 48.333 230 145 328c52.667 66 79.667 134 81 204v29c-10 50.667 -49 135 -117 253
c-10.667 20.667 -17.667 46.667 -21 78v7c0 103.333 64.667 161 194 173c96 0 158.333 -46 187 -138c7.33301 -18.667 11 -38 11 -58v-16l-27 -183l-1 -14c5.33301 -60.667 26.333 -92.334 63 -95.001h11c23.333 10 35 27.333 35 52v11c-28.667 109.333 -43.667 175 -45 197
c-1.33301 12 -2 24.333 -2 37c0 10 0.333008 20.333 1 31c0 93.333 37.667 167.333 113 222c29.333 18.667 62.333 28 99 28z"></glyph>
    <glyph glyph-name="u041E" unicode="&#x41e;" horiz-adv-x="951" d="M466 1398c193.333 0 329.334 -127.999 408.001 -383.999c34 -115.333 51 -239 51 -371v-26c0 -301.333 -102.333 -495 -307 -581c-74 -24 -134 -36 -180 -36c-152.667 0 -272.334 119.333 -359.001 358c-32.667 104.667 -49 191.667 -49 261
c0 261.333 60.333 476.666 181 645.999c86.667 88.667 171.667 133 255 133zM332.001 633.001c9.33301 -101.333 37.332 -152 83.999 -152c68 0 122.667 99.333 164 298c4 44 6 82 6 114v6c0 164.667 -30.333 259.667 -91 285h-12
c-69.333 0 -119.666 -147.667 -150.999 -443v-108z"></glyph>
    <glyph glyph-name="u041F" unicode="&#x41f;" horiz-adv-x="1475" d="M1455 1021c11.333 -11.333 17.3359 -24.667 18.0029 -40l-3 -6c-12 -24 -47 -59.667 -105 -107c-114.667 -229.333 -125.667 -417.333 -33 -564c36 -72.667 39.333 -138 10 -196l-12 -26c-32 -62.667 -79 -88 -141 -76c-18.667 0.666992 -37.334 5.66699 -56.001 15
c-111.333 56 -128.333 205 -51 447l143 285c25.333 56 30.333 87.667 15 95l-5 2c-33.333 -10.667 -108 -28.334 -224 -53.001l-3 -5c20.667 -189.333 -16 -377.333 -110 -564c-135.333 -270.667 -333.333 -390.667 -594 -360c-46 10 -81 21 -105 33l-15 8
c-142.667 71.333 -201.334 213.333 -176.001 426c8 34 15.667 58 23 72l33 66c48.667 98 144.667 162.667 288 194c76 -1.33301 138.333 -13.333 187 -36l15 -8c64.667 -32 115.667 -87 153 -165c19.333 -10 62.666 38.333 129.999 145c42 106 55.667 167.333 41 184
c-198 9.33301 -350.333 40.666 -457 93.999l-10 5c-125.333 63.333 -177.333 172.333 -156 327c8.66699 24.667 16.334 44.334 23.001 59.001l26 51c42.667 85.333 121.667 124.333 237 117c37.333 -1.33301 73 -10.666 107 -27.999c14.667 -7.33301 98 -83 250 -227
c53.333 -44 104.666 -78 153.999 -102c70.667 -36 182 -51.333 334 -46c22.667 1.33301 45.667 -4 69 -16z"></glyph>
    <glyph glyph-name="u0420" unicode="&#x420;" horiz-adv-x="875" d="M424 1420l30 -0.000976562c164 0 287.333 -85.333 370 -256c20 -75.333 30 -137.333 30 -186c0 -184.667 -66 -331 -198 -439c-53.333 -36 -130.666 -60.667 -231.999 -74c37.333 -91.333 56 -164.666 56 -219.999v-11c0 -121.333 -54.333 -199.333 -163 -234h-38
c-127.333 0 -202.333 104 -225 312v156c0 46 3.33301 104.333 10 175c-23.333 148 -35 251 -35 309c9.33301 239.333 93.666 385.333 252.999 438c54.667 20 102 30 142 30zM391 718.999l-0.999023 -28c2 -29.333 17.667 -44 47 -44c34 0 67 28.333 99 85
c12 20 18.333 38.667 19 56v25c-0.666992 30.667 -15.667 46 -45 46c-62.667 -6 -102.334 -52.667 -119.001 -140z"></glyph>
    <glyph glyph-name="u0421" unicode="&#x421;" horiz-adv-x="826" d="M551 1440h62.002c119.333 0 190.666 -73.667 213.999 -221v-41c0 -122 -103.333 -241.333 -310 -358c-152 -132 -228 -251.333 -228 -358c16 -161.333 87.333 -242 214 -242h7c85.333 0 154.333 66.667 207 200h34c14 -2.66699 21 -21 21 -55
c0 -170.667 -66.667 -283 -200 -337c-56.667 -18.667 -107.334 -28 -152.001 -28c-201.333 0 -334.333 121.667 -399 365c-14 80.667 -21 142.667 -21 186v69c0 138 36.667 296.333 110 475c67.333 146 157 245 269 297c62.667 32 120 48 172 48z"></glyph>
    <glyph glyph-name="u0422" unicode="&#x422;" horiz-adv-x="1001" d="M450 1427l38.998 -0.00195312c250 0 417 -122 501 -366c10.667 -41.333 16 -78 16 -110c-6.66699 -83.333 -47.334 -125 -122.001 -125c-36 0 -101.333 23.667 -196 71c-34 14 -59.667 22 -77 24c62 -282.667 93 -469.667 93 -561v-16
c-6.66699 -179.333 -60.334 -290.666 -161.001 -333.999c-27.333 -6.66699 -47.666 -10 -60.999 -10c-73.333 0 -125.666 43 -156.999 129c-19.333 56.667 -29 145.334 -29 266.001v4c0 128.667 27.667 301 83 517c-31.333 0 -96.666 -14 -195.999 -42
c-73.333 0 -129 59 -167 177c-10.667 38.667 -16 73 -16 103c0 151.333 109.333 240.333 328 267c42.667 4 83.334 6 122.001 6z"></glyph>
    <glyph glyph-name="u0423" unicode="&#x423;" horiz-adv-x="1033" d="M856 1444c76.667 -0.666992 130.336 -41.998 161.003 -123.998c6 -18.667 9 -38 9 -58c-6 -91.333 -60 -213.666 -162 -366.999c-8.66699 -16 -13 -35.667 -13 -59c0 -4.66699 0.333008 -9.66699 1 -15c2.66699 -30.667 20 -132.667 52 -306
c4 -12.667 7.33301 -44 10 -94c0 -120 -63.333 -231.333 -190 -334c-82 -54.667 -164.667 -82 -248 -82h-18c-215.333 0 -357.333 64 -426 192c-16.667 33.333 -25.334 73 -26.001 119c0 84 38.333 142.667 115 176c38.667 12 80.667 18 126 18
c57.333 0 123.666 -17.667 198.999 -53c20.667 -9.33301 40 -14 58 -14h29c92 0 151.667 53 179 159c3.33301 23.333 5 43 5 59l-1 18c-69.333 -83.333 -149.333 -125 -240 -125c-146.667 0 -245.667 86.667 -297 260c-20 76 -30 148.667 -30 218v10
c0 137.333 35.667 245.666 107 324.999c43.333 40.667 92 61 146 61h11c81.333 0 122 -57 122 -171c0 -26 -10.333 -120.333 -31 -283v-19c0 -74.667 17 -122.334 51 -143.001l18 -2h16c31.333 5.33301 51.666 36.333 60.999 93v33c0 24 -12.667 69.333 -38 136
c-6 29.333 -9 55.666 -9 78.999v5c0 138.667 67.667 231.334 203 278.001c19.333 5.33301 36 8.66602 50 9.99902z"></glyph>
    <glyph glyph-name="u0424" unicode="&#x424;" horiz-adv-x="951" d="M393 1194c-143.333 -47.333 -193 -181 -149 -401l41 -74c16 -18 33.667 -32.333 53 -43l13 296c16.667 91.333 30.667 165.333 42 222zM600 1189c-6 -64.667 -9.66797 -141.667 -11.001 -231l4 -264c103.333 53.333 161 147.666 173 282.999
c-8.66699 33.333 -19 61 -31 83l-2 4c-33.333 60.667 -77.666 102.334 -132.999 125.001zM416.999 1394l4.99902 47.001c4.66699 36.667 38.667 55 102 55h24c64 0 96 -32 96 -96c-4.66699 -9.33301 -8.66699 -20 -12 -32c107.333 -44 188 -135.333 242 -274
c34 -90.667 51 -188.334 51 -293.001v-20c0 -238.667 -102.333 -392 -307 -460c-6.66699 -1.33301 -13 -3 -19 -5l2 -164c-35.333 -98.667 -84.666 -148 -147.999 -148c-64 0 -111 36.333 -141 109l9 201c-98 37.333 -178.667 124.666 -242 261.999
c-32.667 82.667 -49 151.334 -49 206.001c0 206.667 60.333 377 181 511c70 56 138.667 89.667 206 101z"></glyph>
    <glyph glyph-name="u0425" unicode="&#x425;" horiz-adv-x="1331" d="M283 1426c103.333 0 185.331 -93.001 245.998 -279.001c55.333 -156 93 -252.333 113 -289c3.33301 -5.33301 6.66602 -8 9.99902 -8c2 0 4 1.33301 6 4c10 12 37.667 82 83 210c74 172.667 167 281 279 325c35.333 13.333 82 23.333 140 30
c102 0 176.333 -47.667 223 -143c10.667 -34 16 -65 16 -93c0 -164.667 -167.333 -364 -502 -598c112.667 -31.333 191.334 -78 236.001 -140c38 -54.667 57 -118.667 57 -192c0 -119.333 -56.667 -198 -170 -236c-24.667 -9.33301 -51 -14 -79 -14h-7c-2 0 -3 -1 -3 -3
l-7 3h-7c-120 0 -202 66.667 -246 200c-28 92.667 -45.333 139 -52 139c-15.333 0 -39 -35.333 -71 -106c-59.333 -121.333 -126.666 -193.333 -201.999 -216c-33.333 -8.66699 -57.666 -13 -72.999 -13c-68 0 -115.667 38.667 -143 116c-6.66699 26.667 -10 51 -10 73
c0 142.667 90.667 266.667 272 372l-209 160c-102 89.333 -159.667 170.333 -173 243c-6.66699 39.333 -10 70.333 -10 93c0 126 50 231 150 315c46 28.667 90.333 44.334 133 47.001z"></glyph>
    <glyph glyph-name="u0426" unicode="&#x426;" horiz-adv-x="1142" d="M16 340c6.66699 100 10 165.331 10 195.998l-3 135c0 20 -6 122.667 -18 308c0 83.333 27.667 140.333 83 171c29.333 7.33301 49 11 59 11c65.333 0 109.333 -36.667 132 -110c4 -15.333 6 -32.666 6 -51.999c0 -13.333 -0.666992 -27.666 -2 -42.999l-24 -273v-45
c2 -110 33 -175.333 93 -196h6c38 0 60.333 29 67 87l-3 137l-17 282l-20 198c-0.666992 6.66699 -1 14 -1 22c0 100 43.667 178 131 234c54 26 100.333 39 139 39c156 0 263.667 -143 323 -429c15.333 -92.667 23 -176.667 23 -252v-110
c0 -118.667 -18.333 -209.667 -55 -273c226 -130 256 -323 90 -579c-206 -244.667 -331 -178.334 -375 198.999c-61.333 0 -198 3.33301 -410 10l-163 5l-5 2c-64.667 60.667 -86.667 169.334 -66 326.001z"></glyph>
    <glyph glyph-name="u0427" unicode="&#x427;" horiz-adv-x="877" d="M706 1444c76.667 -0.666992 130.336 -41.9961 161.003 -123.996c6 -18.667 9 -38 9 -58c-6 -91.333 -35.833 -195 -89.5 -311s-61.167 -292.667 -22.5 -530c60 -276.667 20 -416.334 -120 -419.001s-208.667 44 -206 140c-2.66699 208 18.166 342.5 62.499 403.5
s66.166 105.5 65.499 133.5c-69.333 -83.333 -149.333 -125 -240 -125c-146.667 0 -245.667 86.667 -297 260c-20 76 -30 148.667 -30 218v10c0 137.333 35.667 245.666 107 324.999c43.333 40.667 92 61 146 61h11c81.333 0 122 -57 122 -171
c0 -26 -10.333 -120.333 -31 -283v-19c0 -74.667 17 -122.334 51 -143.001l18 -2h16c31.333 5.33301 51.666 36.333 60.999 93v33c0 24 -12.667 69.333 -38 136c-6 29.333 -9 55.666 -9 78.999v5c0 138.667 67.667 231.334 203 278.001
c19.333 5.33301 36 8.66602 50 9.99902z"></glyph>
    <glyph glyph-name="u0428" unicode="&#x428;" horiz-adv-x="1470" d="M4 683v87.9971c0 256.667 48.667 439.667 146 549c22 22 49 33 81 33h9c101.333 -15.333 152 -92.333 152 -231c0 -24 -17.333 -89.667 -52 -197c-4.66699 -29.333 -8 -97 -10 -203c8.66699 -161.333 36.667 -242 84 -242h37c23.333 6.66699 35 25.334 35 56.001l-3 135
c0 20 -6 122.667 -18 308c0 83.333 27.667 140.333 83 171c29.333 7.33301 49 11 59 11c65.333 0 109.333 -36.667 132 -110c4 -15.333 6 -32.666 6 -51.999c0 -13.333 -0.666992 -27.666 -2 -42.999l-24 -273v-45c2 -110 33 -175.333 93 -196h6c38 0 60.333 29 67 87
l-3 137l-17 282l-20 198c-0.666992 6.66699 -1 14 -1 22c0 100 43.667 178 131 234c54 26 100.333 39 139 39c156 0 263.667 -143 323 -429c15.333 -92.667 23 -176.667 23 -252v-110c0 -182 -38 -348.333 -114 -499c-62.667 -102.667 -128.667 -154 -198 -154h-28
c-61.333 0 -198 3.33301 -410 10c-22 3.33301 -42.667 5 -62 5h-46l-290 -8h-4c-140.667 0 -237.667 158.667 -291 476c-8.66699 75.333 -13 143 -13 203z"></glyph>
    <glyph glyph-name="u0429" unicode="&#x429;" horiz-adv-x="1611" d="M4 683v87.998c0 256.667 48.667 439.667 146 549c22 22 49 33 81 33h9c101.333 -15.333 152 -92.333 152 -231c0 -24 -17.333 -89.667 -52 -197c-4.66699 -29.333 -8 -97 -10 -203c8.66699 -161.333 36.667 -242 84 -242h37c23.333 6.66699 35 25.334 35 56.001l-3 135
c0 20 -6 122.667 -18 308c0 83.333 27.667 140.333 83 171c29.333 7.33301 49 11 59 11c65.333 0 109.333 -36.667 132 -110c4 -15.333 6 -32.666 6 -51.999c0 -13.333 -0.666992 -27.666 -2 -42.999l-24 -273v-45c2 -110 33 -175.333 93 -196h6c38 0 60.333 29 67 87
l-3 137l-17 282l-20 198c-0.666992 6.66699 -1 14 -1 22c0 100 43.667 178 131 234c54 26 100.333 39 139 39c156 0 263.667 -143 323 -429c15.333 -92.667 23 -176.667 23 -252v-110c0 -118.667 -18.333 -209.667 -55 -273c226 -130 256 -323 90 -579
c-206 -244.667 -331 -178.334 -375 198.999c-61.333 0 -198 3.33301 -410 10c-22 3.33301 -42.667 5 -62 5h-46l-290 -8h-4c-140.667 0 -237.667 158.667 -291 476c-8.66699 75.333 -13 143 -13 203z"></glyph>
    <glyph glyph-name="u042A" unicode="&#x42a;" horiz-adv-x="1031" d="M604 0c-40 0 -87.333 9.99902 -142 29.999c-159.333 52.667 -243.666 198.667 -252.999 438c0 58 11.667 161 35 309c-6.66699 70.667 -10 129 -10 175c-237.333 70 -295.333 188 -174 354c138.667 76 271.667 114 399 114h38c108.667 -34.667 163 -112.667 163 -234v-11
c0 -55.333 -18.667 -128.666 -56 -219.999c101.333 -13.333 178.666 -38 231.999 -74c132 -108 198 -254.333 198 -439c0 -48.667 -10 -110.667 -30 -186c-82.667 -170.667 -206 -256 -370 -256h-30zM571 700.999c16.667 -87.333 56.333 -134 119 -140
c29.333 0 44.333 15.333 45 46v25c-0.666992 17.333 -7 36 -19 56c-32 56.667 -65 85 -99 85c-29.333 0 -45 -14.667 -47 -44z"></glyph>
    <glyph glyph-name="u042B" unicode="&#x42b;" horiz-adv-x="1218" d="M424 0c-40 0 -87.333 9.99902 -142 29.999c-159.333 52.667 -243.666 198.667 -252.999 438c0 58 11.667 161 35 309c-6.66699 70.667 -10 129 -10 175v156c22.667 208 97.667 312 225 312h38c108.667 -34.667 163 -112.667 163 -234v-11
c0 -55.333 -18.667 -128.666 -56 -219.999c101.333 -13.333 178.666 -38 231.999 -74c132 -108 198 -254.333 198 -439c0 -48.667 -10 -110.667 -30 -186c-82.667 -170.667 -206 -256 -370 -256h-30zM391 700.999c16.667 -87.333 56.333 -134 119 -140
c29.333 0 44.333 15.333 45 46v25c-0.666992 17.333 -7 36 -19 56c-32 56.667 -65 85 -99 85c-29.333 0 -45 -14.667 -47 -44zM1060 1394c84.667 0 135.332 -86 151.999 -258v-65c0 -50.667 -18.667 -211.667 -56 -483l-6 -108c0 -12 7 -113.333 21 -304
c0 -83.333 -35 -139 -105 -167c-15.333 -6 -33.666 -9 -54.999 -9c-56.667 0 -105 34.333 -145 103c-8 18 -12 42 -12 72v7c20.667 157.333 31 251.333 31 282c0 44 -21.667 168.333 -65 373c-6 56.667 -9 108.667 -9 156c0 212 68.667 342.667 206 392
c14.667 5.33301 29 8.33301 43 9z"></glyph>
    <glyph glyph-name="u042C" unicode="&#x42c;" horiz-adv-x="875" d="M424 0c-40 0 -87.333 9.99902 -142 29.999c-159.333 52.667 -243.666 198.667 -252.999 438c0 58 11.667 161 35 309c-6.66699 70.667 -10 129 -10 175v156c22.667 208 97.667 312 225 312h38c108.667 -34.667 163 -112.667 163 -234v-11
c0 -55.333 -18.667 -128.666 -56 -219.999c101.333 -13.333 178.666 -38 231.999 -74c132 -108 198 -254.333 198 -439c0 -48.667 -10 -110.667 -30 -186c-82.667 -170.667 -206 -256 -370 -256h-30zM391 700.999c16.667 -87.333 56.333 -134 119 -140
c29.333 0 44.333 15.333 45 46v25c-0.666992 17.333 -7 36 -19 56c-32 56.667 -65 85 -99 85c-29.333 0 -45 -14.667 -47 -44z"></glyph>
    <glyph glyph-name="u042D" unicode="&#x42d;" horiz-adv-x="966" d="M413 837c-12 12 -16.668 34.001 -14.001 66.001c10 46 45.667 81.667 107 107c-7.33301 4 -15.333 7.33301 -24 10c-8 2 -16.667 3 -26 3c-35.333 -2 -69.833 -18.667 -103.5 -50s-61.167 -52.666 -82.5 -63.999s-53.666 -17.333 -96.999 -18
c-58.667 0 -101.334 35.333 -128.001 106c-4.66699 20.667 -7 35.667 -7 45c0 135.333 106.333 246 319 332c66.667 23.333 127.667 35 183 35c161.333 0 280.333 -90 357 -270c28 -92.667 42 -187 42 -283v-65c0 -298.667 -106 -533.334 -318 -704.001
c-84.667 -58 -169.667 -87 -255 -87c-139.333 0 -235.666 77.333 -288.999 232c-19.333 71.333 -29 137.666 -29 198.999c6 170.667 52 280 138 328c26.667 10 53.667 16.333 81 19c34 0 73 -11.167 117 -33.5s74.667 -33.5 92 -33.5c35.333 0 60 21.667 74 65
c-78 8 -123.667 28.333 -137 61z"></glyph>
    <glyph glyph-name="u042E" unicode="&#x42e;" horiz-adv-x="1485" d="M892 633c9.33301 -101.333 37.332 -152 83.999 -152c68 0 122.667 99.333 164 298c4 44 6 82 6 114v6c0 164.667 -30.333 259.667 -91 285h-12c-69.333 0 -119.666 -147.667 -150.999 -443v-108zM620.999 921c29.333 130.667 79.334 245.333 150.001 344
c86.667 88.667 171.667 133 255 133c193.333 0 329.333 -128 408 -384c34 -115.333 51 -239 51 -371v-26c0 -301.333 -102.333 -495 -307 -581c-74 -24 -134 -36 -180 -36c-152.667 -0 -272.334 119.333 -359.001 358c-32.667 104.667 -49 191.667 -49 261
c0 46 2 90.667 6 134c-22 -1.33301 -39.667 -1.33301 -53 0h-4c-13.333 0 -21.333 -18.667 -24 -56v-7c0 -15.333 16.333 -127 49 -335c2.66699 -40 4 -70.667 4 -92v-7c-2.66699 -125.333 -30 -213.666 -82 -264.999c-42 -42 -90 -63 -144 -63
c-158.667 0 -267.334 96 -326.001 288c-7.33301 25.333 -11.666 55 -12.999 89v39c0 120.667 48.333 230 145 328c52.667 66 79.667 134 81 204v29c-10 50.667 -49 135 -117 253c-10.667 20.667 -17.667 46.667 -21 78v7c0 103.333 64.667 161 194 173
c96 0 158.333 -46 187 -138c7.33301 -18.667 11 -38 11 -58v-16l-27 -183l-1 -14c5.33301 -60.667 26.333 -92.334 63 -95.001h11c11.333 4.66699 42 7.66699 92 9z"></glyph>
    <glyph glyph-name="u042F" unicode="&#x42f;" d="M529 1426c43.333 0 90.6641 -7.33008 141.997 -21.9971c144 -64.667 216 -184.334 216 -359.001v-14c0 -86.667 -19 -187 -57 -301c-39.333 -120.667 -59 -223.334 -59 -308.001c14.667 -169.333 22 -262.333 22 -279c0 -93.333 -28 -140 -84 -140
c-85.333 0 -135.666 111 -150.999 333c-107.333 -224 -214.666 -336 -321.999 -336h-32c-133.333 14 -200 76 -200 186c2 58 23.333 110.667 64 158c46 44 100 72 162 84c89.333 17.333 150 41.666 182 72.999c-44.667 7.33301 -76.667 14 -96 20
c-156.667 60 -235 197.333 -235 412v9c0 58 8.66699 117 26 177c76.667 204.667 216.334 307 419.001 307h3zM374.998 751.003c-6 -20 -9 -37.333 -9 -52c0 -31.333 14.333 -48.333 43 -51h2c46 0 76.333 31 91 93c4 18 6 33.333 6 46c0 34 -13.333 53.667 -40 59h-8
c-38.667 0 -67 -31.667 -85 -95z"></glyph>
    <glyph glyph-name="u0430" unicode="&#x430;" horiz-adv-x="585" d="M184 989l60.002 19.998c110 38.667 204 14.334 282 -72.999c1.33301 -4 10 -19.667 26 -47c41.333 -119.333 42 -303 2 -551c-1.33301 -51.333 5 -125 19 -221c-8.66699 -28.667 -16 -44 -22 -46l-17 -6l-83 47l-8 -3c-24.667 -40 -53.667 -65.667 -87 -77l-76 -27
c-123.333 -10 -209.333 55 -258 195c-64 184 -13 328.667 153 434l25 9c59.333 20.667 138.333 3.66699 237 -51c17.333 40 15.666 90 -5.00098 150l-3 9c-2.66699 6.66699 -33.334 21.334 -92.001 44.001l-33 -12c-90 -31.333 -154.667 -28.333 -194 9l-29 85
c12.667 54.667 47 92 103 112zM191.002 505.998c-30.667 -50 -47.333 -93.667 -50 -131l27 -76c2.66699 -7.33301 33 -22 91 -44c66 47.333 88 102.333 66 165l-8 26c-16.667 46 -58.667 66 -126 60z"></glyph>
    <glyph glyph-name="u0431" unicode="&#x431;" horiz-adv-x="922" d="M427 1412c136.667 190 268.332 175.003 394.999 -44.9971c10 -24.667 17.333 -48.334 22 -71.001c-1.33301 -97.333 -53.666 -190.333 -156.999 -279c-104 -82.667 -189 -132.334 -255 -149.001c-77.333 -26.667 -127.333 -88.667 -150 -186
c110 62.667 207.667 94 293 94c156 0 261 -85 315 -255c10 -51.333 15 -90 15 -116c0 -188.667 -81 -316.334 -243 -383.001c-48 -14.667 -90.667 -22 -128 -22c-124 0 -240 73.667 -348 221c-102.667 159.333 -154 326.666 -154 501.999v41
c0 174.667 60 317.334 180 428.001c113.333 66.667 185 140 215 220zM368.998 412.003c0 -64.667 47.667 -108.332 143 -130.999h33c68 9.33301 102 36.666 102 81.999v27c-22.667 82 -77.667 123 -165 123c-75.333 -8 -113 -38 -113 -90v-11z"></glyph>
    <glyph glyph-name="u0432" unicode="&#x432;" horiz-adv-x="764" d="M444 1277c144 0 216 -86.667 216 -260c0 -134.667 -79.333 -250 -238 -346v-11c0 -14.667 11 -22 33 -22c36 22 64.667 33 86 33c151.333 0 227 -93.667 227 -281v-87c-34 -194.667 -131.333 -292 -292 -292c-42.667 0 -96.667 39.667 -162 119
c-42 -68.667 -78 -112 -108 -130h-44c-14 -0 -21 7.33301 -21 22v97c0 82 3.66699 157.667 11 227c0 147.333 -50.667 400 -152 758v86c0 10.667 10.667 21.667 32 33h33l108 -130c96 122.667 168.333 184 217 184h54zM325 952v-108c0 -9.33301 18 -27.333 54 -54h11
c48.667 28 81 78.333 97 151c0 27.333 -21.667 56.333 -65 87h-32c-13.333 0 -35 -25.333 -65 -76zM368 422c0 -54.667 32.333 -105 97 -151h11c43.333 24.667 65 57 65 97v22c0 45.333 -32.333 92 -97 140c-50.667 -32 -76 -68 -76 -108z"></glyph>
    <glyph glyph-name="u0433" unicode="&#x433;" horiz-adv-x="861" d="M119 1006c59.333 0 115.998 -0.833008 169.998 -2.5s142 -2.5 264 -2.5h10c132 0 222.333 -72 271 -216c4 -18 7.33301 -52.333 10 -103c0 -142.667 -48.333 -236.667 -145 -282c-44.667 -13.333 -77.667 -20 -99 -20c-66 0 -110.667 34.333 -134 103
c-4 16.667 -6 30 -6 40l27 145v23c-0.666992 26.667 -9 40 -25 40h-10c-31.333 0 -56.666 -21 -75.999 -63c-2.66699 -10.667 -4 -22 -4 -34v-8c0 -48.667 30.667 -130.667 92 -246c24.667 -55.333 37 -94 37 -116c0 -127.333 -64.667 -211.333 -194 -252
c-29.333 -8 -49.666 -12 -60.999 -12c-62 -0 -115.667 30.333 -161 91c-18.667 30.667 -28 59.667 -28 87c0 39.333 23.333 141 70 305c5.33301 26 8 48 8 66c0 48.667 -30.333 116 -91 202c-29.333 54 -44 99 -44 135v4c-0 52 30.333 89.333 91 112
c10 2.66699 19.333 4 28 4z"></glyph>
    <glyph glyph-name="u0434" unicode="&#x434;" d="M798 1075c61.333 -2.66699 92.3311 -45.6689 92.998 -129.002c-1.33301 -75.333 -19.333 -150.666 -54 -225.999s-53 -148.666 -55 -219.999c2.66699 -81.333 18.667 -230 48 -446c0 -206.667 -100.667 -347.667 -302 -423c-62.667 -24 -123.667 -36 -183 -36
c-172.667 0 -309.667 77.333 -411 232c-32 60.667 -48 115.334 -48 164.001v11c0 66.667 38.667 114 116 142c46 10.667 82.333 16 109 16h35c24.667 0 116.667 -12 276 -36h45c94.667 0 154.667 55 180 165c4 20 6 37 6 51c0 6 -0.333008 12 -1 18
c-60 -96 -132.333 -146.667 -217 -152h-16h-11c-109.333 0 -186.666 30.333 -231.999 91c-46.667 62 -70.667 142 -72 240c0 121.333 38.667 234.333 116 339c62 71.333 142.333 107.666 241 108.999h12c70 0 133.333 -33.667 190 -101
c10.667 127.333 55.334 191 134.001 191h1zM330.998 781.998l-0.999023 -1.99902c-11.333 -17.333 -17 -33 -17 -47c0 -10.667 3.33301 -20.334 10 -29.001l10 -8c9.33301 -6.66699 19.666 -10 30.999 -10c24 0 52 15.667 84 47c6.66699 7.33301 12.334 14.333 17.001 21
c12 18.667 18 35 18 49c0 12 -4.33301 22.667 -13 32l-7 5c-8.66699 6 -18.334 9 -29.001 9c-24 0 -52.667 -15.333 -86 -46z"></glyph>
    <glyph glyph-name="u0435" unicode="&#x435;" horiz-adv-x="600" d="M346 1027c144 0 228.668 -112 254.001 -336c0 -203.333 -91.667 -305 -275 -305c-40 4 -80.667 24.333 -122 61c-10.667 0 -24 -13.333 -40 -40v-10c0 -59.333 44 -117 132 -173c3.33301 0 17 -3.33301 41 -10l152 40h10c47.333 0 71 -23.667 71 -71
c0 -83.333 -67.667 -144.333 -203 -183h-81c-138.667 -0 -230.334 115.333 -275.001 346c-6.66699 32.667 -10 76.667 -10 132v81c28.667 312 144 468 346 468zM244.001 702v-41c0 -10 23.667 -33.667 71 -71c65.333 0 116.333 50.667 153 152c-12 30.667 -35.667 58 -71 82
c-50.667 0 -101.667 -40.667 -153 -122z"></glyph>
    <glyph glyph-name="u0436" unicode="&#x436;" horiz-adv-x="1239" d="M585 298c-7.33301 -13.333 -10.999 -24.3291 -10.999 -32.9961c-41.333 -70 -109.666 -142.667 -204.999 -218c-29.333 -24 -50.333 -36 -63 -36h-100c-36.667 6.66699 -55 21.667 -55 45v28c21.333 66 32 108.333 32 127c0 13.333 24.333 61.666 73 144.999
c35.333 27.333 64 54.666 86 81.999c9.33301 0 14 3 14 9v5c-80 13.333 -149.667 43.666 -209 90.999c-3.33301 0 -23 19.667 -59 59c-58 43.333 -87 75 -87 95v77c10 35.333 31.333 62.666 64 81.999h168c76.667 -12 131.334 -31.667 164.001 -59
c70 -26.667 123 -67.667 159 -123l4 -2l-12 58c-31.333 73.333 -44.333 117.666 -39 132.999v39c20.667 161.333 80.667 226.333 180 195c4.66699 -10 9.66699 -12.667 15 -8c68 0 128 -41.333 180 -124c-6.66699 -34 -19.667 -132.333 -39 -295
c86 146.667 149.833 239.834 191.5 279.501s80.5 59.5 116.5 59.5c58 0 87 -61 87 -183v-8c0 -149.333 -106 -263 -318 -341c116 -76 197.333 -138 244 -186c41.333 -44 62 -87 62 -129c0 -5.33301 -0.333008 -10.333 -1 -15c-12 -86 -53 -129 -123 -129
c-70.667 0 -143.334 73.667 -218.001 221c-28.667 -159.333 -82.334 -239 -161.001 -239h-3c-82.667 1.33301 -129.334 62.333 -140.001 183c0 36 1 74.333 3 115z"></glyph>
    <glyph glyph-name="u0437" unicode="&#x437;" horiz-adv-x="842" d="M385 1146l67.001 -0.00390625c138 3.33301 254 -67.667 348 -213c26.667 -53.333 40 -104.666 40 -153.999c0 -92 -33.333 -143.333 -100 -154c-4.66699 -10.667 -7 -21.334 -7 -32.001v-4c0 -24 23 -49.333 69 -76c22.667 -21.333 33.334 -59 32.001 -113
c0 -11.333 -0.333008 -23 -1 -35c0 -106.667 -67 -205 -201 -295c-71.333 -38 -120.666 -58.667 -147.999 -62h-41c-86 -5.33301 -184.667 17.667 -296 69c-96 60 -144 132.667 -144 218v3c0 90.667 40.333 112.334 121 65.001c33.333 -3.33301 64.666 -5 93.999 -5
c36.667 0 97.667 -13.667 183 -41c13.333 -4.66699 61.666 -8.66699 144.999 -12v192c11.333 32 19.666 52.333 24.999 61c-14 6.66699 -32 8.33398 -54 5.00098c-32.667 -3.33301 -73.667 -8.66602 -123 -15.999c-36 -15.333 -61.667 -23 -77 -23h-7
c-108.667 -64 -171.667 -52.333 -189 35v13c0 79.333 41.667 121.333 125 126c19.333 6.66699 46 13 80 19h6c51.333 -8 126.666 -14 225.999 -18c4.66699 3.33301 7 24 7 62v10c10.667 67.333 3.66699 103 -21 107s-96.667 -5.33301 -216 -28
c-34.667 -10 -70 -16.333 -106 -19c-115.333 -110 -188 -112.667 -218 -8c-3.33301 16 -5.66602 35 -6.99902 57v14c0 120.667 74 200.334 222 239.001c74 8.66699 129.333 13 166 13z"></glyph>
    <glyph glyph-name="u0438" unicode="&#x438;" horiz-adv-x="671" d="M579 1026c97.333 -22 115.33 -242.667 53.9971 -662l-25 -109c-41.333 -160 -75.666 -237 -102.999 -231l-36 8c-16 4 -22.333 14 -19 30l33 145c22 97.333 16.667 149.666 -16 156.999c-22 4.66699 -71 -82 -147 -260c-36 -49.333 -77.667 -82.333 -125 -99l-60 14
c-125.333 28 -160.666 265 -105.999 711l27 121c22 96.667 49 141.334 81 134.001l24 -5c28.667 -6.66699 40.334 -123.667 35.001 -351l47 -75c54.667 -12 133.667 131.333 237 430c38.667 34 71.667 48 99 42z"></glyph>
    <glyph glyph-name="u0439" unicode="&#x439;" horiz-adv-x="671" d="M579 1026c97.333 -22 115.331 -242.667 53.998 -662l-25 -109c-41.333 -160 -75.666 -237 -102.999 -231l-36 8c-16 4 -22.333 14 -19 30l33 145c22 97.333 16.667 149.666 -16 156.999c-22 4.66699 -71 -82 -147 -260c-36 -49.333 -77.667 -82.333 -125 -99l-60 14
c-125.333 28 -161 265 -107 711l28 121c22 96.667 49 141.334 81 134.001l24 -5c28.667 -6.66699 40.334 -123.667 35.001 -351l47 -75c54.667 -12 133.667 131.333 237 430c38.667 34 71.667 48 99 42zM195.998 1439l161 -43l5 -1c6.66699 -0.666992 12.667 -0.666992 18 0
c83.333 21.333 130.333 31 141 29h4c34 -5.33301 47 -37.666 39 -96.999c-6 -36 -26 -67 -60 -93c-95.333 -50 -172.333 -70.333 -231 -61l-15 2c-91.333 14 -137 81.333 -137 202v7c7.33301 43.333 32.333 61.666 75 54.999z"></glyph>
    <glyph glyph-name="u043A" unicode="&#x43a;" horiz-adv-x="799" d="M234 1089c68 0 128.003 -41.333 180.003 -124c-6.66699 -34 -19.667 -132.333 -39 -295c86 146.667 149.833 239.834 191.5 279.501s80.5 59.5 116.5 59.5c58 0 87 -61 87 -183v-8c0 -149.333 -106 -263 -318 -341c116 -76 197.333 -138 244 -186
c41.333 -44 62 -87 62 -129c0 -5.33301 -0.333008 -10.333 -1 -15c-12 -86 -53 -129 -123 -129c-70.667 0 -143.334 73.667 -218.001 221c-28.667 -159.333 -82.334 -239 -161.001 -239h-3c-82.667 1.33301 -129.334 62.333 -140.001 183c0 78.667 4.33301 167 13 265
c0 35.333 -15.667 129.333 -47 282c-31.333 73.333 -44.333 117.666 -39 132.999v39c20.667 161.333 80.667 226.333 180 195c4.66699 -10 9.66699 -12.667 15 -8z"></glyph>
    <glyph glyph-name="u043B" unicode="&#x43b;" horiz-adv-x="538" d="M308 1026l62 -20.002c52 -45.333 107 -281.333 165 -708c9.33301 -94 8.33301 -178.667 -3 -254l-8 -26c-4 -12 -12 -16 -24 -12l-9 3c-36 11.333 -99.667 97 -191 257c-46 14.667 -115.667 -70.666 -209 -255.999l-33 -10l-35 12c-53.333 16.667 8 300.334 184 851.001
c44 116.667 77.667 171 101 163z"></glyph>
    <glyph glyph-name="u043C" unicode="&#x43c;" d="M617 1006c83.333 0 156.334 -109.667 219.001 -329c28.667 -125.333 43 -247 43 -365v-21c0 -144.667 -30.667 -237.334 -92 -278.001c-20.667 -8.66699 -38 -13 -52 -13h-2c-85.333 0 -138 71 -158 213c-8 52 -17 126.333 -27 223c-24 -167.333 -58.667 -251 -104 -251
c-41.333 0 -80 79.667 -116 239v-57c0 -186 -35.333 -300 -106 -342c-17.333 -6.66699 -32.666 -10 -45.999 -10c-80.667 0 -131.334 63.333 -152.001 190c-3.33301 28.667 -5 57.334 -5 86.001c0 140 36 332.667 108 578c29.333 85.333 76.666 129.333 141.999 132
c74 0 131 -88.333 171 -265c30.667 180 89.667 270 177 270z"></glyph>
    <glyph glyph-name="u043D" unicode="&#x43d;" horiz-adv-x="686" d="M541 1028h44.002c23.333 0 35 -41.333 35 -124v-372l71 -452v-27c0 -8.66699 -8.66699 -17.334 -26 -26.001h-27c-52.667 36 -100 157 -142 363c-24.667 23.333 -48.334 35 -71.001 35c-58.667 0 -88 -85.667 -88 -257c-28.667 -112 -55.334 -168 -80.001 -168h-27
c-23.333 0 -44 165.333 -62 496c-28.667 113.333 -84.667 258 -168 434v45c2 11.333 8 17 18 17h62c52 -23.333 122.667 -120.666 212 -291.999l45 -27h26c72 0 116.333 97.667 133 293c21.333 41.333 36.333 62 45 62z"></glyph>
    <glyph glyph-name="u043E" unicode="&#x43e;" horiz-adv-x="608" d="M385 1027c123.333 0 194.667 -100 214 -300v-181c0 -258.667 -96.333 -437 -289 -535l-64 -11h-43c-116 0 -183.667 100 -203 300v117c0 298.667 107 502 321 610h64zM193.001 492c19.333 -71.333 40.667 -107 64 -107h32c78.667 52.667 118 131 118 235v86
c0 56 -21.667 95.333 -65 118c-99.333 -70 -149 -180.667 -149 -332z"></glyph>
    <glyph glyph-name="u043F" unicode="&#x43f;" horiz-adv-x="835" d="M654 1008c-6.66699 2.66699 -36.334 9.66699 -89.001 21c-269.333 -16 -437 -114.667 -503 -296l-38 -106c-18.667 -50 -25.667 -91.333 -21 -124c0.666992 -287.333 56.334 -451.333 167.001 -492l11 -4c49.333 -18 83 -2.33301 101 47l8 22
c-36 230 -44 372.333 -24 427c56 92.667 134 132 234 118c92 -33.333 107 -134.333 45 -303l-46 -127c-28 -93.333 -30.667 -144.333 -8 -153l53 -19c56.667 1.33301 129.667 102.333 219 303c14.667 41.333 36 133.333 64 276c22 223.333 -35.667 360 -173 410z"></glyph>
    <glyph glyph-name="u0440" unicode="&#x440;" horiz-adv-x="787" d="M458 1022c180.667 0 292 -169.001 334 -507.001v-50c-32.667 -305.333 -115 -458 -247 -458h-62c-8.66699 0 -54 37.333 -136 112l-50 -38c74 -312 123.667 -567.667 149 -767v-62c0 -123.333 -70.333 -185 -211 -185c-123.333 28.667 -185 98.667 -185 210v124l99 544
v75c0 206.667 -49.667 462.334 -149 767.001v86c2.66699 16.667 11 25 25 25h37l136 -124c26.667 27.333 59.667 89.333 99 186c38 41.333 91.667 62 161 62zM396 427.999v-73.998c0 -52.667 33 -102.334 99 -149.001h25c74 48 111 130.667 111 248
c0 43.333 -33 88.666 -99 135.999h-37c-66 -41.333 -99 -95 -99 -161z"></glyph>
    <glyph glyph-name="u0441" unicode="&#x441;" horiz-adv-x="678" d="M423 986c98 0 165.667 -54.333 203 -163c13.333 -50 20 -96.667 20 -140c-4 -119.333 -36.333 -196 -97 -230c-18 -7.33301 -36.667 -11.666 -56 -12.999c-24 0 -51.5 7.83301 -82.5 23.5s-52.5 23.5 -64.5 23.5c-34.667 0 -55 -31 -61 -93v-20c0 -58 19 -92.667 57 -104
c5.33301 -1.33301 11.333 -2 18 -2c24.667 1.33301 48.834 13 72.501 35s43 37 58 45s37.5 12.333 67.5 13c41.333 0 71.666 -25 90.999 -75c2.66699 -14.667 4 -25.334 4 -32.001c0 -94.667 -74.333 -172 -223 -232c-47.333 -16.667 -90.333 -25 -129 -25
c-113.333 0 -197 63.333 -251 190c-19.333 64.667 -29 130.667 -29 198v46c0 210 74.667 374.667 224 494c58.667 40.667 118 61 178 61z"></glyph>
    <glyph glyph-name="u0442" unicode="&#x442;" horiz-adv-x="671" d="M25 964l93 31.002c188.667 64 368.334 31.667 539.001 -97l10 -28c2.66699 -8.66699 -3.66602 -21 -18.999 -37l-9 -3c-84.667 -28.667 -163 -31 -235 -7c-42.667 -14 -29 -199 41 -555c-8.66699 -147.333 -39.334 -230 -92.001 -248l-46 -15
c-36.667 5.33301 -60.667 24.666 -72 57.999l-3 10c-46 136 -45.333 339.333 2 610c5.33301 66 4 110.333 -4 133c-136 14 -211.333 43.667 -226 89l-4 10c-2.66699 9.33301 5.66602 25.666 24.999 48.999z"></glyph>
    <glyph glyph-name="u0443" unicode="&#x443;" horiz-adv-x="956" d="M785 1000c71.333 -0.666992 121 -38.667 149 -114c5.33301 -17.333 8 -35.333 8 -54c-5.33301 -84 -55 -197 -149 -339c-8 -14.667 -12 -32.667 -12 -54c0 -4.66699 0.333008 -9.33398 1 -14.001c2 -28 18 -122 48 -282c3.33301 -12 6.33301 -41 9 -87
c0 -110.667 -58.333 -213.334 -175 -308.001c-76 -50.667 -152.333 -76 -229 -76h-17c-198.667 0 -329.667 59 -393 177c-15.333 30.667 -23.333 67.334 -24 110.001c0 77.333 35.333 131.333 106 162c36 11.333 74.667 17 116 17c53.333 0 114.666 -16.333 183.999 -49
c19.333 -8.66699 37.333 -13 54 -13h26c85.333 0 140.666 49 165.999 147c2.66699 21.333 4 39.333 4 54l-1 17c-64 -76.667 -137.667 -115 -221 -115c-135.333 0 -226.666 80 -273.999 240c-18.667 70 -28 137 -28 201v9c0 126.667 33 226.667 99 300
c40 37.333 84.667 56 134 56h11c74.667 0 112 -52.667 112 -158c0 -24 -9.33301 -111 -28 -261v-17c0 -69.333 15.667 -113.333 47 -132l16 -2h15c28.667 4.66699 47.334 33.334 56.001 86.001v30c0 22 -11.667 64 -35 126c-5.33301 26.667 -8 51 -8 73v4
c0 128 62.333 213.667 187 257c18 4.66699 33.333 7.66699 46 9z"></glyph>
    </font>
</defs>
</svg>
